<svg width="139" height="115" viewBox="0 0 139 115" fill="none" xmlns="http://www.w3.org/2000/svg">
<path d="M129.688 90.826C127.948 89.6393 125.839 89.1228 123.742 89.3564C120.201 89.7623 115.067 90.2787 115.067 90.2787L115.085 90.4447L90.288 91.9696L82.7007 76.5613L71.1906 84.1425C71.1906 84.1425 72.7032 86.565 79.153 98.4809C81.7293 103.24 87.0109 105.89 92.3663 105.109L121.566 100.836V100.78C124.579 100.608 127.85 100.325 128.323 99.8951C129.227 99.065 130.051 96.0522 130.051 96.0522C130.051 96.0522 135.252 99.1449 136.255 99.2187C137.263 99.2864 137.441 98.4502 138.062 97.5648C138.499 96.9684 133.137 93.1747 129.688 90.826Z" fill="#F7A491"/>
<path d="M84.2259 75.5653C84.2259 75.5653 79.4055 66.2871 74.9908 57.5254C69.5678 46.7654 57.6027 44.6134 57.6027 44.6134L40.2761 42.3385C40.2761 42.3385 25.7962 35.7841 12.3002 52.047L1.20818 64.4179L3.56307 66.533L14.5444 76.4076L16.7148 78.3567L21.6829 73.2411L19.371 86.2022L15.2945 104.267C15.3007 104.273 15.3007 104.273 15.3068 104.279L24.1177 103.215L30.0818 66.7851L63.6713 69.4659L61.0336 92.4369C61.5747 92.357 65.6389 91.5515 66.9608 86.0301C67.4773 83.8596 67.3174 82.0212 66.9915 80.6747L68.9345 85.6489L84.2259 75.5653Z" fill="url(#paint0_linear_4323_17929)"/>
<path d="M30.0758 66.7606L24.1117 103.191L15.3008 104.254C22.8697 110.778 32.7197 114.732 43.4981 114.732C48.8842 114.732 54.0367 113.742 58.7895 111.94L61.0276 92.4062L63.6653 69.4352L30.0758 66.7606Z" fill="#263238"/>
<path d="M32.0676 40.5308L31.336 70.1238L36.9434 71.0092L37.6936 41.0227C37.6936 41.0227 35.726 40.0943 32.0676 40.5308Z" fill="#263238"/>
<path d="M55.7766 70.2836L60.3942 44.8655C60.6585 44.5827 64.4522 45.9415 65.5897 47.2388L61.4455 70.8186L55.7766 70.2836Z" fill="#263238"/>
<path d="M37.1467 66.656C37.1713 66.656 37.202 66.8343 37.2328 67.1602C37.2574 67.4861 37.3004 67.9656 37.2512 68.5621C37.202 69.1523 37.0422 69.8901 36.5564 70.548C36.3166 70.8739 35.9908 71.1813 35.5788 71.3719C35.1669 71.5625 34.675 71.6302 34.2077 71.538C33.2608 71.3535 32.523 70.7325 32.1049 70.0439C31.6868 69.3491 31.5392 68.6235 31.4839 68.0333C31.4285 67.4369 31.4593 66.9573 31.49 66.6314C31.5208 66.3055 31.5577 66.1211 31.5761 66.1272C31.6376 66.1272 31.5638 66.865 31.7114 68.0087C31.7913 68.5743 31.9573 69.2568 32.357 69.8901C32.7505 70.505 33.4391 71.0645 34.2692 71.2244C35.1054 71.3965 35.8985 70.9661 36.3289 70.3697C36.7839 69.7795 36.9622 69.1031 37.036 68.5375C37.1528 67.3938 37.0852 66.656 37.1467 66.656Z" fill="url(#paint1_linear_4323_17929)"/>
<path d="M33.8265 69.2691C33.1686 69.0048 32.8489 68.2608 33.1133 67.609C33.3777 66.9511 34.1217 66.6314 34.7734 66.8958C35.4313 67.1602 35.751 67.9042 35.4866 68.5559C35.2284 69.2138 34.4844 69.5335 33.8265 69.2691Z" fill="url(#paint2_linear_4323_17929)"/>
<path d="M60.1178 69.429C60.1178 70.1361 59.5459 70.7079 58.8389 70.7079C58.1318 70.7079 57.56 70.1361 57.56 69.429C57.56 68.7219 58.1318 68.1501 58.8389 68.1501C59.5398 68.1501 60.1178 68.7219 60.1178 69.429Z" fill="url(#paint3_linear_4323_17929)"/>
<path d="M61.8331 68.5436C61.8638 68.5498 61.8208 69.1277 61.5379 70.0377C61.3842 70.4866 61.1444 71.0276 60.6833 71.4888C60.2406 71.9622 59.5028 72.2881 58.7403 72.202C57.9841 72.1282 57.32 71.747 56.8958 71.249C56.4715 70.7509 56.2686 70.1914 56.1764 69.718C56.0842 69.2446 56.1088 68.851 56.1457 68.5928C56.1825 68.3284 56.2379 68.1931 56.2563 68.1931C56.3178 68.1993 56.1887 68.7834 56.3977 69.6688C56.5084 70.1053 56.7175 70.6157 57.1171 71.0522C57.5045 71.4826 58.1071 71.8146 58.7711 71.8823C59.4413 71.9499 60.0623 71.6917 60.4804 71.2736C60.9046 70.8678 61.1567 70.3759 61.3289 69.9516C61.6609 69.1031 61.7839 68.5313 61.8331 68.5436Z" fill="url(#paint4_linear_4323_17929)"/>
<path d="M33.7459 80.6993C33.7028 80.6931 33.6844 80.4533 33.6967 80.066C33.7028 79.8754 33.7151 79.6417 33.7274 79.3897C33.7397 79.2544 33.7459 79.1191 33.7582 78.99L33.7766 78.7809L33.7889 78.6703L33.795 78.6149V78.5903V78.578V78.5719V78.5657C33.6352 78.7072 34.0103 78.369 33.9734 78.4059C35.1539 78.535 36.1069 78.7072 36.0946 78.7932C36.0823 78.8793 35.1231 78.8486 33.9365 78.7195C33.8996 78.7563 34.2746 78.4182 34.1148 78.5596V78.5657V78.5719V78.5842V78.6149L34.1086 78.6703L34.0963 78.7809L34.0717 78.9961C34.0533 79.1314 34.041 79.2605 34.0226 79.4019C33.9857 79.6602 33.9549 79.8938 33.918 80.0844C33.8565 80.4656 33.7889 80.6993 33.7459 80.6993Z" fill="url(#paint5_linear_4323_17929)"/>
<path d="M32.8481 89.172C32.7621 89.1597 32.7928 88.2067 32.9158 87.0384C33.0387 85.8702 33.2109 84.9295 33.3031 84.9356C33.3892 84.9479 33.3585 85.901 33.2355 87.0692C33.1064 88.2436 32.9342 89.1843 32.8481 89.172Z" fill="url(#paint6_linear_4323_17929)"/>
<path d="M34.0965 96.5072C34.0596 96.5872 33.1619 96.2244 32.0982 95.6956C32.1167 95.7325 31.9322 95.3943 32.0121 95.5358V95.5296V95.5235V95.5112V95.4866L32.0183 95.4312L32.0306 95.3206L32.0552 95.1054C32.0736 94.9762 32.0921 94.841 32.1105 94.7057C32.1474 94.4536 32.1843 94.22 32.215 94.0294C32.2827 93.6482 32.3503 93.4084 32.3933 93.4145C32.4364 93.4207 32.4487 93.6605 32.4364 94.054C32.4302 94.2507 32.4179 94.4782 32.3995 94.7364C32.3872 94.8717 32.3749 95.007 32.3688 95.1361L32.3503 95.3513L32.338 95.462L32.3319 95.5173V95.5419V95.5542V95.5604V95.5665C32.4118 95.7079 32.2273 95.3697 32.2458 95.4066C33.3033 95.9354 34.1334 96.4273 34.0965 96.5072Z" fill="url(#paint7_linear_4323_17929)"/>
<path d="M39.7775 99.3294C39.7406 99.4094 39.0704 99.1573 38.2834 98.7699C37.4964 98.3825 36.8938 98.0013 36.9369 97.9214C36.9738 97.8415 37.6439 98.0936 38.431 98.4809C39.2118 98.8683 39.8144 99.2495 39.7775 99.3294Z" fill="url(#paint8_linear_4323_17929)"/>
<path d="M46.5413 100.885C46.5721 100.965 45.7113 101.395 44.6045 101.844C44.3401 101.832 44.5307 101.844 44.4754 101.838H44.4693L44.4631 101.832L44.4508 101.826L44.4262 101.813L44.377 101.789L44.2786 101.74L44.088 101.641C43.9712 101.58 43.8544 101.518 43.7314 101.451C43.5039 101.328 43.301 101.217 43.135 101.119C42.7968 100.922 42.6001 100.774 42.6185 100.737C42.637 100.701 42.8706 100.768 43.2334 100.916C43.4117 100.99 43.6269 101.082 43.8606 101.186C43.9835 101.248 44.1065 101.303 44.2294 101.358L44.4201 101.451L44.5184 101.5L44.5676 101.524L44.5922 101.537L44.6045 101.543L44.6107 101.549H44.6168C44.5615 101.549 44.7459 101.555 44.4877 101.543C45.5883 101.1 46.5044 100.805 46.5413 100.885Z" fill="url(#paint9_linear_4323_17929)"/>
<path d="M51.1342 99.0281C51.1649 99.1081 50.6792 99.3847 50.0459 99.643C49.4126 99.9012 48.8715 100.043 48.8346 99.9627C48.8039 99.8828 49.2896 99.6061 49.9229 99.3479C50.5562 99.0835 51.0973 98.9421 51.1342 99.0281Z" fill="url(#paint10_linear_4323_17929)"/>
<path d="M55.6469 95.1422C55.733 95.1484 55.7084 96.1199 55.5854 97.3004C55.3887 97.5648 55.5301 97.3742 55.487 97.4356H55.4809H55.4748L55.4625 97.4418L55.4379 97.4541L55.3887 97.4725L55.2842 97.5156L55.0874 97.5955C54.9644 97.6447 54.8415 97.6877 54.7123 97.7369C54.4726 97.8292 54.2512 97.9029 54.0667 97.9644C53.6978 98.0812 53.458 98.1366 53.4396 98.0935C53.4211 98.0505 53.6302 97.9275 53.9807 97.7492C54.1528 97.6632 54.368 97.5648 54.6017 97.4602C54.7308 97.4049 54.8476 97.3496 54.9706 97.3004L55.1673 97.2205L55.2657 97.1774L55.3149 97.159L55.3395 97.1467L55.3518 97.1405H55.3579H55.3641C55.321 97.202 55.4625 97.0114 55.2657 97.2696C55.3887 96.0891 55.5547 95.1361 55.6469 95.1422Z" fill="url(#paint11_linear_4323_17929)"/>
<path d="M56.4648 87.1799C56.5509 87.186 56.5324 88.0899 56.4156 89.1904C56.3049 90.291 56.1389 91.1764 56.0528 91.1641C55.9667 91.158 55.9852 90.2541 56.102 89.1536C56.2188 88.053 56.3787 87.1676 56.4648 87.1799Z" fill="url(#paint12_linear_4323_17929)"/>
<path d="M54.9583 80.8222C54.9706 80.7362 55.9359 80.7669 57.1164 80.896C57.3992 81.2465 57.1963 80.9944 57.2578 81.0743V81.0805V81.0866V81.0989V81.1235L57.2517 81.1789L57.2394 81.2895L57.2148 81.5047C57.1963 81.6339 57.184 81.7691 57.1656 81.9044C57.1287 82.1626 57.098 82.3901 57.0611 82.5807C56.9934 82.9681 56.9258 83.2017 56.8828 83.1956C56.8397 83.1894 56.8213 82.9496 56.8336 82.5561C56.8397 82.3594 56.852 82.1319 56.8705 81.8737C56.8828 81.7384 56.8951 81.6031 56.9012 81.4678L56.9197 81.2527L56.9319 81.142L56.9381 81.0866V81.062V81.0497V81.0436V81.0374C56.9996 81.1174 56.7967 80.8591 57.0795 81.2096C55.899 81.0866 54.9521 80.9083 54.9583 80.8222Z" fill="url(#paint13_linear_4323_17929)"/>
<path d="M47.4143 80.0107C47.4266 79.9246 48.2751 79.943 49.3204 80.0537C50.3595 80.1644 51.1957 80.3304 51.1895 80.4165C51.1772 80.5026 50.3287 80.4841 49.2835 80.3734C48.2444 80.2566 47.4082 80.0967 47.4143 80.0107Z" fill="url(#paint14_linear_4323_17929)"/>
<path d="M39.8704 79.1929C39.8827 79.1068 40.7312 79.1253 41.7703 79.236C42.8094 79.3466 43.6456 79.5126 43.6395 79.5987C43.6272 79.6848 42.7787 79.6663 41.7334 79.5557C40.7005 79.445 39.8643 79.2851 39.8704 79.1929Z" fill="url(#paint15_linear_4323_17929)"/>
<path d="M0.34104 68.7772C0.304149 69.5151 0.285706 70.259 0.285706 71.0092C0.285706 73.9851 0.586984 76.8933 1.1588 79.7032C1.16495 79.734 1.1711 79.7586 1.17724 79.7893C1.25103 80.1459 1.3371 80.4964 1.42318 80.853C1.76135 82.2426 2.15486 83.6137 2.59756 84.9602C2.65289 85.1262 2.70823 85.2984 2.76972 85.4644C4.35604 85.1078 8.96131 81.1297 14.2552 76.1494L3.2862 66.2871C1.74292 67.8181 0.839073 68.6051 0.34104 68.7772Z" fill="#F7A491"/>
<path d="M69.5863 4.9184C69.9675 9.16705 74.8125 12.7455 79.0735 12.6164C81.4222 12.5426 83.8017 11.4973 86.0644 12.1491C89.8519 13.2435 91.3829 18.5313 95.2626 19.2384C98.1647 19.7671 100.846 17.4184 103.785 17.2585C105.949 17.1417 107.99 18.2239 109.779 19.4413C111.569 20.6587 113.29 22.0667 115.338 22.7615C117.391 23.4563 119.273 22.2204 121.345 21.5933C121.861 22.9152 122.193 24.5323 122.851 25.9341C123.515 27.3299 124.308 29.8262 123.14 30.3673C123.14 30.3673 119.875 32.0581 117.988 31.9659C119.488 33.5153 121.861 34.1609 123.939 33.5768C124.462 36.7372 124.856 40.3771 122.722 42.7627C121.769 43.8203 120.429 44.4659 119.045 44.8225C112.19 46.5933 105.033 41.8036 98.0787 43.1132C95.2257 43.6481 92.6126 45.1914 89.7289 45.5665C86.8944 45.9354 83.9185 45.0992 81.6989 43.2977C78.9567 41.078 77.069 37.3643 73.589 36.7863C72.0457 36.5281 70.4778 36.9708 68.9714 37.3951C67.465 37.8193 65.8848 38.2251 64.3538 37.9054C62.8229 37.5795 61.3779 36.276 61.4517 34.7143" fill="#263238"/>
<path d="M55.9608 46.1875C56.7293 41.9019 57.6147 37.4073 57.6147 37.4073C57.6147 37.4073 63.296 37.4627 65.7124 30.4595C68.0119 23.7821 69.6782 7.71597 69.6782 7.71597C62.2999 3.07382 52.5053 3.57185 45.7234 8.93954L40.0606 43.8326C39.4027 47.8845 42.3602 51.6781 46.7072 52.3483C51.0849 53.0247 55.2291 50.264 55.9608 46.1875Z" fill="#F7A491"/>
<path d="M65.4476 19.7487C65.38 20.2406 64.9066 20.5849 64.3901 20.5234C63.8798 20.462 63.517 20.0131 63.5846 19.5212C63.6523 19.0293 64.1257 18.685 64.636 18.7465C65.1586 18.808 65.5153 19.2568 65.4476 19.7487Z" fill="#263238"/>
<path d="M67.1262 18.9801C66.991 19.0785 66.3823 18.4391 65.3862 18.2669C64.3963 18.0824 63.5724 18.4637 63.4863 18.3222C63.4432 18.2608 63.597 18.064 63.9536 17.8857C64.304 17.7074 64.882 17.5783 65.4969 17.6889C66.1179 17.7996 66.5975 18.1193 66.8557 18.4083C67.1324 18.6973 67.1939 18.9371 67.1262 18.9801Z" fill="#263238"/>
<path d="M55.241 18.1316C55.1734 18.6235 54.7 18.9678 54.1835 18.9063C53.6731 18.8449 53.3104 18.396 53.378 17.9041C53.4457 17.4123 53.9191 17.0679 54.4294 17.1294C54.9459 17.1909 55.3087 17.6397 55.241 18.1316Z" fill="#263238"/>
<path d="M56.6926 17.5106C56.5573 17.609 55.9486 16.9696 54.9525 16.7974C53.9626 16.613 53.1387 16.9942 53.0526 16.8528C53.0096 16.7913 53.1633 16.5945 53.5199 16.4162C53.8704 16.244 54.4483 16.1088 55.0632 16.2195C55.6842 16.3301 56.1638 16.6498 56.422 16.9388C56.6926 17.234 56.7602 17.4676 56.6926 17.5106Z" fill="#263238"/>
<path d="M59.0043 25.5222C59.0105 25.4668 59.6438 25.4668 60.6706 25.516C60.9289 25.5345 61.181 25.5283 61.2486 25.3623C61.3408 25.1902 61.2855 24.895 61.2117 24.5814C61.0826 23.9235 60.9473 23.2349 60.7997 22.5155C60.2402 19.5827 59.8836 17.1847 60.0066 17.1601C60.1234 17.1417 60.6706 19.5027 61.2301 22.4356C61.3593 23.1611 61.4884 23.8498 61.6052 24.5077C61.6482 24.8151 61.7589 25.1717 61.5621 25.5283C61.4576 25.7066 61.2486 25.8112 61.0764 25.8235C60.9043 25.8419 60.7628 25.8235 60.6337 25.805C59.6192 25.682 58.9982 25.5775 59.0043 25.5222Z" fill="#263238"/>
<path d="M57.6144 37.4073C57.6144 37.4073 52.714 36.8663 48.4223 33.1341C48.4223 33.1341 49.8918 38.4956 57.2209 39.092L57.6144 37.4073Z" fill="#EB996E"/>
<path d="M58.1622 27.8402C57.8855 27.3053 57.3075 26.9363 56.6742 26.8933C56.2377 26.8626 55.7642 26.9978 55.4384 27.2991C55.1125 27.6065 54.9711 28.0923 55.1494 28.4673C55.3523 28.8916 55.8995 29.076 56.3975 29.0269C56.8956 28.9777 57.3567 28.7379 57.7994 28.4919C57.9224 28.4243 58.0454 28.3567 58.1376 28.246C58.2237 28.1415 58.2667 27.9877 58.199 27.8771" fill="#EB996E"/>
<path d="M55.9549 25.6944C56.1209 25.7128 55.9303 26.7949 56.7173 27.7234C57.5043 28.6518 58.6725 28.7379 58.6602 28.8855C58.6664 28.9531 58.3651 29.0515 57.8794 28.9777C57.3998 28.9101 56.7296 28.6334 56.25 28.0677C55.7704 27.4959 55.6352 26.8318 55.6782 26.383C55.7151 25.9219 55.8811 25.6759 55.9549 25.6944Z" fill="#263238"/>
<path d="M50.5933 3.78705C52.5178 8.0357 58.7586 13.2005 63.5729 15.0328C63.1363 14.1597 60.4248 11.6941 59.9883 10.8148C61.9312 12.93 64.7411 15.7952 67.7108 16.5084C68.0613 16.5945 68.4487 16.6621 68.7745 16.5392C69.2172 16.3731 69.3894 15.9181 69.5124 15.5062C70.035 13.7846 70.4838 10.7472 70.5269 8.95184C70.5761 7.15646 70.1026 5.26885 68.8053 3.8178C67.1636 1.97323 64.4828 1.08784 61.9066 0.540618C59.7423 0.0794764 57.4797 -0.215654 55.3461 0.196299C53.2126 0.608252 51.2204 1.83796 50.581 3.64564" fill="#263238"/>
<path d="M39.1018 19.7794C39.0895 17.8488 39.1326 16.0288 39.2863 14.8421C39.772 11.0915 40.9402 -2.53981 53.5263 0.971012L52.1859 4.46339C52.1859 4.46339 53.1512 13.2374 46.6953 17.9472C46.6953 17.9472 46.726 26.7027 42.2499 29.8631C42.2499 29.8631 39.1325 23.9236 39.1018 19.7794Z" fill="#263238"/>
<path d="M46.9658 17.3508C46.2218 17.0679 45.4041 16.945 44.6232 17.0925C43.8423 17.2401 43.0984 17.6705 42.6557 18.3345C42.213 18.9986 42.0961 19.8471 42.2314 20.6341C42.3667 21.4211 42.7417 22.1528 43.2029 22.8045C43.5349 23.2718 43.9284 23.7145 44.4388 23.9789C44.9491 24.2433 45.5947 24.3048 46.0866 24.0158" fill="#FFBE9D"/>
<path d="M45.7176 21.9437C45.8037 21.9868 45.3856 22.3926 44.7154 22.079C44.3895 21.9314 44.1128 21.5748 43.9776 21.1629C43.8423 20.7509 43.7869 20.3082 43.8177 19.8163C43.8546 19.3245 44.0513 18.8326 44.3833 18.519C44.7031 18.1931 45.1519 18.0456 45.5024 18.1009C46.2279 18.2116 46.3632 18.7526 46.2833 18.7526C46.2156 18.8018 45.982 18.4944 45.4839 18.5251C45.0166 18.5313 44.4571 19.0785 44.4202 19.8717C44.3649 20.6771 44.5432 21.458 44.9306 21.7162C45.3241 22.0175 45.6807 21.87 45.7176 21.9437Z" fill="#EB996E"/>
<path d="M119.814 17.941C119.814 17.941 119.74 18.1439 119.475 18.4452C119.211 18.7403 118.719 19.1154 117.975 19.306C117.243 19.5028 116.26 19.5151 115.251 19.1154C114.231 18.7342 113.228 18.0087 112.177 17.1848C111.12 16.3854 109.939 15.4386 108.426 15.1127C107.676 14.9713 106.865 14.9897 106.072 15.2172C105.278 15.4324 104.491 15.789 103.704 16.1825C102.917 16.5761 102.118 17.0187 101.263 17.4061C100.409 17.7873 99.4803 18.1132 98.4843 18.1501C97.4882 18.1931 96.4675 17.8918 95.619 17.3139C94.7644 16.7421 94.088 15.9489 93.467 15.1311C92.2373 13.4895 91.2413 11.7187 89.741 10.5505C89.0032 9.96636 88.124 9.60974 87.2263 9.49292C86.3286 9.3638 85.4309 9.45603 84.5639 9.60974C82.8362 9.92947 81.2253 10.4767 79.639 10.6734C78.0526 10.864 76.5462 10.698 75.255 10.2922C72.6419 9.50522 70.9203 7.99882 69.9488 6.86749C68.9835 5.70541 68.6699 4.9184 68.6699 4.9184C68.6761 4.9184 68.7068 4.95529 68.7622 5.04137C68.8237 5.13974 68.9036 5.26886 69.0019 5.41643C69.211 5.74845 69.5492 6.22189 70.0411 6.78141C71.0248 7.87585 72.7464 9.32691 75.3165 10.0709C76.5831 10.4521 78.0588 10.5997 79.602 10.4029C81.1515 10.2 82.7501 9.64663 84.5086 9.30846C85.3878 9.14245 86.3163 9.05022 87.2632 9.17934C88.21 9.29617 89.1446 9.67738 89.9255 10.2861C91.5056 11.5096 92.5017 13.305 93.7191 14.9221C94.3278 15.7276 94.9857 16.49 95.7912 17.031C96.5905 17.5721 97.5374 17.855 98.4658 17.8181C99.4004 17.7873 100.298 17.4799 101.134 17.111C101.977 16.7359 102.77 16.2994 103.563 15.9059C104.356 15.5124 105.162 15.1496 105.992 14.9344C106.816 14.7069 107.682 14.6884 108.476 14.8422C110.074 15.2049 111.261 16.1887 112.312 17.0003C113.358 17.8304 114.335 18.5559 115.313 18.9432C116.284 19.3491 117.231 19.3491 117.944 19.183C118.67 19.017 119.15 18.6666 119.426 18.396C119.697 18.1193 119.795 17.9349 119.814 17.941Z" fill="#263238"/>
<defs>
<linearGradient id="paint0_linear_4323_17929" x1="7.21604" y1="41.0329" x2="47.0603" y2="114.641" gradientUnits="userSpaceOnUse">
<stop stop-color="#4F14A0"/>
<stop offset="1" stop-color="#8066FF"/>
</linearGradient>
<linearGradient id="paint1_linear_4323_17929" x1="31.8745" y1="66.1271" x2="35.6584" y2="71.8128" gradientUnits="userSpaceOnUse">
<stop stop-color="#4F14A0"/>
<stop offset="1" stop-color="#8066FF"/>
</linearGradient>
<linearGradient id="paint2_linear_4323_17929" x1="33.2057" y1="66.803" x2="35.0239" y2="69.362" gradientUnits="userSpaceOnUse">
<stop stop-color="#4F14A0"/>
<stop offset="1" stop-color="#8066FF"/>
</linearGradient>
<linearGradient id="paint3_linear_4323_17929" x1="57.7451" y1="68.1501" x2="59.5625" y2="70.7079" gradientUnits="userSpaceOnUse">
<stop stop-color="#4F14A0"/>
<stop offset="1" stop-color="#8066FF"/>
</linearGradient>
<linearGradient id="paint4_linear_4323_17929" x1="56.5272" y1="68.1931" x2="58.9454" y2="73.0402" gradientUnits="userSpaceOnUse">
<stop stop-color="#4F14A0"/>
<stop offset="1" stop-color="#8066FF"/>
</linearGradient>
<linearGradient id="paint5_linear_4323_17929" x1="33.8668" y1="78.403" x2="35.4729" y2="80.7675" gradientUnits="userSpaceOnUse">
<stop stop-color="#4F14A0"/>
<stop offset="1" stop-color="#8066FF"/>
</linearGradient>
<linearGradient id="paint6_linear_4323_17929" x1="32.8393" y1="84.9356" x2="33.9718" y2="85.1436" gradientUnits="userSpaceOnUse">
<stop stop-color="#4F14A0"/>
<stop offset="1" stop-color="#8066FF"/>
</linearGradient>
<linearGradient id="paint7_linear_4323_17929" x1="32.1443" y1="93.4144" x2="34.4773" y2="95.6419" gradientUnits="userSpaceOnUse">
<stop stop-color="#4F14A0"/>
<stop offset="1" stop-color="#8066FF"/>
</linearGradient>
<linearGradient id="paint8_linear_4323_17929" x1="37.1405" y1="97.9066" x2="37.8287" y2="99.8229" gradientUnits="userSpaceOnUse">
<stop stop-color="#4F14A0"/>
<stop offset="1" stop-color="#8066FF"/>
</linearGradient>
<linearGradient id="paint9_linear_4323_17929" x1="42.9014" y1="100.728" x2="43.2277" y2="102.342" gradientUnits="userSpaceOnUse">
<stop stop-color="#4F14A0"/>
<stop offset="1" stop-color="#8066FF"/>
</linearGradient>
<linearGradient id="paint10_linear_4323_17929" x1="48.9998" y1="99.0029" x2="49.4101" y2="100.356" gradientUnits="userSpaceOnUse">
<stop stop-color="#4F14A0"/>
<stop offset="1" stop-color="#8066FF"/>
</linearGradient>
<linearGradient id="paint11_linear_4323_17929" x1="53.602" y1="95.1422" x2="55.8282" y2="97.5291" gradientUnits="userSpaceOnUse">
<stop stop-color="#4F14A0"/>
<stop offset="1" stop-color="#8066FF"/>
</linearGradient>
<linearGradient id="paint12_linear_4323_17929" x1="56.0368" y1="87.1797" x2="57.1006" y2="87.3748" gradientUnits="userSpaceOnUse">
<stop stop-color="#4F14A0"/>
<stop offset="1" stop-color="#8066FF"/>
</linearGradient>
<linearGradient id="paint13_linear_4323_17929" x1="55.1256" y1="80.7737" x2="56.8711" y2="83.12" gradientUnits="userSpaceOnUse">
<stop stop-color="#4F14A0"/>
<stop offset="1" stop-color="#8066FF"/>
</linearGradient>
<linearGradient id="paint14_linear_4323_17929" x1="47.6875" y1="79.9566" x2="47.7616" y2="80.7228" gradientUnits="userSpaceOnUse">
<stop stop-color="#4F14A0"/>
<stop offset="1" stop-color="#8066FF"/>
</linearGradient>
<linearGradient id="paint15_linear_4323_17929" x1="40.1431" y1="79.1389" x2="40.2174" y2="79.905" gradientUnits="userSpaceOnUse">
<stop stop-color="#4F14A0"/>
<stop offset="1" stop-color="#8066FF"/>
</linearGradient>
</defs>
</svg>
