<svg width="259" height="230" viewBox="0 0 259 230" fill="none" xmlns="http://www.w3.org/2000/svg">
<path d="M22.5651 169.776C17.7129 176.195 12.4173 182.181 5.85334 186.925C5.34406 187.293 4.81593 187.638 4.25949 187.931C2.06206 189.092 0.647405 188.445 0.128698 185.986C-0.272121 184.069 0.345612 182.238 0.854888 180.434C2.62321 174.232 5.83448 168.756 9.57389 163.563C10.2859 163.762 10.9933 163.96 11.7053 164.154C11.6864 165.088 11.0593 165.73 10.583 166.438C7.95175 170.352 5.72131 174.487 3.98599 178.877C3.472 180.18 3.06647 181.548 2.82598 182.927C2.67508 183.781 2.29784 184.985 3.30224 185.485C4.18876 185.929 4.82064 184.905 5.4761 184.409C11.2196 180.08 15.6758 174.482 20.4667 169.214C21.1694 169.398 21.8673 169.587 22.5651 169.776Z" fill="white"/>
<path d="M11.7054 164.158C10.9933 163.96 10.286 163.762 9.57397 163.568C11.6441 160.41 13.9783 157.488 17.0858 155.284C18.6891 154.146 20.4008 153.179 22.4426 153.122C23.9752 153.08 25.0079 153.759 25.2342 155.35C25.3144 155.912 25.0833 156.455 24.5788 156.771C24.0365 157.111 23.4659 157.002 23.1452 156.474C22.3483 155.171 21.4524 155.803 20.5376 156.252C17.7318 157.635 15.6711 159.877 13.6765 162.199C13.0729 162.898 12.6438 163.786 11.7054 164.158Z" fill="white"/>
<path d="M101.314 73.9268C101.668 71.8922 99.8478 70.2542 100.291 67.9601C101.965 69.532 102.578 71.9725 104.875 72.6758C105.12 73.214 105.544 73.7143 106.068 73.2045C106.468 72.8174 105.921 72.4304 105.558 72.166C103.634 69.5273 101.767 66.8555 101.187 62.9611C101.965 63.8486 102.418 64.3678 102.87 64.8871C103.064 64.972 103.366 65.175 103.427 65.1184C103.705 64.8587 103.559 64.5802 103.323 64.3489C100.88 59.2083 101.791 53.6099 101.097 47.8037C100.904 48.8044 100.786 49.4181 100.546 50.6737C99.0838 47.3552 98.037 44.6315 97.9993 41.5774C97.938 36.4982 96.2828 31.773 94.6418 27.0572C93.2413 23.0448 92.0671 18.9428 91.6899 14.7321C91.4494 12.0698 90.1432 10.9982 87.875 10.4601C87.1913 10.2949 86.4934 10.1438 85.8427 9.87474C85.2202 9.61511 84.3337 9.40741 84.4704 8.5058C84.6072 7.60419 85.4088 7.9063 86.003 7.98183C86.4981 8.0432 87.0121 8.13289 87.0168 7.43426C87.0168 6.71675 86.5217 6.2919 85.8945 6.07004C84.2818 5.49887 82.7163 4.86632 81.146 3.11975C83.1831 3.31801 83.881 2.68547 84.0036 1.01914C84.079 0.0136832 85.0269 -0.51973 85.9558 0.721753C88.257 3.81366 90.7845 6.68842 93.7459 9.19499C95.2218 10.4459 95.4765 12.4993 96.1649 14.2459C96.528 15.1664 96.6506 16.3135 98.0134 16.3701L97.9757 16.3323C97.2212 17.1537 97.0986 17.8287 97.7258 18.9758C99.5271 22.2896 100.777 25.8299 101.559 29.5591C103.068 36.7625 105.223 43.7535 108.892 50.2017C109.411 51.1127 110.08 51.4054 111.019 51.2307C113.579 50.7493 115.819 46.1232 114.372 43.9565C113.216 42.2288 113.542 41.1242 115.074 40.0196C116.036 39.3257 116.913 38.5421 116.904 37.1874C116.899 36.5076 117.342 36.1489 117.97 36.2149C120.016 36.4226 121.369 35.4313 122.888 34.1285C124.887 32.415 129.815 33.7037 131.475 35.9648C135.554 41.5255 135.214 45.5048 130.249 50.5227C129.881 50.8909 129.645 51.3912 129.136 52.1512C131.046 52.1512 132.729 52.4581 134.252 52.0946C139.062 50.9522 144.178 51.0136 148.644 48.4221C150.129 47.5582 151.851 47.1003 153.6 47.0673C156.609 47.0059 159.414 46.3026 162.211 45.1272C167.841 42.7575 173.245 44.4191 178.545 46.5669C178.837 46.6849 179.12 46.8171 179.403 46.9587C180.196 47.3458 181.756 47.2089 181.62 48.1766C181.436 49.4747 179.96 47.9878 179.196 48.7383C179.191 48.795 179.125 48.9649 179.177 49.0829C179.493 49.8004 181.124 49.876 180.431 50.9334C179.969 51.632 179.021 50.7587 178.323 50.5274C177.362 50.2111 176.433 49.7721 175.513 49.3426C175.079 49.1396 174.645 48.8422 174.23 49.2387C173.806 49.6447 174.122 50.1026 174.306 50.5274C174.49 50.9617 174.688 51.3912 174.815 51.8397C174.947 52.3023 174.994 52.8499 174.532 53.1189C173.863 53.5107 173.533 52.9065 173.24 52.4675C172.938 52.0143 172.754 51.4809 172.476 51.0089C171.014 48.5354 167.996 47.5205 165.441 48.7478C158.41 52.1371 151.054 54.62 143.49 56.4091C141.382 56.9047 139.524 57.7025 137.662 58.6466C134.512 60.2516 131.027 60.464 127.646 61.0871C126.09 61.3703 124.911 61.9462 124.095 63.3907C123.444 64.5472 122.487 65.5574 121.327 66.2418C120.191 66.9121 120.058 68.2197 120.044 69.0694C120.03 69.9804 120.643 71.3683 122.313 71.1558C123.199 71.0425 123.675 71.8969 124.123 72.5012C124.967 73.6341 125.755 74.8142 126.443 76.0462C128.136 79.0768 130.546 80.4221 133.993 79.4119C135.507 78.9682 136.44 79.2656 137.133 80.8658C137.893 82.6218 140.859 82.6974 142.179 81.0924C146.635 75.6969 152.011 71.6468 158.759 69.565C159.117 69.4518 159.461 69.1732 160.06 69.5745C153.506 72.5578 149.46 77.9108 146.225 83.9294C144.49 87.1629 143.193 90.6372 141.703 94.0029C141.321 94.8573 140.939 95.7164 140.557 96.5708C137.525 94.9848 134.53 93.4128 131.654 91.468C123.015 85.6241 114.065 80.238 105.233 74.6868C104.309 74.1061 103.356 73.4736 102.168 74.0023C101.885 73.9645 101.597 73.9268 101.31 73.889L101.314 73.9268Z" fill="white"/>
<path d="M102.14 73.9974C103.328 73.4687 104.28 74.1012 105.209 74.6818C114.046 80.2331 122.992 85.6192 131.63 91.4631C134.507 93.4079 137.501 94.9798 140.533 96.5659C136.563 108.811 133.545 121.367 128.542 133.272C127.566 135.595 126.335 137.785 124.816 139.815C122.36 143.1 119.389 144.672 115.008 144.658C108.147 144.634 101.541 143.827 95.1794 141.311C87.5969 138.318 81.495 133.414 76.671 126.843C75.5629 125.332 75.6525 124.62 77.4915 124.03C79.8115 123.284 82.0986 122.34 83.9706 120.744C85.2533 119.654 85.8993 119.994 86.6679 121.278C89.0162 125.186 91.3787 129.085 94.4391 132.508C98.5652 137.119 103.04 141.259 108.982 143.44C115.659 145.895 119.818 144.228 122.779 137.757C125.58 131.63 126.665 124.997 128.08 118.478C129.631 111.336 131.22 104.213 133.663 97.3118C134.309 95.4897 134.012 94.8854 131.946 95.3433C129.56 95.8767 127.085 95.8484 124.694 95.3339C123.468 95.0695 122.694 95.2725 121.803 96.1694C120.28 97.7083 118.785 99.4218 116.215 99.1811C115.687 99.1339 115.098 99.6909 114.551 99.9977C106.945 104.251 99.5036 108.858 91.1241 111.497C89.5585 111.992 89.3086 113.324 88.4457 114.277C84.0178 119.191 79.2174 123.44 71.6961 122.382C72.2148 123.27 73.1297 122.637 73.521 123.77C70.3333 125.063 67.1457 126.465 63.8778 127.636C61.9303 128.335 60.6571 129.142 60.6005 131.54C60.5486 133.782 59.5254 134.259 57.3044 133.659C54.7721 132.98 52.7445 134.325 50.6932 135.396C49.2408 136.156 47.9441 137.223 46.3549 137.743C45.5108 138.016 44.5253 138.328 44.0066 137.412C43.4737 136.468 43.1484 135.184 44.0915 134.353C48.2128 130.714 51.41 125.748 57.4741 124.827C59.6244 124.502 60.5722 122.42 62.3783 121.443C68.1453 118.318 73.1627 113.871 79.4626 111.634C79.8964 111.478 80.1652 110.826 80.4764 110.378C82.7305 107.097 85.4277 104.336 89.0304 102.471C91.308 101.291 93.6657 100.205 95.6793 98.591C95.3209 97.4203 94.3353 98.5957 93.8449 97.9207C93.9534 97.7366 94.0288 97.5053 94.1844 97.3637C95.915 95.7634 97.7164 94.234 99.381 92.5724C100.522 91.4395 102.408 90.3443 100.286 88.3995C99.9562 88.0974 100.003 87.479 100.258 87.0495C102.342 83.5186 100.503 80.134 99.8667 76.7164C99.612 75.3569 99.2772 74.021 99.2866 72.4019C100.126 73.025 100.73 73.4687 101.328 73.9124L101.295 73.8746C101.272 74.4269 101.607 74.7621 102.003 75.0689C102.168 75.0878 102.338 75.1067 102.503 75.1256C102.432 75.0217 102.361 74.9179 102.29 74.814C102.234 74.5449 102.187 74.2712 102.14 73.9974Z" fill="white"/>
<path d="M63.1187 192.637C64.3447 190.584 66.1696 189.045 67.8483 187.421C69.5176 185.797 70.3381 183.97 70.6965 181.728C71.0454 179.566 71.6962 177.451 72.7572 175.502C73.1627 174.761 73.7852 174.175 74.667 174.61C75.6714 175.105 75.5959 176.12 75.1149 176.847C72.3658 180.973 72.6016 185.835 71.6679 190.404C71.5311 191.065 71.3425 192.042 72.097 192.316C73.0495 192.661 73.0637 191.528 73.3608 190.994C74.3557 189.215 75.1809 187.336 76.5296 185.769C78.3545 183.645 80.3114 184.022 81.2168 186.718C81.5893 187.832 81.7638 189.007 82.1175 190.13C82.7635 192.184 83.2822 192.311 84.777 190.815C85.3335 190.263 85.8192 189.64 86.3567 189.068C88.6862 186.604 90.3979 186.689 92.5435 189.361C95.0333 192.467 96.5423 193.114 99.2631 192.085C100.206 191.726 101.093 191.183 101.946 190.631C104.464 189.007 106.619 186.93 108.859 184.962C110.184 183.796 109.887 182.082 110.378 180.638C110.788 179.42 110.557 177.159 112.429 177.546C114.221 177.919 113.084 179.83 112.886 181.001C112.297 184.475 111.509 187.917 111.599 191.466C111.613 191.995 111.401 192.675 112.019 192.939C112.698 193.232 112.943 192.514 113.264 192.127C114.508 190.612 115.659 189.021 116.946 187.548C119.026 185.169 120.398 185.113 122.713 187.171C123.067 187.482 123.411 187.808 123.751 188.129C127.948 192.071 130.192 192.231 134.898 188.804C138.138 186.449 141.175 183.914 143.419 180.477C145.06 177.966 147.409 176.049 149.941 174.44C150.851 173.859 151.907 173.434 152.954 173.17C153.935 172.924 155.213 172.858 155.411 174.222C155.599 175.535 154.345 175.214 153.562 175.393C150.573 176.087 148.47 178.235 146.531 180.312C144.579 182.398 142.773 184.744 141.651 187.473C141.453 187.723 141.321 188.016 141.585 188.256C141.656 188.323 141.957 188.134 142.151 188.058C145.136 186.42 147.725 184.249 150.148 181.893C153.36 178.773 156.486 175.563 159.678 172.419C160.438 171.673 161.244 170.559 162.465 171.475C163.55 172.292 162.828 173.368 162.432 174.265C159.985 179.793 157.028 185.098 155.189 190.89C154.524 192.986 153.864 195.087 153.558 197.273C153.468 197.905 153.341 198.641 153.859 199.057C154.534 199.6 155.222 199.019 155.788 198.67C157.415 197.669 158.594 196.177 159.839 194.761C164.186 189.8 167.827 184.324 171.477 178.849C171.991 178.079 172.722 177.432 173.419 176.805C174.061 176.233 174.825 176.021 175.504 176.762C176.178 177.503 175.607 178.056 175.117 178.575C173.556 180.222 172.038 181.893 170.873 183.866C169.949 185.429 169.887 186.713 171.524 187.931C174.622 190.239 175.758 193.666 176.569 197.254C176.711 197.872 176.517 198.84 177.465 198.967C178.173 199.062 178.484 198.335 178.885 197.867C182.256 193.926 185.623 189.984 188.999 186.052C189.462 185.514 189.933 184.995 190.117 184.282C191.801 177.692 193.724 171.159 194.587 164.38C194.837 162.431 193.564 162.402 192.225 162.445C187.278 162.596 182.369 163.172 177.47 163.828C174.051 164.286 170.666 165.022 167.195 165.008C165.978 165.003 164.781 164.833 164.116 163.668C163.385 162.384 163.955 161.218 164.719 160.165C166.704 157.427 169.444 155.586 172.325 153.962C177.649 150.969 183.364 149.086 189.381 148.114C194.531 147.283 197.304 149.591 197.535 154.854C197.756 159.91 197.747 159.688 202.783 159.499C209.686 159.235 216.604 159.339 223.517 159.306C224.399 159.301 225.427 159.405 225.356 160.594C225.285 161.775 224.224 161.732 223.361 161.718C215.581 161.595 207.814 161.93 200.039 162.096C197.917 162.138 197.096 162.686 196.757 164.857C195.172 175.086 192.324 185.028 189.693 195.021C188.537 199.406 187.971 203.952 187.142 208.422C187.085 208.729 187.137 209.074 187.019 209.352C186.689 210.155 186.802 211.609 185.529 211.34C184.341 211.085 184.723 209.758 184.878 208.899C185.831 203.655 186.849 198.42 187.863 193.185C187.953 192.722 188.122 192.278 187.59 191.608C185.227 193.676 183.402 196.206 181.374 198.528C178.861 201.403 177.008 204.396 177.003 208.583C176.998 212.076 175.612 215.494 173.518 218.463C172.967 219.246 172.358 219.969 171.486 220.384C169.567 221.295 168.237 220.441 168.213 218.312C168.195 216.702 168.614 215.187 169.312 213.766C170.486 211.368 171.637 208.951 172.967 206.638C175.749 201.799 174.263 193.543 169.949 189.937C168.661 188.861 167.836 188.823 166.723 190.239C164.351 193.27 161.81 196.163 159.311 199.095C158.542 200.001 157.608 200.737 156.514 201.219C155.133 201.828 153.6 202.489 152.28 201.441C150.889 200.336 150.648 198.646 151.025 196.928C151.973 192.618 153.393 188.459 155.118 184.4C155.642 183.173 156.128 181.931 156.627 180.694C156.858 180.439 156.986 180.142 156.717 179.882C156.651 179.821 156.34 180.01 156.142 180.085C152.157 183.347 148.639 187.175 144.249 189.951C143.122 190.664 142.042 191.466 140.75 191.853C139.901 192.108 138.77 192.292 138.473 191.315C137.841 189.229 136.954 190.267 136.016 190.914C130.239 194.903 127.269 194.7 122.077 189.984C119.747 187.865 119.677 187.874 117.602 190.409C116.31 191.986 115.055 193.6 113.721 195.139C112.938 196.041 111.967 196.852 110.665 196.413C109.335 195.965 109.185 194.667 109.024 193.51C108.897 192.585 108.977 191.632 108.935 190.687C108.911 190.164 109.17 189.484 108.59 189.186C107.973 188.87 107.633 189.545 107.228 189.861C104.7 191.835 102.276 193.935 99.0368 194.79C95.6699 195.677 93.2697 194.436 91.275 191.83C89.5161 189.531 89.2238 189.573 87.2716 191.783C86.0031 193.213 84.9562 195.356 82.6645 194.86C80.269 194.341 80.1558 191.934 79.5947 189.994C79.3825 189.271 79.4438 188.157 78.6044 188.016C77.5717 187.841 77.369 189.045 76.954 189.729C75.893 191.466 74.9499 193.279 73.9219 195.04C73.3042 196.102 72.4931 197.018 71.1115 196.697C69.7911 196.39 69.7534 195.12 69.4422 194.086C69.0885 192.92 69.9609 190.938 68.8386 190.678C67.5465 190.381 66.8203 192.33 65.8206 193.274C65.5377 193.543 65.2736 193.836 65.0001 194.119C64.3494 193.619 63.7364 193.128 63.1187 192.637ZM195.186 156.039C195.106 151.635 193.946 150.195 190.659 150.615C183.973 151.475 177.715 153.603 172 157.224C170.416 158.225 168.85 159.292 167.591 160.717C167.242 161.109 166.747 161.548 167.124 162.148C167.412 162.61 167.954 162.492 168.412 162.44C169.968 162.27 171.528 162.133 173.07 161.893C179.182 160.953 185.317 160.226 191.48 159.797C195.243 159.537 195.252 159.679 195.186 156.039ZM170.802 217.519C172.891 215.38 173.292 213.218 173.58 211.014C172.075 212.732 171.208 214.71 170.802 217.519Z" fill="white"/>
<path d="M63.1185 192.637C63.7316 193.128 64.3493 193.619 64.9623 194.11C62.6234 196.862 60.3552 199.68 57.922 202.347C55.7246 204.75 54.5127 207.436 54.1025 210.707C53.4517 215.871 51.9569 220.847 49.5331 225.492C48.7645 226.969 47.8261 228.338 46.468 229.329C44.7091 230.613 43.2803 230.023 42.8937 227.89C42.7098 226.861 42.9314 225.869 43.2285 224.873C44.8883 219.35 47.1188 214.073 50.2357 209.215C51.7541 206.851 52.7774 204.424 52.9707 201.568C53.3386 196.159 53.829 190.758 53.7724 185.33C53.7677 184.886 53.8761 184.362 53.2018 184.008C52.0748 184.66 51.4382 185.859 50.5941 186.845C48.8447 188.88 47.0433 190.853 44.6667 192.175C41.6158 193.874 39.7013 193.213 38.7582 189.89C38.2017 187.926 37.5887 187.827 36.1458 189.054C32.9769 191.754 29.8223 194.478 26.5214 197.008C21.7729 200.653 19.1227 205.486 17.4063 211.132C15.9963 215.772 14.3506 220.398 11.4223 224.401C10.5829 225.548 9.73885 226.681 8.54583 227.488C7.56028 228.154 6.52758 228.338 5.46188 227.673C4.39617 227.007 4.01421 225.935 4.24527 224.817C4.51406 223.523 4.97618 222.249 5.53261 221.045C8.14501 215.371 11.6251 210.235 15.5437 205.392C17.0998 203.471 18.1513 201.375 18.9011 199C21.5465 190.612 24.074 182.186 27.1486 173.939C27.9455 173.949 28.7424 173.958 29.5346 173.968C27.0825 181.681 24.6258 189.394 22.1737 197.107C22.3529 197.211 22.5321 197.32 22.7113 197.424C27.3325 192.835 32.7506 189.224 37.584 184.915C39.1354 183.531 39.6258 183.914 40.1351 185.509C40.3992 186.331 40.5595 187.18 40.8 188.011C41.5733 190.711 42.1863 190.947 44.5111 189.267C47.2178 187.308 49.1983 184.655 51.1977 182.035C51.8154 181.223 52.3624 180.359 52.9943 179.557C53.4847 178.929 54.0695 178.381 54.989 178.617C55.9368 178.863 56.1632 179.656 56.1914 180.444C56.2575 182.483 56.2339 184.523 56.2339 186.562C56.2386 191.098 56.2339 195.63 56.2339 200.199C58.3889 197.83 60.7561 195.233 63.1185 192.637ZM50.844 213.124C48.7079 217.481 46.2323 221.715 45.6051 226.648C48.9956 222.806 49.9717 218.019 50.9336 213.223C50.9761 213.185 51.0232 213.148 51.0657 213.11C51.0327 213.077 51.0044 213.039 50.9714 213.006C50.9289 213.044 50.8865 213.082 50.844 213.124ZM14.6571 210.839C11.3421 214.545 8.91835 218.774 6.97084 223.297C6.72564 223.863 6.26823 224.614 6.88125 225.01C7.65459 225.506 8.14972 224.647 8.55054 224.137C11.6392 220.214 13.3604 215.635 14.6571 210.839Z" fill="white"/>
<path d="M77.7036 41.9411C76.6049 46.0243 75.3081 50.0697 74.4452 54.2049C71.4461 68.5834 72.6533 82.7967 76.5012 96.8543C77.4113 100.182 78.5289 103.458 79.6889 106.711C80.2076 108.169 79.9011 109.203 78.6609 109.921C76.2182 111.337 73.7284 112.663 71.2528 114.018C69.9655 114.726 69.7957 113.626 69.5175 112.861C68.0604 108.863 67.0701 104.728 66.542 100.517C63.9532 79.8748 67.7963 60.3603 77.0482 41.8325C77.2651 41.875 77.4867 41.908 77.7036 41.9411Z" fill="white"/>
<path d="M259.001 27.9351C257.167 34.4351 254.055 40.2555 249.731 45.4055C240.79 56.0643 228.883 61.474 215.666 64.4715C203.264 67.2849 190.64 67.6436 177.998 67.7711C174.509 67.8041 171.019 67.7569 167.492 67.7286C171.811 67.1197 176.131 66.5343 180.445 65.9065C195.054 63.7728 209.536 60.9972 223.409 55.8283C234.061 51.8631 244.044 46.6423 251.9 38.0793C254.724 35.011 256.879 31.4943 259.001 27.9351Z" fill="white"/>
<path d="M172.816 77.6889C174.306 77.7833 175.791 77.906 177.281 77.9674C179.012 78.0382 180.601 78.1231 181.478 75.9517C182.115 74.3845 184.043 74.3232 185.434 74.6206C188.311 75.2295 190.838 74.3373 193.427 73.431C194.234 73.1478 195.097 73.0439 195.922 72.8079C197.237 72.4303 198.232 72.6427 198.732 74.0871C199.185 75.4042 199.232 76.5748 197.841 77.3537C193.328 79.8886 188.896 82.7209 183.473 82.6973C178.111 82.6737 173.264 84.9065 168.138 85.9214C163.437 86.8513 158.971 88.5129 154.751 90.8259C154.222 91.1139 153.501 91.416 152.978 91.2838C151.176 90.8306 149.606 91.2791 148.04 92.1052C147.493 92.3931 146.748 92.5819 146.281 92.0438C145.89 91.5954 146.258 90.9911 146.475 90.4908C147.097 89.051 147.809 87.6396 148.352 86.1715C149.21 83.8491 150.577 82.4565 153.265 82.8767C153.892 82.9758 154.769 83.1835 154.656 81.8523C154.628 81.5219 155.708 81.0357 156.326 80.7147C161.517 78.0335 167.086 77.434 172.816 77.6889ZM157.509 82.8342C157.646 82.8011 157.886 82.787 157.896 82.7256C157.967 82.3952 157.679 82.4565 157.509 82.466C157.387 82.4707 157.269 82.5745 157.146 82.6359C157.269 82.702 157.387 82.7681 157.509 82.8342Z" fill="white"/>
<path d="M99.8996 14.9446C101.31 12.8251 103.625 11.8952 105.69 10.7009C115.687 4.91362 126.457 2.78941 137.841 4.74841C149.516 6.75932 160.051 11.6592 169.821 18.2773C176.461 22.7759 182.742 27.7276 188.655 33.142C188.929 33.3922 189.174 33.6801 189.763 34.2985C188.269 34.138 187.519 33.4488 186.708 32.9674C174.815 25.9527 163.073 18.6455 150.323 13.2311C141.75 9.5916 132.922 6.97174 123.449 7.27857C116.013 7.51932 109.076 9.34142 102.753 13.3491C101.833 13.9344 100.833 14.3923 99.8713 14.9116C99.8713 14.9163 99.8996 14.9446 99.8996 14.9446Z" fill="white"/>
<path d="M214.746 200.464C212.304 200.525 211.2 199.081 210.733 197.089C210.347 195.451 209.743 195.786 208.937 196.711C207.192 198.712 205.48 200.742 203.721 202.725C202.882 203.669 201.863 204.41 200.76 205.028C197.572 206.808 195.115 205.722 194.752 202.069C194.125 195.79 196.04 189.965 198.52 184.306C198.822 183.616 199.473 183.059 200.18 183.291C201.052 183.574 200.807 184.485 200.604 185.132C200.015 187.001 199.392 188.865 198.69 190.697C197.412 194.034 196.978 197.499 196.997 201.04C197.002 201.918 197.006 202.885 197.921 203.301C198.831 203.716 199.605 203.055 200.237 202.517C203.603 199.647 206.14 196.036 208.984 192.694C212.346 188.747 214.76 184.074 218.533 180.454C219.334 179.689 220.108 178.891 221.249 178.683C221.867 178.57 222.565 178.499 222.866 179.24C223.112 179.845 222.763 180.27 222.249 180.6C218.226 183.154 216.076 187.157 214.039 191.249C213.831 191.669 213.605 192.09 213.464 192.538C212.94 194.218 212.393 196.126 213.822 197.414C215.34 198.778 216.75 197.164 217.986 196.395C222.602 193.515 226.582 189.819 230.642 186.231C231.114 185.816 231.576 185.386 232.095 185.037C232.66 184.655 233.344 184.645 233.854 185.08C234.514 185.646 234.033 186.312 233.641 186.727C232.623 187.808 231.496 188.79 230.411 189.81C226.686 193.317 222.72 196.517 218.358 199.208C217.212 199.911 216.029 200.53 214.746 200.464Z" fill="white"/>
<path d="M22.565 169.776C21.8671 169.587 21.1644 169.398 20.4666 169.214C23.9938 164.9 27.5115 160.58 31.0529 156.275C31.7932 155.374 32.7599 154.656 33.9105 155.298C35.1035 155.959 34.7687 157.177 34.5141 158.263C33.2456 163.62 31.3123 168.766 29.5439 173.968C28.747 173.958 27.9501 173.949 27.1579 173.939C28.2566 169.511 30.223 165.324 30.8501 160.698C27.5681 163.304 25.4603 166.901 22.565 169.776Z" fill="white"/>
<path d="M98.4472 209.112C98.4472 210.495 98.4613 211.873 98.4424 213.256C98.433 213.799 98.466 214.432 97.6644 214.446C96.9193 214.46 96.759 213.898 96.7543 213.322C96.7354 210.967 96.7307 208.611 96.7684 206.256C96.7732 205.902 96.924 205.401 97.1834 205.231C97.6832 204.906 98.0228 205.43 98.3387 205.741C99.6213 207.011 100.88 208.309 102.163 209.574C102.484 209.89 102.8 210.372 103.337 210.174C103.879 209.975 103.804 209.414 103.832 208.96C103.898 207.941 103.889 206.921 103.978 205.906C104.021 205.415 104.294 204.976 104.889 205.061C105.355 205.127 105.487 205.538 105.487 205.944C105.502 208.536 105.586 211.132 105.469 213.719C105.403 215.13 104.568 214.413 104.077 213.945C102.385 212.326 100.739 210.66 99.0743 209.008C98.8621 209.045 98.6546 209.078 98.4472 209.112Z" fill="white"/>
<path d="M150.191 212.25C149.7 212.463 149.714 212.878 149.667 213.251C149.578 213.903 149.479 214.592 148.587 214.422C147.838 214.28 148.007 213.582 147.998 213.072C147.97 211.113 147.941 209.154 147.993 207.199C148.017 206.331 147.616 205.137 148.927 204.858C150.441 204.532 151.921 204.801 153.067 205.939C153.935 206.803 154.246 208.172 153.444 208.927C151.789 210.49 151.794 211.816 153.223 213.397C153.473 213.671 153.68 214.115 153.279 214.426C152.85 214.757 152.398 214.615 152.011 214.266C151.332 213.657 151.11 212.614 150.191 212.25Z" fill="white"/>
<path d="M68.1736 213.19C68.3434 213.176 68.664 213.101 68.9658 213.143C69.5694 213.233 70.4984 212.284 70.7342 213.422C70.9652 214.55 69.9089 214.786 69.0554 214.951C66.7165 215.409 64.2786 214.389 63.128 212.459C61.9633 210.5 62.0859 208.545 63.3732 206.7C64.6464 204.873 67.2494 204.066 69.5128 204.731C70.1117 204.906 70.8992 205.104 70.819 205.855C70.7011 206.954 69.7863 206.487 69.1403 206.459C68.7489 206.44 68.3622 206.331 67.9709 206.331C65.9055 206.327 64.1749 207.837 64.1088 209.678C64.0428 211.632 65.7593 213.171 68.1736 213.19Z" fill="white"/>
<path d="M81.0139 209.806C81.0139 209.258 81.0139 208.706 81.0139 208.158C81.0233 204.882 82.3201 203.914 85.5125 204.774C85.9935 204.901 86.4509 205.047 86.4792 205.619C86.5216 206.402 85.9086 206.44 85.3569 206.497C84.9655 206.534 84.5741 206.525 84.1827 206.558C83.6216 206.605 83.051 206.676 83.018 207.427C82.9803 208.168 83.4943 208.338 84.0837 208.394C84.4751 208.432 84.8665 208.432 85.2579 208.474C85.8002 208.531 86.4509 208.536 86.4839 209.277C86.5264 210.174 85.786 210.169 85.1636 210.24C85.008 210.259 84.8523 210.268 84.692 210.268C83.6452 210.268 82.8247 210.485 82.8765 211.821C82.9237 213.077 83.7866 213.063 84.6779 213.138C85.3286 213.195 86.3802 212.898 86.4273 213.827C86.4886 214.918 85.3852 214.762 84.6449 214.819C81.1177 215.083 81.0139 214.932 81.0139 209.806Z" fill="white"/>
<path d="M131.909 209.697C131.909 209.149 131.904 208.597 131.909 208.049C131.923 204.887 133.196 203.952 136.303 204.788C136.874 204.943 137.412 205.146 137.331 205.831C137.261 206.416 136.704 206.449 136.233 206.487C135.841 206.52 135.45 206.515 135.059 206.548C134.493 206.596 133.927 206.68 133.889 207.422C133.851 208.153 134.365 208.333 134.955 208.394C135.191 208.422 135.426 208.418 135.657 208.446C136.332 208.526 137.284 208.38 137.218 209.395C137.157 210.358 136.209 210.226 135.54 210.235C133.965 210.263 133.333 210.986 133.908 212.482C134.224 213.308 135.106 213.034 135.775 213.129C136.36 213.214 137.251 212.996 137.28 213.846C137.313 214.828 136.365 214.729 135.69 214.8C132.375 215.154 131.923 214.734 131.913 211.34C131.909 210.797 131.909 210.244 131.909 209.697Z" fill="white"/>
<path d="M118.667 204.679C119.502 204.735 120.233 204.665 120.888 204.858C121.789 205.122 121.992 206.114 121.167 206.317C119.191 206.808 119.719 208.233 119.653 209.456C119.587 210.702 119.629 211.953 119.601 213.199C119.587 213.841 119.526 214.521 118.62 214.455C117.861 214.398 117.87 213.77 117.856 213.232C117.823 211.906 117.856 210.579 117.804 209.253C117.757 208.087 118.182 206.77 116.319 206.34C115.39 206.128 115.635 205.179 116.489 204.896C117.201 204.665 118.021 204.735 118.667 204.679Z" fill="white"/>
<path d="M203.009 174.194C203.806 174.265 204.353 174.704 204.381 175.511C204.41 176.366 204.009 177.079 203.08 177.197C202.217 177.305 201.774 176.786 201.727 175.946C201.675 175.025 202.137 174.468 203.009 174.194Z" fill="white"/>
<path d="M77.7036 41.9409C77.4866 41.9079 77.265 41.8748 77.0481 41.8371C77.9205 39.8356 79.0239 37.9757 80.4621 36.3047C79.9717 38.3959 78.8966 40.1943 77.7036 41.9409Z" fill="white"/>
<path d="M81.3582 34.4305C81.4902 34.2559 81.6222 34.0765 81.7543 33.9019C81.8486 33.9821 82.0372 34.1001 82.023 34.1284C81.9287 34.3267 81.7967 34.5061 81.6788 34.6902C81.5798 34.6146 81.4855 34.5344 81.3582 34.4305Z" fill="white"/>
<path d="M98.9 15.3647C98.8528 15.9454 98.4379 16.1625 97.9663 16.3324L98.004 16.3702C98.0795 15.8226 98.4662 15.5724 98.9377 15.4072L98.9 15.3647Z" fill="white"/>
<path d="M82.7681 32.5C82.7869 32.5566 82.8105 32.6086 82.8294 32.6652C82.7539 32.6322 82.6785 32.5991 82.603 32.5708C82.6596 32.5472 82.7115 32.5236 82.7681 32.5Z" fill="white"/>
<path d="M98.933 15.4022C99.1499 15.0293 99.48 14.8924 99.895 14.9443L99.8667 14.916C99.6497 15.2937 99.3244 15.44 98.8953 15.3645C98.9 15.3645 98.933 15.4022 98.933 15.4022Z" fill="white"/>
<path d="M105.554 72.166C105.917 72.4304 106.464 72.8127 106.063 73.2045C105.539 73.7096 105.12 73.214 104.87 72.6758C105.101 72.5012 105.327 72.3312 105.554 72.166Z" fill="white"/>
<path d="M101.993 75.0786C101.597 74.7764 101.263 74.4366 101.286 73.8843C101.574 73.922 101.857 73.9598 102.144 73.9976C102.191 74.2714 102.239 74.5451 102.286 74.8189C102.182 74.9039 102.088 74.9889 101.993 75.0786Z" fill="white"/>
<path d="M103.318 64.3442C103.554 64.5755 103.7 64.8541 103.422 65.1137C103.361 65.1703 103.059 64.9673 102.866 64.8824C103.017 64.7077 103.168 64.5283 103.318 64.3442Z" fill="white"/>
<path d="M102.281 74.8188C102.352 74.9227 102.423 75.0266 102.493 75.1304C102.328 75.1115 102.163 75.0926 101.993 75.0738C102.088 74.9888 102.182 74.9038 102.281 74.8188Z" fill="white"/>
<path d="M173.575 211.014C173.292 213.223 172.891 215.385 170.798 217.518L173.575 211.014Z" fill="white"/>
<path d="M156.113 180.085C156.311 180.01 156.627 179.821 156.689 179.882C156.957 180.147 156.83 180.444 156.599 180.694C156.439 180.491 156.278 180.288 156.113 180.085Z" fill="white"/>
<path d="M142.137 188.063C141.943 188.134 141.641 188.323 141.571 188.261C141.307 188.016 141.439 187.728 141.637 187.478C141.806 187.671 141.972 187.865 142.137 188.063Z" fill="white"/>
<path d="M50.844 213.124L50.9433 213.228L50.844 213.124Z" fill="white"/>
<path d="M50.844 213.124C50.8864 213.081 50.9289 213.043 50.9713 213.001C51.0043 213.034 51.0326 213.072 51.0656 213.105C51.0232 213.143 50.976 213.18 50.9383 213.223C50.943 213.228 50.844 213.124 50.844 213.124Z" fill="white"/>
<path d="M157.505 82.8343C157.382 82.7682 157.269 82.7021 157.151 82.636C157.273 82.5746 157.391 82.4708 157.514 82.4661C157.684 82.4614 157.967 82.4 157.901 82.7257C157.886 82.7871 157.646 82.8012 157.505 82.8343Z" fill="white"/>
</svg>
