<svg width="530" height="797" viewBox="0 0 530 797" fill="none" xmlns="http://www.w3.org/2000/svg">
<g clip-path="url(#clip0_4323_21503)">
<rect width="530" height="797" fill="url(#paint0_linear_4323_21503)"/>
<g opacity="0.23">
<path d="M340.799 76.7881C340.381 76.7881 340.049 77.1263 340.049 77.5378C340.049 77.955 340.387 78.2876 340.799 78.2876C341.216 78.2876 341.549 77.9493 341.549 77.5378C341.549 77.1263 341.216 76.7881 340.799 76.7881Z" fill="white"/>
<path d="M345.14 76.7881C344.723 76.7881 344.39 77.1263 344.39 77.5378C344.39 77.955 344.728 78.2876 345.14 78.2876C345.557 78.2876 345.89 77.9493 345.89 77.5378C345.895 77.1263 345.557 76.7881 345.14 76.7881Z" fill="white"/>
<path d="M349.487 76.7881C349.07 76.7881 348.737 77.1263 348.737 77.5378C348.737 77.955 349.075 78.2876 349.487 78.2876C349.904 78.2876 350.237 77.9493 350.237 77.5378C350.237 77.1263 349.899 76.7881 349.487 76.7881Z" fill="white"/>
<path d="M353.828 78.2876C354.242 78.2876 354.578 77.9519 354.578 77.5378C354.578 77.1238 354.242 76.7881 353.828 76.7881C353.414 76.7881 353.078 77.1238 353.078 77.5378C353.078 77.9519 353.414 78.2876 353.828 78.2876Z" fill="white"/>
<path d="M358.17 78.2934C358.587 78.2934 358.919 77.9552 358.919 77.5437C358.919 77.1265 358.581 76.7939 358.17 76.7939C357.752 76.7939 357.42 77.1322 357.42 77.5437C357.42 77.9552 357.758 78.2934 358.17 78.2934Z" fill="white"/>
<path d="M340.799 82.3857C340.381 82.3857 340.049 82.724 340.049 83.1355C340.049 83.5526 340.387 83.8852 340.799 83.8852C341.216 83.8852 341.548 83.547 341.548 83.1355C341.548 82.724 341.216 82.3857 340.799 82.3857Z" fill="white"/>
<path d="M345.14 82.3857C344.723 82.3857 344.39 82.724 344.39 83.1355C344.39 83.5526 344.728 83.8852 345.14 83.8852C345.557 83.8852 345.89 83.547 345.89 83.1355C345.895 82.724 345.557 82.3857 345.14 82.3857Z" fill="white"/>
<path d="M349.487 83.8906C349.901 83.8906 350.237 83.5549 350.237 83.1409C350.237 82.7268 349.901 82.3911 349.487 82.3911C349.073 82.3911 348.737 82.7268 348.737 83.1409C348.737 83.5549 349.073 83.8906 349.487 83.8906Z" fill="white"/>
<path d="M353.828 82.3857C353.411 82.3857 353.078 82.724 353.078 83.1355C353.078 83.5526 353.417 83.8852 353.828 83.8852C354.246 83.8852 354.578 83.547 354.578 83.1355C354.578 82.724 354.246 82.3857 353.828 82.3857Z" fill="white"/>
<path d="M358.17 82.3857C357.752 82.3857 357.42 82.724 357.42 83.1355C357.42 83.5526 357.758 83.8852 358.17 83.8852C358.587 83.8852 358.92 83.547 358.92 83.1355C358.925 82.724 358.587 82.3857 358.17 82.3857Z" fill="white"/>
<path d="M340.818 89.4943C341.232 89.4878 341.563 89.1468 341.556 88.7328C341.549 88.3188 341.208 87.9884 340.794 87.995C340.38 88.0015 340.05 88.3425 340.056 88.7565C340.063 89.1705 340.404 89.5008 340.818 89.4943Z" fill="white"/>
<path d="M345.14 89.4882C345.554 89.4882 345.89 89.1526 345.89 88.7385C345.89 88.3244 345.554 87.9888 345.14 87.9888C344.726 87.9888 344.39 88.3244 344.39 88.7385C344.39 89.1526 344.726 89.4882 345.14 89.4882Z" fill="white"/>
<path d="M349.487 87.9834C349.07 87.9834 348.737 88.3216 348.737 88.7331C348.737 89.1446 349.075 89.4829 349.487 89.4829C349.904 89.4829 350.237 89.1446 350.237 88.7331C350.237 88.3216 349.899 87.9834 349.487 87.9834Z" fill="white"/>
<path d="M353.828 87.9834C353.411 87.9834 353.078 88.3216 353.078 88.7331C353.078 89.1446 353.417 89.4829 353.828 89.4829C354.246 89.4829 354.578 89.1446 354.578 88.7331C354.578 88.3216 354.246 87.9834 353.828 87.9834Z" fill="white"/>
<path d="M358.17 87.9834C357.752 87.9834 357.42 88.3216 357.42 88.7331C357.42 89.1503 357.758 89.4829 358.17 89.4829C358.587 89.4829 358.92 89.1446 358.92 88.7331C358.925 88.3216 358.587 87.9834 358.17 87.9834Z" fill="white"/>
<path d="M340.799 93.5864C340.381 93.5864 340.049 93.9247 340.049 94.3362C340.049 94.7533 340.387 95.0859 340.799 95.0859C341.216 95.0859 341.548 94.7477 341.548 94.3362C341.548 93.919 341.216 93.5864 340.799 93.5864Z" fill="white"/>
<path d="M345.14 93.5864C344.723 93.5864 344.39 93.9247 344.39 94.3362C344.39 94.7533 344.728 95.0859 345.14 95.0859C345.557 95.0859 345.89 94.7477 345.89 94.3362C345.895 93.919 345.557 93.5864 345.14 93.5864Z" fill="white"/>
<path d="M349.487 93.5864C349.07 93.5864 348.737 93.9247 348.737 94.3362C348.737 94.7533 349.075 95.0859 349.487 95.0859C349.904 95.0859 350.237 94.7477 350.237 94.3362C350.237 93.919 349.899 93.5864 349.487 93.5864Z" fill="white"/>
<path d="M353.828 93.5864C353.411 93.5864 353.078 93.9247 353.078 94.3362C353.078 94.7533 353.417 95.0859 353.828 95.0859C354.246 95.0859 354.578 94.7477 354.578 94.3362C354.578 93.919 354.246 93.5864 353.828 93.5864Z" fill="white"/>
<path d="M358.17 93.5864C357.752 93.5864 357.42 93.9247 357.42 94.3362C357.42 94.7533 357.758 95.0859 358.17 95.0859C358.587 95.0859 358.92 94.7477 358.92 94.3362C358.925 93.919 358.587 93.5864 358.17 93.5864Z" fill="white"/>
<path d="M340.799 99.1841C340.381 99.1841 340.049 99.5223 340.049 99.9338C340.049 100.351 340.387 100.684 340.799 100.684C341.216 100.684 341.548 100.345 341.548 99.9338C341.548 99.5223 341.216 99.1841 340.799 99.1841Z" fill="white"/>
<path d="M345.14 99.1841C344.723 99.1841 344.39 99.5223 344.39 99.9338C344.39 100.351 344.728 100.684 345.14 100.684C345.557 100.684 345.89 100.345 345.89 99.9338C345.895 99.5223 345.557 99.1841 345.14 99.1841Z" fill="white"/>
<path d="M349.487 99.1841C349.07 99.1841 348.737 99.5223 348.737 99.9338C348.737 100.351 349.075 100.684 349.487 100.684C349.904 100.684 350.237 100.345 350.237 99.9338C350.237 99.5223 349.899 99.1841 349.487 99.1841Z" fill="white"/>
<path d="M353.828 99.1841C353.411 99.1841 353.078 99.5223 353.078 99.9338C353.078 100.351 353.417 100.684 353.828 100.684C354.246 100.684 354.578 100.345 354.578 99.9338C354.578 99.5223 354.246 99.1841 353.828 99.1841Z" fill="white"/>
<path d="M358.17 99.1841C357.752 99.1841 357.42 99.5223 357.42 99.9338C357.42 100.351 357.758 100.684 358.17 100.684C358.587 100.684 358.92 100.345 358.92 99.9338C358.925 99.5223 358.587 99.1841 358.17 99.1841Z" fill="white"/>
<path d="M340.799 104.782C340.381 104.782 340.049 105.12 340.049 105.531C340.049 105.949 340.387 106.281 340.799 106.281C341.216 106.281 341.548 105.943 341.548 105.531C341.548 105.12 341.216 104.782 340.799 104.782Z" fill="white"/>
<path d="M345.14 104.782C344.723 104.782 344.39 105.12 344.39 105.531C344.39 105.949 344.728 106.281 345.14 106.281C345.557 106.281 345.89 105.943 345.89 105.531C345.895 105.12 345.557 104.782 345.14 104.782Z" fill="white"/>
<path d="M349.487 104.782C349.07 104.782 348.737 105.12 348.737 105.531C348.737 105.949 349.075 106.281 349.487 106.281C349.904 106.281 350.237 105.943 350.237 105.531C350.237 105.12 349.899 104.782 349.487 104.782Z" fill="white"/>
<path d="M353.828 104.782C353.411 104.782 353.078 105.12 353.078 105.531C353.078 105.949 353.417 106.281 353.828 106.281C354.246 106.281 354.578 105.943 354.578 105.531C354.578 105.12 354.246 104.782 353.828 104.782Z" fill="white"/>
<path d="M358.17 104.782C357.752 104.782 357.42 105.12 357.42 105.531C357.42 105.949 357.758 106.281 358.17 106.281C358.587 106.281 358.92 105.943 358.92 105.531C358.925 105.12 358.587 104.782 358.17 104.782Z" fill="white"/>
<path d="M340.799 110.385C340.381 110.385 340.049 110.723 340.049 111.135C340.049 111.552 340.387 111.885 340.799 111.885C341.216 111.885 341.548 111.546 341.548 111.135C341.548 110.718 341.216 110.385 340.799 110.385Z" fill="white"/>
<path d="M345.14 110.385C344.723 110.385 344.39 110.723 344.39 111.135C344.39 111.552 344.728 111.885 345.14 111.885C345.557 111.885 345.89 111.546 345.89 111.135C345.895 110.718 345.557 110.385 345.14 110.385Z" fill="white"/>
<path d="M349.487 110.385C349.07 110.385 348.737 110.723 348.737 111.135C348.737 111.552 349.075 111.885 349.487 111.885C349.904 111.885 350.237 111.546 350.237 111.135C350.237 110.718 349.899 110.385 349.487 110.385Z" fill="white"/>
<path d="M353.828 110.385C353.411 110.385 353.078 110.723 353.078 111.135C353.078 111.552 353.417 111.885 353.828 111.885C354.246 111.885 354.578 111.546 354.578 111.135C354.578 110.718 354.246 110.385 353.828 110.385Z" fill="white"/>
<path d="M358.17 110.385C357.752 110.385 357.42 110.723 357.42 111.135C357.42 111.552 357.758 111.885 358.17 111.885C358.587 111.885 358.92 111.546 358.92 111.135C358.925 110.718 358.587 110.385 358.17 110.385Z" fill="white"/>
<path d="M121.345 214.096C120.928 214.096 120.596 214.434 120.596 214.846C120.596 215.263 120.934 215.595 121.345 215.595C121.763 215.595 122.095 215.257 122.095 214.846C122.095 214.434 121.763 214.096 121.345 214.096Z" fill="white"/>
<path d="M125.687 214.096C125.27 214.096 124.937 214.434 124.937 214.846C124.937 215.263 125.275 215.595 125.687 215.595C126.104 215.595 126.437 215.257 126.437 214.846C126.442 214.434 126.104 214.096 125.687 214.096Z" fill="white"/>
<path d="M130.034 214.096C129.617 214.096 129.284 214.434 129.284 214.846C129.284 215.263 129.622 215.595 130.034 215.595C130.451 215.595 130.784 215.257 130.784 214.846C130.784 214.434 130.445 214.096 130.034 214.096Z" fill="white"/>
<path d="M134.375 214.096C133.958 214.096 133.625 214.434 133.625 214.846C133.625 215.263 133.964 215.595 134.375 215.595C134.787 215.595 135.125 215.257 135.125 214.846C135.125 214.434 134.792 214.096 134.375 214.096Z" fill="white"/>
<path d="M138.717 215.601C139.134 215.601 139.466 215.263 139.466 214.851C139.466 214.434 139.128 214.102 138.717 214.102C138.299 214.102 137.967 214.44 137.967 214.851C137.967 215.263 138.305 215.601 138.717 215.601Z" fill="white"/>
<path d="M121.345 219.694C120.928 219.694 120.596 220.032 120.596 220.443C120.596 220.86 120.934 221.193 121.345 221.193C121.763 221.193 122.095 220.855 122.095 220.443C122.095 220.032 121.763 219.694 121.345 219.694Z" fill="white"/>
<path d="M125.687 219.694C125.27 219.694 124.937 220.032 124.937 220.443C124.937 220.86 125.275 221.193 125.687 221.193C126.104 221.193 126.437 220.855 126.437 220.443C126.442 220.032 126.104 219.694 125.687 219.694Z" fill="white"/>
<path d="M130.034 219.694C129.617 219.694 129.284 220.032 129.284 220.443C129.284 220.86 129.622 221.193 130.034 221.193C130.451 221.193 130.784 220.855 130.784 220.443C130.784 220.032 130.445 219.694 130.034 219.694Z" fill="white"/>
<path d="M134.375 219.694C133.958 219.694 133.625 220.032 133.625 220.443C133.625 220.86 133.964 221.193 134.375 221.193C134.787 221.193 135.125 220.855 135.125 220.443C135.125 220.032 134.792 219.694 134.375 219.694Z" fill="white"/>
<path d="M138.717 221.193C139.131 221.193 139.466 220.857 139.466 220.443C139.466 220.029 139.131 219.694 138.717 219.694C138.302 219.694 137.967 220.029 137.967 220.443C137.967 220.857 138.302 221.193 138.717 221.193Z" fill="white"/>
<path d="M121.345 225.291C120.928 225.291 120.596 225.629 120.596 226.041C120.596 226.458 120.934 226.791 121.345 226.791C121.763 226.791 122.095 226.452 122.095 226.041C122.095 225.629 121.763 225.291 121.345 225.291Z" fill="white"/>
<path d="M125.687 225.291C125.27 225.291 124.937 225.629 124.937 226.041C124.937 226.458 125.275 226.791 125.687 226.791C126.104 226.791 126.437 226.452 126.437 226.041C126.442 225.629 126.104 225.291 125.687 225.291Z" fill="white"/>
<path d="M130.034 226.796C130.448 226.796 130.784 226.461 130.784 226.047C130.784 225.633 130.448 225.297 130.034 225.297C129.62 225.297 129.284 225.633 129.284 226.047C129.284 226.461 129.62 226.796 130.034 226.796Z" fill="white"/>
<path d="M134.375 226.796C134.789 226.796 135.125 226.461 135.125 226.047C135.125 225.633 134.789 225.297 134.375 225.297C133.961 225.297 133.625 225.633 133.625 226.047C133.625 226.461 133.961 226.796 134.375 226.796Z" fill="white"/>
<path d="M138.717 225.291C138.299 225.291 137.967 225.629 137.967 226.041C137.967 226.452 138.305 226.791 138.717 226.791C139.134 226.791 139.466 226.452 139.466 226.041C139.466 225.629 139.134 225.291 138.717 225.291Z" fill="white"/>
<path d="M121.345 230.895C120.928 230.895 120.596 231.233 120.596 231.644C120.596 232.061 120.934 232.394 121.345 232.394C121.763 232.394 122.095 232.056 122.095 231.644C122.095 231.227 121.763 230.895 121.345 230.895Z" fill="white"/>
<path d="M125.687 232.394C126.101 232.394 126.437 232.058 126.437 231.644C126.437 231.23 126.101 230.895 125.687 230.895C125.273 230.895 124.937 231.23 124.937 231.644C124.937 232.058 125.273 232.394 125.687 232.394Z" fill="white"/>
<path d="M130.034 230.895C129.617 230.895 129.284 231.233 129.284 231.644C129.284 232.056 129.622 232.394 130.034 232.394C130.451 232.394 130.784 232.056 130.784 231.644C130.784 231.233 130.445 230.895 130.034 230.895Z" fill="white"/>
<path d="M134.375 230.895C133.958 230.895 133.625 231.233 133.625 231.644C133.625 232.056 133.964 232.394 134.375 232.394C134.787 232.394 135.125 232.056 135.125 231.644C135.125 231.233 134.792 230.895 134.375 230.895Z" fill="white"/>
<path d="M138.717 230.895C138.299 230.895 137.967 231.233 137.967 231.644C137.967 232.056 138.305 232.394 138.717 232.394C139.134 232.394 139.466 232.056 139.466 231.644C139.472 231.227 139.134 230.895 138.717 230.895Z" fill="white"/>
<path d="M121.345 237.991C121.76 237.991 122.095 237.656 122.095 237.242C122.095 236.828 121.76 236.492 121.345 236.492C120.931 236.492 120.596 236.828 120.596 237.242C120.596 237.656 120.931 237.991 121.345 237.991Z" fill="white"/>
<path d="M125.687 236.492C125.27 236.492 124.937 236.83 124.937 237.242C124.937 237.659 125.275 237.991 125.687 237.991C126.104 237.991 126.437 237.653 126.437 237.242C126.442 236.83 126.104 236.492 125.687 236.492Z" fill="white"/>
<path d="M130.034 236.492C129.617 236.492 129.284 236.83 129.284 237.242C129.284 237.659 129.622 237.991 130.034 237.991C130.451 237.991 130.784 237.653 130.784 237.242C130.784 236.83 130.445 236.492 130.034 236.492Z" fill="white"/>
<path d="M134.375 236.492C133.958 236.492 133.625 236.83 133.625 237.242C133.625 237.659 133.964 237.991 134.375 237.991C134.787 237.991 135.125 237.653 135.125 237.242C135.125 236.83 134.792 236.492 134.375 236.492Z" fill="white"/>
<path d="M138.717 236.492C138.299 236.492 137.967 236.83 137.967 237.242C137.967 237.659 138.305 237.991 138.717 237.991C139.134 237.991 139.466 237.653 139.466 237.242C139.472 236.83 139.134 236.492 138.717 236.492Z" fill="white"/>
<path d="M121.345 242.09C120.928 242.09 120.596 242.428 120.596 242.839C120.596 243.256 120.934 243.589 121.345 243.589C121.763 243.589 122.095 243.251 122.095 242.839C122.095 242.428 121.763 242.09 121.345 242.09Z" fill="white"/>
<path d="M125.687 242.09C125.27 242.09 124.937 242.428 124.937 242.839C124.937 243.256 125.275 243.589 125.687 243.589C126.104 243.589 126.437 243.251 126.437 242.839C126.442 242.428 126.104 242.09 125.687 242.09Z" fill="white"/>
<path d="M130.034 242.09C129.617 242.09 129.284 242.428 129.284 242.839C129.284 243.251 129.622 243.589 130.034 243.589C130.451 243.589 130.784 243.251 130.784 242.839C130.784 242.428 130.445 242.09 130.034 242.09Z" fill="white"/>
<path d="M134.375 242.09C133.958 242.09 133.625 242.428 133.625 242.839C133.625 243.251 133.964 243.589 134.375 243.589C134.787 243.589 135.125 243.251 135.125 242.839C135.125 242.428 134.792 242.09 134.375 242.09Z" fill="white"/>
<path d="M138.717 242.09C138.299 242.09 137.967 242.428 137.967 242.839C137.967 243.251 138.305 243.589 138.717 243.589C139.134 243.589 139.466 243.251 139.466 242.839C139.472 242.428 139.134 242.09 138.717 242.09Z" fill="white"/>
<path d="M121.345 249.192C121.76 249.192 122.095 248.857 122.095 248.443C122.095 248.029 121.76 247.693 121.345 247.693C120.931 247.693 120.596 248.029 120.596 248.443C120.596 248.857 120.931 249.192 121.345 249.192Z" fill="white"/>
<path d="M125.687 247.693C125.27 247.693 124.937 248.031 124.937 248.443C124.937 248.854 125.275 249.192 125.687 249.192C126.104 249.192 126.437 248.854 126.437 248.443C126.437 248.031 126.104 247.693 125.687 247.693Z" fill="white"/>
<path d="M130.034 247.693C129.617 247.693 129.284 248.031 129.284 248.443C129.284 248.854 129.622 249.192 130.034 249.192C130.451 249.192 130.784 248.854 130.784 248.443C130.784 248.025 130.445 247.693 130.034 247.693Z" fill="white"/>
<path d="M134.375 247.693C133.958 247.693 133.625 248.031 133.625 248.443C133.625 248.86 133.964 249.192 134.375 249.192C134.787 249.192 135.125 248.854 135.125 248.443C135.125 248.025 134.792 247.693 134.375 247.693Z" fill="white"/>
<path d="M138.717 247.693C138.299 247.693 137.967 248.031 137.967 248.443C137.967 248.86 138.305 249.192 138.717 249.192C139.134 249.192 139.466 248.854 139.466 248.443C139.472 248.025 139.134 247.693 138.717 247.693Z" fill="white"/>
<path d="M125.016 127.725H123.234C122.84 127.725 122.524 127.403 122.524 127.015V125.233C122.524 124.839 122.202 124.523 121.813 124.523C121.419 124.523 121.103 124.844 121.103 125.233V127.015C121.103 127.409 120.782 127.725 120.393 127.725H118.611C118.216 127.725 117.901 128.046 117.901 128.435C117.901 128.83 118.222 129.145 118.611 129.145H120.393C120.787 129.145 121.103 129.467 121.103 129.856V131.637C121.103 132.032 121.424 132.347 121.813 132.347C122.208 132.347 122.524 132.026 122.524 131.637V129.856C122.524 129.461 122.845 129.145 123.234 129.145H125.016C125.411 129.145 125.726 128.824 125.726 128.435C125.726 128.04 125.411 127.725 125.016 127.725Z" fill="white"/>
<path d="M142.291 137.223H141.209C140.972 137.223 140.775 137.032 140.775 136.789V135.707C140.775 135.47 140.583 135.273 140.34 135.273C140.104 135.273 139.906 135.465 139.906 135.707V136.789C139.906 137.026 139.715 137.223 139.472 137.223H138.39C138.153 137.223 137.955 137.415 137.955 137.657C137.955 137.894 138.147 138.091 138.39 138.091H139.472C139.709 138.091 139.906 138.283 139.906 138.526V139.608C139.906 139.845 140.098 140.042 140.34 140.042C140.577 140.042 140.775 139.85 140.775 139.608V138.526C140.775 138.289 140.966 138.091 141.209 138.091H142.291C142.528 138.091 142.725 137.9 142.725 137.657C142.725 137.415 142.528 137.223 142.291 137.223Z" fill="url(#paint1_linear_4323_21503)"/>
<path d="M349.803 194.372H348.72C348.483 194.372 348.286 194.18 348.286 193.938V192.855C348.286 192.619 348.094 192.421 347.852 192.421C347.615 192.421 347.418 192.613 347.418 192.855V193.938C347.418 194.175 347.226 194.372 346.984 194.372H345.901C345.664 194.372 345.467 194.563 345.467 194.806C345.467 195.043 345.659 195.24 345.901 195.24H346.984C347.22 195.24 347.418 195.432 347.418 195.674V196.756C347.418 196.993 347.61 197.19 347.852 197.19C348.089 197.19 348.286 196.999 348.286 196.756V195.674C348.286 195.437 348.478 195.24 348.72 195.24H349.803C350.04 195.24 350.237 195.048 350.237 194.806C350.237 194.563 350.045 194.372 349.803 194.372Z" fill="white"/>
<path d="M62.6469 37.7287H61.5644C61.3276 37.7287 61.1302 37.5371 61.1302 37.2947V36.2124C61.1302 35.9756 60.9385 35.7783 60.6961 35.7783C60.4593 35.7783 60.262 35.97 60.262 36.2124V37.2947C60.262 37.5315 60.0703 37.7287 59.8278 37.7287H58.7453C58.5085 37.7287 58.3112 37.9204 58.3112 38.1628C58.3112 38.3996 58.5029 38.5969 58.7453 38.5969H59.8278C60.0646 38.5969 60.262 38.7885 60.262 39.0309V40.1132C60.262 40.35 60.4536 40.5473 60.6961 40.5473C60.9329 40.5473 61.1302 40.3556 61.1302 40.1132V39.0309C61.1302 38.7942 61.3219 38.5969 61.5644 38.5969H62.6469C62.8837 38.5969 63.081 38.4052 63.081 38.1628C63.081 37.926 62.8837 37.7287 62.6469 37.7287Z" fill="white"/>
<path d="M317.598 105.859H316.515C316.278 105.859 316.081 105.667 316.081 105.425V104.342C316.081 104.106 315.889 103.908 315.647 103.908C315.41 103.908 315.213 104.1 315.213 104.342V105.425C315.213 105.661 315.021 105.859 314.779 105.859H313.696C313.459 105.859 313.262 106.05 313.262 106.293C313.262 106.529 313.454 106.727 313.696 106.727H314.779C315.015 106.727 315.213 106.918 315.213 107.161V108.232C315.213 108.469 315.404 108.666 315.647 108.666C315.884 108.666 316.081 108.474 316.081 108.232V107.15C316.081 106.913 316.273 106.715 316.515 106.715H317.598C317.835 106.715 318.032 106.524 318.032 106.281C318.032 106.05 317.84 105.859 317.598 105.859Z" fill="url(#paint2_linear_4323_21503)"/>
<path d="M86.2649 213.662H85.1824C84.9456 213.662 84.7483 213.47 84.7483 213.228V212.145C84.7483 211.909 84.5566 211.711 84.3141 211.711C84.0773 211.711 83.88 211.903 83.88 212.145V213.228C83.88 213.465 83.6883 213.662 83.4459 213.662H82.3633C82.1265 213.662 81.9292 213.853 81.9292 214.096C81.9292 214.333 82.1209 214.53 82.3633 214.53H83.4459C83.6827 214.53 83.88 214.722 83.88 214.964V216.046C83.88 216.283 84.0717 216.48 84.3141 216.48C84.5509 216.48 84.7483 216.289 84.7483 216.046V214.964C84.7483 214.727 84.94 214.53 85.1824 214.53H86.2649C86.5017 214.53 86.6991 214.338 86.6991 214.096C86.6934 213.853 86.5017 213.662 86.2649 213.662Z" fill="white"/>
<path d="M378.411 186.458H376.415C375.975 186.458 375.62 186.102 375.62 185.663V183.667C375.62 183.227 375.264 182.867 374.825 182.867C374.385 182.867 374.024 183.222 374.024 183.667V185.663C374.024 186.102 373.669 186.458 373.229 186.458H371.233C370.793 186.458 370.433 186.813 370.433 187.252C370.433 187.692 370.788 188.053 371.233 188.053H373.229C373.669 188.053 374.024 188.408 374.024 188.853V190.849C374.024 191.288 374.379 191.649 374.825 191.649C375.264 191.649 375.62 191.294 375.62 190.849V188.853C375.62 188.414 375.975 188.053 376.415 188.053H378.411C378.85 188.053 379.206 187.698 379.206 187.252C379.211 186.813 378.856 186.458 378.411 186.458Z" fill="url(#paint3_linear_4323_21503)"/>
<path d="M399.136 61.7429H397.14C396.701 61.7429 396.34 61.3878 396.34 60.9425V58.9469C396.34 58.5073 395.985 58.1465 395.545 58.1465C395.105 58.1465 394.744 58.5016 394.744 58.9469V60.9425C394.744 61.3822 394.389 61.7429 393.949 61.7429H391.953C391.514 61.7429 391.153 62.0981 391.153 62.5378C391.153 62.9775 391.508 63.3382 391.953 63.3382H393.949C394.389 63.3382 394.744 63.6934 394.744 64.1387V66.1342C394.744 66.5739 395.099 66.9347 395.545 66.9347C395.985 66.9347 396.34 66.5795 396.34 66.1342V64.1387C396.34 63.699 396.695 63.3382 397.14 63.3382H399.136C399.576 63.3382 399.937 62.9831 399.937 62.5378C399.937 62.0981 399.576 61.7429 399.136 61.7429Z" fill="url(#paint4_linear_4323_21503)"/>
<path d="M71.059 235.697H69.0631C68.6233 235.697 68.2681 235.342 68.2681 234.902V232.907C68.2681 232.467 67.9129 232.106 67.4731 232.106C67.0333 232.106 66.6781 232.462 66.6781 232.907V234.902C66.6781 235.342 66.3229 235.697 65.8832 235.697H63.8873C63.4475 235.697 63.0923 236.052 63.0923 236.498C63.0923 236.937 63.4475 237.298 63.8873 237.298H65.8832C66.3229 237.298 66.6781 237.653 66.6781 238.093V240.089C66.6781 240.528 67.0333 240.883 67.4731 240.883C67.9129 240.883 68.2681 240.528 68.2681 240.089V238.093C68.2681 237.653 68.6233 237.298 69.0631 237.298H71.059C71.4987 237.298 71.8539 236.943 71.8539 236.498C71.8596 236.052 71.4987 235.697 71.059 235.697Z" fill="url(#paint5_linear_4323_21503)"/>
<path d="M415.87 108.423C406.804 109.477 399.649 108.654 394.31 107.273C375.18 102.335 372.282 83.5017 369.728 66.8893C368.008 55.7166 366.39 45.1583 359.912 41.1504C356.078 38.7772 350.705 38.7377 343.494 41.0376C331.332 44.9159 322.204 44.1888 316.352 38.8843C311.785 34.7467 309.276 27.689 309.101 18.4837C308.966 11.6121 310.144 6.03705 310.195 5.80029L311.847 6.15543C311.802 6.37527 307.24 28.3429 317.49 37.6328C322.864 42.5033 331.439 43.1008 342.98 39.4254C350.699 36.9677 356.529 37.0579 360.808 39.7129C367.946 44.1324 369.626 55.0627 371.402 66.6356C373.877 82.7351 376.68 100.982 394.733 105.638C432.773 115.458 480.455 76.833 480.929 76.4441L482 77.7519C481.882 77.8534 469.72 87.7577 452.958 96.2979C438.203 103.812 425.872 107.262 415.87 108.423Z" fill="url(#paint6_linear_4323_21503)"/>
<path d="M70.8616 644.702C79.6176 647.273 85.8816 650.83 90.2568 654.184C105.936 666.208 101.24 684.669 97.0958 700.96C94.3106 711.919 91.6776 722.268 96.0697 728.486C98.6689 732.173 103.602 734.304 111.14 735.008C123.849 736.192 131.968 740.425 135.283 747.596C137.865 753.188 137.42 760.662 133.986 769.203C131.421 775.578 128.162 780.251 128.021 780.449L126.634 779.479C126.764 779.293 139.545 760.854 133.744 748.3C130.705 741.722 123.043 737.815 110.983 736.694C102.92 735.944 97.5864 733.576 94.6884 729.467C89.8509 722.607 92.5741 711.891 95.4608 700.549C99.4751 684.765 104.025 666.873 89.2307 655.531C58.0574 631.63 -0.928754 648.547 -1.5264 648.721L-2 647.092C-1.84777 647.047 13.2117 642.679 31.981 641.371C48.5008 640.221 61.1978 641.861 70.8616 644.702Z" fill="white"/>
<path d="M223.131 0.0844727C218.88 13.2132 225.606 28.2529 236.837 36.2745C248.068 44.296 262.789 46.1506 276.462 44.2679C280.149 43.7605 283.927 42.9995 287.558 43.8225C296.906 45.9421 301.168 57.1711 309.659 61.6244C317.846 65.9199 328.344 62.7631 335.194 56.5623C342.045 50.3615 346.065 41.7086 349.904 33.3037C352.165 28.3544 354.432 23.3994 356.693 18.4501" stroke="white" stroke-miterlimit="10"/>
<path d="M324.723 462C320.472 475.129 327.198 490.168 338.429 498.19C349.66 506.212 364.381 508.066 378.054 506.183C381.741 505.676 385.519 504.915 389.15 505.738C398.498 507.858 402.76 519.087 411.251 523.54C419.438 527.835 429.936 524.679 436.786 518.478C443.637 512.277 447.657 503.624 451.496 495.219C453.757 490.27 456.024 485.315 458.284 480.366" stroke="white" stroke-miterlimit="10"/>
<path d="M209.261 334.921C212.976 321.95 207.919 306.555 199.09 297.976C190.26 289.402 178.494 286.848 167.477 288.099C164.505 288.438 161.461 289.018 158.563 288.021C151.109 285.456 147.946 273.99 141.237 269.125C134.77 264.435 126.273 267.101 120.629 273.003C114.991 278.9 111.569 287.389 108.293 295.636C106.365 300.495 104.437 305.355 102.508 310.214" stroke="white" stroke-miterlimit="10"/>
<path d="M310.853 796.837C314.568 783.866 309.511 768.471 300.682 759.891C291.852 751.317 280.086 748.764 269.069 750.015C266.097 750.353 263.053 750.934 260.155 749.936C252.701 747.371 249.538 735.905 242.829 731.041C236.362 726.351 227.865 729.017 222.221 734.919C216.583 740.815 213.161 749.305 209.885 757.552C207.957 762.411 206.029 767.27 204.1 772.129" stroke="white" stroke-miterlimit="10"/>
<path d="M182.79 74.1331C182.79 75.5987 181.6 76.7882 180.134 76.7882C178.668 76.7882 177.479 75.5987 177.479 74.1331C177.479 72.6675 178.668 71.478 180.134 71.478C181.6 71.4724 182.79 72.6618 182.79 74.1331Z" stroke="white" stroke-width="3" stroke-miterlimit="10"/>
<path d="M284.382 536.049C284.382 537.514 283.192 538.704 281.726 538.704C280.26 538.704 279.071 537.514 279.071 536.049C279.071 534.583 280.26 533.394 281.726 533.394C283.192 533.388 284.382 534.577 284.382 536.049Z" stroke="white" stroke-width="3" stroke-miterlimit="10"/>
<path d="M278.3 269.818C278.3 271.284 277.11 272.473 275.644 272.473C274.178 272.473 272.989 271.284 272.989 269.818C272.989 268.353 274.178 267.163 275.644 267.163C277.11 267.163 278.3 268.353 278.3 269.818Z" stroke="white" stroke-width="3" stroke-miterlimit="10"/>
<path d="M379.892 731.734C379.892 733.2 378.702 734.389 377.236 734.389C375.77 734.389 374.581 733.2 374.581 731.734C374.581 730.268 375.77 729.079 377.236 729.079C378.702 729.079 379.892 730.268 379.892 731.734Z" stroke="white" stroke-width="3" stroke-miterlimit="10"/>
<path d="M423.786 142.319C423.786 143.582 422.76 144.608 421.497 144.608C420.234 144.608 419.208 143.582 419.208 142.319C419.208 141.056 420.234 140.03 421.497 140.03C422.76 140.036 423.786 141.056 423.786 142.319Z" stroke="white" stroke-width="3" stroke-miterlimit="10"/>
<path d="M525.378 604.234C525.378 605.497 524.352 606.523 523.089 606.523C521.826 606.523 520.8 605.497 520.8 604.234C520.8 602.972 521.826 601.946 523.089 601.946C524.352 601.951 525.378 602.972 525.378 604.234Z" stroke="white" stroke-width="3" stroke-miterlimit="10"/>
<path d="M53.7442 211.717C55.0084 211.717 56.0332 210.692 56.0332 209.428C56.0332 208.164 55.0084 207.14 53.7442 207.14C52.4799 207.14 51.4551 208.164 51.4551 209.428C51.4551 210.692 52.4799 211.717 53.7442 211.717Z" stroke="white" stroke-width="3" stroke-miterlimit="10"/>
<path d="M155.336 673.632C156.6 673.632 157.625 672.608 157.625 671.344C157.625 670.08 156.6 669.055 155.336 669.055C154.072 669.055 153.047 670.08 153.047 671.344C153.047 672.608 154.072 673.632 155.336 673.632Z" stroke="white" stroke-width="3" stroke-miterlimit="10"/>
<path d="M428.364 53.7154C428.364 54.9781 427.338 56.0041 426.075 56.0041C424.812 56.0041 423.786 54.9781 423.786 53.7154C423.786 52.4527 424.812 51.4268 426.075 51.4268C427.338 51.4268 428.364 52.4527 428.364 53.7154Z" stroke="white" stroke-width="3" stroke-miterlimit="10"/>
<path d="M529.956 515.631C529.956 516.894 528.93 517.92 527.667 517.92C526.404 517.92 525.378 516.894 525.378 515.631C525.378 514.368 526.404 513.342 527.667 513.342C528.93 513.342 529.956 514.368 529.956 515.631Z" stroke="white" stroke-width="3" stroke-miterlimit="10"/>
<path d="M45.9861 282.868C45.9861 284.131 44.96 285.157 43.697 285.157C42.4341 285.157 41.408 284.131 41.408 282.868C41.408 281.606 42.4341 280.58 43.697 280.58C44.96 280.58 45.9861 281.606 45.9861 282.868Z" stroke="white" stroke-width="3" stroke-miterlimit="10"/>
<path d="M147.578 744.784C147.578 746.046 146.552 747.072 145.289 747.072C144.026 747.072 143 746.046 143 744.784C143 743.521 144.026 742.495 145.289 742.495C146.552 742.495 147.578 743.521 147.578 744.784Z" stroke="white" stroke-width="3" stroke-miterlimit="10"/>
<path d="M355.21 150.228C360.581 150.228 364.935 145.874 364.935 140.504C364.935 135.133 360.581 130.78 355.21 130.78C349.838 130.78 345.484 135.133 345.484 140.504C345.484 145.874 349.838 150.228 355.21 150.228Z" fill="white"/>
<path d="M456.802 612.143C462.173 612.143 466.527 607.79 466.527 602.419C466.527 597.049 462.173 592.695 456.802 592.695C451.43 592.695 447.076 597.049 447.076 602.419C447.076 607.79 451.43 612.143 456.802 612.143Z" fill="white"/>
<path d="M120.596 196.976C125.967 196.976 130.321 192.623 130.321 187.252C130.321 181.882 125.967 177.528 120.596 177.528C115.224 177.528 110.87 181.882 110.87 187.252C110.87 192.623 115.224 196.976 120.596 196.976Z" fill="white"/>
<path d="M222.188 658.892C227.559 658.892 231.913 654.538 231.913 649.168C231.913 643.797 227.559 639.444 222.188 639.444C216.816 639.444 212.462 643.797 212.462 649.168C212.462 654.538 216.816 658.892 222.188 658.892Z" fill="white"/>
</g>
</g>
<defs>
<linearGradient id="paint0_linear_4323_21503" x1="38.3553" y1="-1.47301e-05" x2="636.724" y2="560.024" gradientUnits="userSpaceOnUse">
<stop stop-color="#4F14A0"/>
<stop offset="1" stop-color="#8066FF"/>
</linearGradient>
<linearGradient id="paint1_linear_4323_21503" x1="145.582" y1="112.274" x2="70.83" y2="474.713" gradientUnits="userSpaceOnUse">
<stop stop-color="#6F3F98"/>
<stop offset="1" stop-color="#311846"/>
</linearGradient>
<linearGradient id="paint2_linear_4323_21503" x1="307.527" y1="145.675" x2="232.775" y2="508.116" gradientUnits="userSpaceOnUse">
<stop stop-color="#6F3F98"/>
<stop offset="1" stop-color="#311846"/>
</linearGradient>
<linearGradient id="paint3_linear_4323_21503" x1="380.304" y1="160.685" x2="305.551" y2="523.126" gradientUnits="userSpaceOnUse">
<stop stop-color="#6F3F98"/>
<stop offset="1" stop-color="#311846"/>
</linearGradient>
<linearGradient id="paint4_linear_4323_21503" x1="385.285" y1="47.0705" x2="450.433" y2="145.345" gradientUnits="userSpaceOnUse">
<stop offset="0.00569661" stop-color="#DF2E9F"/>
<stop offset="1" stop-color="#311846"/>
</linearGradient>
<linearGradient id="paint5_linear_4323_21503" x1="58.9217" y1="229.111" x2="172.675" y2="327.396" gradientUnits="userSpaceOnUse">
<stop offset="0.00569661" stop-color="#DF2E9F"/>
<stop offset="1" stop-color="#311846"/>
</linearGradient>
<linearGradient id="paint6_linear_4323_21503" x1="414.976" y1="1.61949" x2="333.366" y2="175.273" gradientUnits="userSpaceOnUse">
<stop offset="0.00569661" stop-color="#DF2E9F"/>
<stop offset="1" stop-color="#311846"/>
</linearGradient>
<clipPath id="clip0_4323_21503">
<rect width="530" height="797" fill="white"/>
</clipPath>
</defs>
</svg>
