<svg width="27" height="27" viewBox="0 0 27 27" fill="none" xmlns="http://www.w3.org/2000/svg">
<circle cx="13.5" cy="13.5" r="13.5" fill="url(#paint0_linear_4323_19438)"/>
<path d="M14.6247 14.158L12.0298 17.0356C11.9584 17.1146 11.9191 17.2202 11.9192 17.3328C11.9194 17.4454 11.9588 17.5509 12.0305 17.6299L12.2584 17.8814C12.3299 17.9605 12.4255 18.004 12.5272 18.0039C12.6289 18.0038 12.7243 17.9601 12.7957 17.8808L15.8852 14.4549C15.9569 14.3754 15.9961 14.2694 15.9957 14.1567C15.9958 14.0435 15.9565 13.9377 15.8846 13.8583L12.7902 10.4427C12.7186 10.3635 12.6232 10.32 12.5214 10.3202C12.4197 10.3203 12.3243 10.364 12.2529 10.4433L12.0256 10.6953C11.8777 10.8593 11.878 11.1261 12.0262 11.2897L14.6247 14.158Z" fill="white"/>
<defs>
<linearGradient id="paint0_linear_4323_19438" x1="1.95395" y1="-4.99013e-07" x2="21.1382" y2="27" gradientUnits="userSpaceOnUse">
<stop stop-color="#4F14A0"/>
<stop offset="1" stop-color="#8066FF"/>
</linearGradient>
</defs>
</svg>
