<?xml version="1.0" encoding="utf-8"?>
<!-- Generator: Adobe Illustrator 27.5.0, SVG Export Plug-In . SVG Version: 6.00 Build 0)  -->
<svg version="1.1" id="Capa_2" xmlns="http://www.w3.org/2000/svg" xmlns:xlink="http://www.w3.org/1999/xlink" x="0px" y="0px"
	 viewBox="0 0 2122 2122" style="enable-background:new 0 0 2122 2122;" xml:space="preserve">
<g>
	<path style="fill:#E26D56;" d="M1685.733,1814.804c-14.48-16.192-42.211-27.694-68.675-29.559c0.24-1.411-0.375-2.922-2.175-3.356
		c-1.032-0.249-2.066-0.488-3.101-0.719c-0.296-1.564-0.718-3.102-1.281-4.602c-7.1-18.926-14.202-37.851-21.303-56.777
		c-16.973-45.238-33.946-90.476-50.921-135.715c-20.523-54.698-41.047-109.396-61.57-164.096
		c-16.432-43.795-32.864-87.589-49.297-131.384c21.591-11.003,35.15-22.615,33.42-29.92l0.029-0.01l-0.174-0.489l-0.015-0.044
		l-0.017-0.046c-16.358-46.148-36.792-91.455-57.951-128.548l52.57-2.508c7.947,7.065,17.391,13.206,27.992,18.032
		c8.396,4.509,99.314,51.045,133.82-28.949c0,0,27.142-62.081-44.15-95.088c-2.986-1.598-6.083-3.088-9.278-4.459l-55.013-24.87
		c-6.468-2.924-14.093-0.28-17.361,6.02l-6.283,12.11c-20.377,5.303-37.285,16.279-47.239,31.3l-33.915-11.632l-0.002,0.005
		l-33.229-11.397l-0.01,0.053c-1.21-0.695-2.471-1.213-3.815-1.403c-0.97-0.137-1.946-0.129-2.924,0.009
		c-0.404-0.607-0.814-1.214-1.228-1.819c19.873-49.22,32.825-126.584,30.652-202.143v-0.015l0-0.013l-0.016-0.553l-0.031,0.001
		c-0.866-6.268-12.969-11.464-31.193-14.414l-1.412-93.106c-0.765-50.458-1.531-100.914-2.297-151.371
		c-0.664-43.798-1.328-87.594-1.993-131.392c-0.323-21.246-0.294-42.531-0.968-63.77l-0.014-0.874
		c-0.014-0.953-0.065-1.904-0.146-2.852c0.988-0.01,1.991-0.043,3.006-0.101c14.184-0.804,25.426-5.978,25.11-11.557
		c-0.316-5.579-12.071-9.45-26.255-8.646c-2.552,0.145-5.008,0.431-7.319,0.836c1.781-4.705,2.814-11.233,2.671-18.43
		c-0.283-14.204-5.042-25.628-10.629-25.517c-3.313,0.066-6.173,4.174-7.894,10.468c-1.929-7.284-5.214-12.097-8.849-12.025
		c-3.979,0.079-7.303,5.988-8.787,14.513c-1.97-6.221-4.991-10.212-8.305-10.146c-4.876,0.097-8.771,8.95-9.495,20.645
		c-1.975-7.254-4.59-11.711-7.378-11.655c-3.956,0.079-7.201,9.221-8.6,22.475c-8.909,7.812-14.636,19.013-14.44,31.994
		c0.265,17.451,0.529,34.902,0.794,52.352c0.636,41.896,1.271,83.792,1.907,125.689c0.765,50.456,1.531,100.913,2.296,151.37
		c0.572,37.758,1.145,75.517,1.718,113.276c-19.296,4.031-32.047,10.167-32.56,16.738l-0.031,0.001l0.016,0.532l0,0.035l0.002,0.036
		c1.27,41.692,5.544,83.705,12.24,121.067c-50.583-16.705-117.919-23.359-206.354-12.896c-4.847,0.032-9.303,9.128-12.994,24.777
		c-18.437-8.545-38.979-13.315-60.636-13.315c-66.73,0-122.884,45.276-139.423,106.784c-10.821,18.911-21.64,37.822-32.462,56.734
		c-16.203,28.319-32.407,56.639-48.611,84.958c-19.264,33.669-38.529,67.337-57.794,101.007
		c-20.66,36.11-41.322,72.22-61.983,108.329c-20.366,35.593-40.731,71.186-61.097,106.78
		c-18.686,32.657-37.371,65.314-56.057,97.971c-15.309,26.755-30.617,53.51-45.926,80.266
		c-10.301,18.004-20.603,36.008-30.905,54.012c-2.339,4.088-4.678,8.177-7.018,12.264h19.32c-5.436,10.25-10.872,20.5-16.308,30.75
		c-9.829,18.532-1.959,40.287,15.525,50.588c5.216,3.073,11.021,4.463,16.84,4.441l-0.001,0.001h162.15
		c9.298,0,10.974-10.105,4.776-17.037c-19.802-22.143-64.384-35.518-96.619-27.467c0,0-5.593-7.706-14.437-17.175
		c4.26-8.034,8.521-16.067,12.781-24.102h10.945l19.271-33.679c16.203-28.319,32.407-56.638,48.611-84.957
		c19.264-33.669,38.528-67.338,57.793-101.007c20.661-36.109,41.322-72.22,61.983-108.329
		c20.365-35.594,40.731-71.186,61.096-106.78c18.686-32.657,37.371-65.314,56.057-97.971c5.988-10.467,11.977-20.934,17.966-31.401
		c19.276,19.83,44.201,34.139,72.177,40.333c7.105,8.056,14.21,16.113,21.316,24.169c21.509,24.384,43.022,48.766,64.536,73.146
		c25.582,28.99,51.168,57.976,76.758,86.957c27.452,31.09,54.91,62.176,82.374,93.255c27.083,30.646,54.171,61.286,81.272,91.916
		c24.882,28.123,49.773,56.237,74.684,84.334c20.434,23.048,40.878,46.086,61.357,69.093c8.875,9.969,17.785,19.906,26.685,29.853
		l8.937-8.937c17.457,18.184,34.915,36.369,52.372,54.553c6.997,7.288,15.989,10.91,25.135,11.212l0.009,0.022h49.628
		c0.641,0.015,1.279,0.014,1.915,0h110.865C1690.256,1831.842,1691.931,1821.736,1685.733,1814.804z M1318.002,1496.374
		c-54.155-61.232-108.274-122.498-162.374-183.778c-22.361-25.329-44.72-50.661-67.075-75.996
		c92.392-2.07,158.421-9.463,204.753-22.323c5.58,30.903,13.899,63.169,24.849,94.233l0.009,0.027l0.009,0.023l0.18,0.51l0.03-0.011
		c2.299,4.793,11.923,6.445,25.765,5.218c13.667,36.424,27.332,72.848,40.999,109.272c20.523,54.699,41.047,109.397,61.57,164.096
		c11.697,31.176,23.395,62.353,35.093,93.53c-7.179-8.071-14.349-16.148-21.522-24.219
		C1412.777,1603.502,1365.382,1549.944,1318.002,1496.374z"/>
	<path style="fill:#FFEAC5;" d="M1481.811,1681.174c-7.179-8.071-14.349-16.148-21.522-24.219
		c-47.512-53.454-94.906-107.012-142.286-160.582c-54.155-61.232-108.274-122.498-162.374-183.778
		c-22.361-25.329-44.72-50.661-67.075-75.996c92.392-2.07,158.421-9.463,204.753-22.323c5.58,30.903,13.899,63.169,24.849,94.233
		c0.004,0.009,0.006,0.017,0.009,0.027c0.003,0.007,0.006,0.015,0.009,0.023c0.06,0.17,0.119,0.34,0.18,0.51l0.03-0.011
		c2.299,4.793,11.923,6.445,25.765,5.218c14.028-1.244,32.39-5.444,51.854-12.328c11.553-4.085,22.209-8.663,31.408-13.351
		c21.591-11.003,35.15-22.615,33.42-29.92l0.029-0.01l-0.174-0.489c-0.006-0.014-0.01-0.03-0.015-0.044
		c-0.005-0.016-0.011-0.031-0.017-0.046c-16.358-46.148-36.792-91.455-57.951-128.548l-48.728,2.324
		c-1.161,0.224-2.321,0.329-3.472,0.166c-13.192-1.864-20.24-29.181-15.741-61.013c4.168-29.492,16.783-52.51,29.106-54.254
		c-0.405-0.607-0.814-1.214-1.228-1.819c19.873-49.22,32.825-126.584,30.652-202.143v-0.015c0-0.005,0-0.008,0-0.013
		c-0.005-0.184-0.01-0.369-0.016-0.553l-0.031,0.001c-0.866-6.268-12.969-11.464-31.193-14.414
		c-12.602-2.039-28.131-3.005-44.893-2.506c-15.753,0.47-30.341,2.166-42.382,4.681c-19.296,4.031-32.047,10.167-32.56,16.738
		l-0.031,0.001c0.005,0.178,0.011,0.355,0.016,0.532c0,0.011,0,0.023,0,0.035c0,0.012,0.002,0.024,0.002,0.036
		c1.27,41.692,5.544,83.705,12.24,121.067c-50.583-16.705-117.919-23.359-206.354-12.896c-4.847,0.032-9.303,9.128-12.995,24.777
		c-18.437-8.545-38.978-13.315-60.636-13.315c-66.73,0-122.884,45.276-139.423,106.784c-10.821,18.911-21.64,37.822-32.462,56.734
		c-16.203,28.319-32.407,56.639-48.611,84.958c-19.264,33.669-38.529,67.337-57.794,101.007
		c-20.661,36.11-41.322,72.22-61.983,108.329c-20.366,35.593-40.731,71.186-61.097,106.78
		c-18.685,32.657-37.371,65.314-56.056,97.971c-15.309,26.755-30.617,53.51-45.926,80.266
		c-10.302,18.004-20.603,36.008-30.905,54.012c-2.339,4.088-4.678,8.177-7.018,12.264h114.973l19.271-33.679
		c16.203-28.319,32.407-56.638,48.611-84.957c19.264-33.669,38.529-67.338,57.794-101.007
		c20.661-36.109,41.322-72.22,61.983-108.329c20.365-35.594,40.73-71.186,61.096-106.78c18.686-32.657,37.371-65.314,56.057-97.971
		c5.988-10.467,11.977-20.934,17.966-31.401c19.276,19.83,44.201,34.139,72.177,40.333c7.105,8.056,14.21,16.113,21.316,24.169
		c21.509,24.384,43.022,48.766,64.536,73.146c25.582,28.99,51.168,57.976,76.758,86.957c27.452,31.09,54.91,62.176,82.374,93.255
		c27.083,30.646,54.171,61.286,81.272,91.916c24.882,28.123,49.773,56.237,74.684,84.334c20.434,23.048,40.877,46.086,61.357,69.093
		c8.875,9.969,17.785,19.906,26.685,29.853l8.937-8.937c16.774-16.775,33.548-33.548,50.322-50.323
		c-0.488-2.276,1.806-4.583,3.873-3.873l7.373-7.373C1495.656,1696.728,1488.729,1688.954,1481.811,1681.174z"/>
	<g>
		<path style="fill:#4C62AB;" d="M1495.228,1711.858l7.372-7.373c-6.944-7.757-13.871-15.532-20.79-23.311
			c-7.179-8.071-14.349-16.148-21.522-24.219c-47.512-53.454-94.906-107.012-142.286-160.582
			c-54.155-61.232-108.274-122.498-162.374-183.778c-22.361-25.329-44.72-50.661-67.075-75.996
			c-19.644-22.262-39.285-44.527-58.925-66.793c-2.869-25.091-4.652-55.52-4.867-88.329c-0.359-55.039,3.783-103.441,10.333-131.207
			c-18.437-8.545-38.979-13.315-60.636-13.315c-66.73,0-122.884,45.276-139.423,106.784c-10.821,18.911-21.64,37.822-32.462,56.734
			c-16.203,28.319-32.407,56.639-48.611,84.958c-19.264,33.669-38.529,67.337-57.794,101.007
			c-20.66,36.11-41.322,72.22-61.983,108.329c-20.366,35.593-40.731,71.186-61.097,106.78
			c-18.686,32.657-37.371,65.314-56.057,97.971c-15.309,26.755-30.617,53.51-45.926,80.266
			c-10.301,18.004-20.603,36.008-30.905,54.012c-2.339,4.088-4.678,8.177-7.018,12.264h114.973l19.271-33.679
			c16.203-28.319,32.407-56.638,48.611-84.957c19.264-33.669,38.528-67.338,57.793-101.007
			c20.661-36.109,41.322-72.22,61.983-108.329c20.365-35.594,40.731-71.186,61.096-106.78
			c18.686-32.657,37.371-65.314,56.057-97.971c5.988-10.467,11.977-20.934,17.966-31.401c19.276,19.83,44.201,34.139,72.177,40.333
			c7.105,8.056,14.21,16.113,21.316,24.169c21.509,24.384,43.022,48.766,64.536,73.146c25.582,28.99,51.168,57.976,76.758,86.957
			c27.452,31.09,54.91,62.176,82.374,93.255c27.083,30.646,54.171,61.286,81.272,91.916c24.882,28.123,49.773,56.237,74.684,84.334
			c20.434,23.048,40.878,46.086,61.357,69.093c8.875,9.969,17.785,19.906,26.685,29.853l8.937-8.937
			c16.774-16.775,33.548-33.548,50.322-50.323C1490.867,1713.455,1493.16,1711.148,1495.228,1711.858z"/>
		<path style="fill:#702819;" d="M1555.692,1777.682c-3.257,0.748-1.808,1.998-4.328-0.941c-1.998-2.33-3.996-4.661-5.995-6.991
			c-12.725-14.839-25.45-29.678-38.176-44.516c-3.567-4.16-7.134-8.32-10.701-12.48c-0.391-0.456-0.822-0.744-1.264-0.896
			c-2.068-0.71-4.361,1.597-3.874,3.873c0.105,0.489,0.337,0.977,0.727,1.432c9.356,10.911,18.712,21.821,28.069,32.731
			c6.553,7.642,13.106,15.283,19.659,22.924c2.791,3.255,5.69,8.137,9.171,10.695c2.604,1.913,7.055,0.346,10.089,0.094
			c5.634-0.467,11.292-0.656,16.944-0.56c12.57,0.214,24.997,1.91,37.211,4.855c2.102,0.507,3.553-1.007,3.833-2.657
			c0.24-1.411-0.375-2.922-2.175-3.356c-1.032-0.249-2.066-0.488-3.101-0.719c-8.435-1.89-16.977-3.217-25.604-3.88
			C1576.637,1776.558,1565.108,1775.519,1555.692,1777.682z"/>
		<path style="fill:#CE4935;" d="M1431.059,1091.304c-3.145-9.879-3.854-20.185-1.666-30.387c1.538-7.171,4.401-13.802,8.37-19.79
			l-33.915-11.632c-0.001,0.002-0.001,0.003-0.002,0.005c-1.807,3.905-3.095,8.129-3.728,12.611
			C1396.996,1064.195,1410.474,1084.795,1431.059,1091.304z"/>
		<path style="fill:#4C190D;" d="M1535.493,1031.493c-2.717,0.578-4.629,2.408-4.273,4.086c0.358,1.677,2.849,2.569,5.566,1.991
			c2.717-0.578,4.63-2.406,4.274-4.085C1540.702,1031.806,1538.21,1030.915,1535.493,1031.493z"/>
		<path style="fill:#4C190D;" d="M1543.896,1091.019c2.079,1.433,4.083,3.179,5.92,5.219c8.865,9.842,10.547,22.777,3.756,28.895
			c-6.791,6.119-19.483,3.1-28.347-6.742c-3.475-3.858-5.846-8.191-7.036-12.403c-31.674,14.298-35.548,38.733-35.548,38.733
			s0.214,0.121,0.624,0.341c8.396,4.509,99.314,51.045,133.82-28.949c0,0,27.142-62.081-44.15-95.088
			c-0.007-0.004-0.014-0.008-0.021-0.01C1572.914,1021.014,1539.78,1046.438,1543.896,1091.019z"/>
		<path style="fill:#702819;" d="M1542.325,1098.718c-3.633-3.344-8.086-5.815-12.985-7.043c-1.633-0.409-3.382,0.528-3.836,2.178
			c-0.439,1.6,0.538,3.425,2.178,3.836c3.632,0.91,6.883,2.54,9.692,4.905l-0.029,0.161c-0.135,0.695-0.308,1.382-0.512,2.06
			c-0.191,0.63-0.409,1.252-0.651,1.863l-0.088,0.217l-0.086,0.192l-0.43,0.91c-0.528,1.067-1.121,2.1-1.769,3.099
			c-0.305,0.471-0.623,0.934-0.953,1.388l-0.317,0.425l-0.196,0.244c-0.538,0.662-0.914,1.319-0.914,2.205
			c0,0.765,0.34,1.678,0.914,2.205c1.139,1.046,3.311,1.351,4.41,0c2.291-2.818,4.217-5.96,5.477-9.344
			c0.382,0.625,0.746,1.279,1.098,1.977c0.574,1.145,0.823,1.758,1.227,3.001c0.401,1.232,0.703,2.488,0.928,3.762
			c0.293,1.66,2.322,2.594,3.836,2.178c1.751-0.481,2.472-2.172,2.178-3.836c-1.065-6.033-4.04-11.485-8.261-15.706
			C1542.992,1099.25,1542.678,1098.95,1542.325,1098.718z"/>
		<path style="fill:#FFFFFF;" d="M1490.697,1061.405c2.009-1.226,2.23-4.055,0.396-5.533c-3.683-2.969-9.978-8.515-16.64-16.486
			c-1.706-2.041-5.042-1.45-5.833,1.089c-1.375,4.413-1.922,10.913,3.222,16.92
			C1479.248,1066.046,1486.484,1063.976,1490.697,1061.405z"/>
	</g>
</g>
</svg>
