<svg width="328" height="304" viewBox="0 0 328 304" fill="none" xmlns="http://www.w3.org/2000/svg">
<g opacity="0.11">
<path opacity="0.38" d="M322.821 168.218C318.65 147.31 309.805 126.731 293.869 111.005C285.08 102.328 274.266 95.2487 266.578 85.7875C258.348 75.658 254.196 63.4465 248.458 52C246.499 88.7604 233.436 125.259 210.399 156.258C176.763 201.511 122.302 234.466 62.6436 245.651C45.7183 248.827 27.9626 250.222 11 248.236C12.2503 251.374 13.5659 254.483 14.9747 257.562C20.405 269.512 26.9829 281.123 35.6882 291.417L252.731 294.855C280.601 287.447 303.115 267.304 314.732 243.685C326.348 220.056 327.841 193.348 322.821 168.218Z" fill="#CFD7F0"/>
</g>
<path d="M89.8513 7.69878C51.9513 25.5754 27.2351 60.2635 13.7994 96.2299C-5.16926 147.003 -4.51614 203.025 15.3762 252.907C32.3295 254.892 50.0945 253.488 67.0198 250.322C126.688 239.127 181.14 206.182 214.776 160.929C237.812 129.93 250.884 93.4312 252.834 56.6707C252.153 55.315 251.463 53.9689 250.726 52.6422C237.019 27.7834 211.51 8.3476 181.615 0" fill="#343442"/>
<path opacity="0.27" d="M258.433 291.546C258.433 298.422 209.029 303.99 148.083 303.99C87.1368 303.99 37.7324 298.422 37.7324 291.546C37.7324 284.671 87.1368 279.102 148.083 279.102C209.029 279.102 258.433 284.671 258.433 291.546Z" fill="#93A9D8"/>
<path d="M265.225 195.103C265.598 194.59 264.758 194.087 264.395 194.6L265.225 195.103Z" fill="#37996F"/>
<path d="M146.113 83.5535C146.766 85.5677 147.746 89.3639 146.701 91.1941C145.656 93.0244 144.882 94.3995 139.33 95.397C140.338 98.3409 144.117 107.086 146.953 108.131C149.789 109.177 154.389 109.013 156.89 107.279C158.383 106.243 161.2 97.082 162.423 95.7263C159.53 95.2711 156.759 93.8282 155.947 91.7752C155.126 89.7125 155.201 87.2915 156.153 85.2869" fill="#F3885B"/>
<g opacity="0.5">
<path opacity="0.5" d="M141.532 95.0193C146.393 94.8353 154.399 93.7798 155.453 87.5433C155.649 86.3618 155.835 85.4806 156.498 84.9092L146.113 83.5535C146.766 85.5677 147.746 89.3639 146.701 91.1941C145.656 93.0244 144.882 94.3995 139.33 95.397C139.349 95.4551 139.377 95.5326 139.405 95.6004C140.039 95.2614 140.758 95.0484 141.532 95.0193Z" fill="#E06338"/>
</g>
<path d="M165.026 134.675C165.026 134.675 162.358 143.788 167.984 152.01C167.984 152.01 153.391 159.457 135.943 152.01C135.943 152.01 139.358 146.151 136.615 130.899" fill="#F3885B"/>
<path opacity="0.5" d="M140.161 153.54C141.57 146.742 145.208 140.602 150.461 136.234C151.87 135.063 153.363 134.123 154.903 133.329L136.615 130.899C139.358 146.151 135.943 152.01 135.943 152.01C137.371 152.62 138.78 153.114 140.161 153.54Z" fill="#E06338"/>
<path d="M153.008 10.8848C153.82 16.8696 156.377 25.5561 160.65 29.8848C164.933 34.2136 178.406 54.734 179.544 57.6392C180.682 60.5444 178.994 79.6122 175.719 91.6881C173.246 100.81 168.338 108.877 167.769 116.847C167.2 124.817 158.327 114.048 160.603 98.7284C160.603 98.7284 163.692 90.5551 166.687 85.0255C169.682 79.496 170.708 64.1759 169.729 61.7355C168.59 58.9078 153.652 31.4246 153.652 31.4246C153.652 31.4246 149.342 29.1876 149.789 25.7788C150.247 22.3701 150.387 7.7085 150.387 7.7085" fill="#F3885B"/>
<path opacity="0.5" d="M164.896 45.815C163.888 44.4496 162.852 43.1035 161.938 41.6606C159.185 37.971 157.338 33.8069 154.8 29.972C152.253 26.1275 150.993 23.1254 150.191 18.816C150.098 21.7987 149.976 24.549 149.808 25.7885C149.351 29.1973 153.671 31.4343 153.671 31.4343C153.671 31.4343 168.6 58.9175 169.747 61.7452C169.757 61.7549 169.757 61.7743 169.766 61.7936C170.027 56.4771 168.964 51.2865 165.483 46.7544C165.231 46.4445 165.054 46.1346 164.896 45.815Z" fill="#E06338"/>
<path opacity="0.5" d="M179.554 57.6392C179.404 57.2712 179.059 56.603 178.555 55.7314C179.47 62.3456 178.667 69.2794 176.717 75.9129C174.534 83.3115 170.718 90.0806 168.479 97.4888C166.314 104.645 166.407 111.463 167.34 118.755C167.564 118.309 167.723 117.69 167.788 116.837C168.357 108.868 173.265 100.801 175.738 91.6784C178.994 79.6219 180.692 60.5444 179.554 57.6392Z" fill="#E06338"/>
<path d="M148.465 11.2141C147.654 17.1988 145.097 25.8853 140.824 30.2141C136.541 34.5428 123.068 55.0632 121.93 57.9684C120.791 60.8736 122.48 79.9414 125.755 92.0173C128.228 101.14 133.136 109.206 133.705 117.176C134.274 125.146 143.147 114.378 140.87 99.0576C140.87 99.0576 137.782 90.8843 134.787 85.3547C131.792 79.8252 130.766 64.5051 131.745 62.0647C132.884 59.237 147.822 31.7538 147.822 31.7538C147.822 31.7538 152.132 29.5168 151.684 26.1081C151.227 22.6993 151.087 8.03772 151.087 8.03772" fill="#F3885B"/>
<path opacity="0.5" d="M136.578 46.1442C137.586 44.7788 138.621 43.4327 139.536 41.9898C142.288 38.3002 144.136 34.1361 146.673 30.3012C149.221 26.4567 150.48 23.4546 151.283 19.1453C151.376 22.1279 151.497 24.8782 151.665 26.1177C152.122 29.5265 147.802 31.7635 147.802 31.7635C147.802 31.7635 132.874 59.2467 131.726 62.0744C131.717 62.0841 131.717 62.1035 131.708 62.1228C131.446 56.8063 132.51 51.6157 135.99 47.0836C136.242 46.7737 136.419 46.4638 136.578 46.1442Z" fill="#E06338"/>
<path opacity="0.5" d="M121.92 57.9684C122.069 57.6004 122.415 56.9322 122.918 56.0607C122.004 62.6748 122.807 69.6086 124.757 76.2421C126.94 83.6407 130.756 90.4098 132.995 97.8181C135.16 104.975 135.067 111.792 134.134 119.084C133.91 118.639 133.751 118.019 133.686 117.167C133.117 109.197 128.209 101.13 125.736 92.0077C122.48 79.9414 120.782 60.8736 121.92 57.9684Z" fill="#E06338"/>
<path d="M149.557 285.281C149.109 288.68 149.324 290.384 147.458 295.062C147.159 295.817 146.73 297.454 147.644 298.567C148.055 299.061 148.699 299.594 149.912 299.768C154.819 300.475 160.044 299.816 164.822 301.25C167.313 301.995 169.944 302.141 172.435 301.482C173.154 301.288 173.2 300.223 172.5 299.962C171.437 299.565 170.168 299.632 168.964 299.245C165.437 298.122 161.854 296.747 159.121 294.016C156.387 291.285 154.689 286.869 155.855 282.966" fill="#F3885B"/>
<path d="M139.106 185.245C140.72 185.487 142.064 183.977 143.295 182.776C144.527 181.575 146.449 180.597 147.681 181.798C148.147 182.253 148.39 182.931 148.53 183.599C148.996 185.758 148.623 188.024 148.52 190.252C148.222 196.769 150.237 203.248 149.649 209.736C146.972 206.337 146.645 201.33 144.443 197.534C143.006 195.055 140.851 193.225 138.742 191.443" fill="#F3885B"/>
<path d="M167.714 115.646C167.714 115.646 159.998 102.931 161.817 95.6198L158.664 94.4965C158.664 94.4965 159.223 106.049 151.684 108.083C150.845 108.306 149.949 108.306 149.109 108.083C141.664 106.04 143.072 94.4384 143.072 94.4384L139.769 95.3196C141.589 102.631 133.873 115.637 133.873 115.637C132.557 121.118 137.194 134.685 137.194 134.685L150.714 135.063V135.072L150.966 135.063L165.027 134.656C165.027 134.675 169.03 121.127 167.714 115.646Z" fill="url(#paint0_linear_4323_16604)"/>
<path d="M146.637 124.275C141.496 117.447 140.871 108.848 139.817 100.53C138.688 107.541 133.882 115.646 133.882 115.646C132.567 121.127 137.204 134.695 137.204 134.695L150.724 135.072V135.082L150.976 135.072L165.037 134.666C165.037 134.666 165.177 134.191 165.391 133.407C158.151 133.32 151.34 130.511 146.637 124.275Z" fill="url(#paint1_linear_4323_16604)"/>
<path d="M173.265 176.936C172.808 167.601 172.575 167.504 170.522 158.45C169.851 155.467 168.591 151.816 167.089 149.618C166.482 148.727 165.726 149.647 164.765 149.928C156.256 152.358 147.215 152.378 138.706 149.986C137.698 149.705 136.802 148.795 136.42 149.879C134.955 153.995 133.527 154.653 132.202 155.554C131.941 155.728 131.297 156.038 130.887 156.348L126.026 159.447C124.654 160.328 123.208 161.093 121.715 161.732C117.134 163.698 112.599 165.79 108.261 168.356C101.627 172.278 95.4035 177.362 90.9249 184.112C90.393 184.916 89.8799 185.749 89.572 186.688C88.499 189.932 90.2064 193.699 92.7816 195.597C95.758 197.786 99.5928 197.97 103.082 197.873C105.648 197.796 108.214 197.554 110.752 197.186C117.237 196.256 123.721 195.317 130.215 194.387C133.714 193.883 134.488 193.612 138.015 193.661C138.612 193.67 140.133 193.612 140.488 193.389C141.048 193.031 140.973 192.721 140.973 191.995C140.964 189.7 141.318 187.85 141.309 185.555C141.309 185.274 141.421 184.141 141.272 183.909C141.122 183.686 140.469 183.618 140.227 183.58C138.444 183.318 133.257 183.318 131.857 183.047C133.191 182.911 134.498 183.686 140.786 181.139C142.736 180.355 144.659 179.27 146.45 178.06C146.59 178.311 146.721 178.573 146.832 178.854C147.271 179.938 147.402 181.149 147.523 182.33C149.249 199.49 149.128 216.815 148.997 234.082C148.866 251.813 148.736 269.544 148.605 287.276C148.605 287.702 148.922 288.07 149.342 288.07C151.703 288.118 154.166 287.702 155.864 287.537C157.068 287.421 156.965 283.402 157.189 282.114C158.3 275.597 160.427 268.547 161.537 262.03C162.377 257.11 163.497 253.798 163.786 248.801C164.019 244.695 163.888 240.57 164.243 236.474C164.644 231.845 165.68 227.312 166.706 222.8C167.826 217.89 169.253 213.048 170.065 208.061C172.463 193.322 173.695 185.662 173.265 176.936Z" fill="#003236"/>
<path d="M104.165 171.93C108.849 169.964 113.822 169.112 118.515 167.214C123.199 165.316 128.107 163.437 132.632 161.171C135.468 159.757 140.488 155.786 140.787 152.097C140.833 151.545 140.955 151.041 141.122 150.586C140.311 150.402 139.508 150.209 138.706 149.986C137.698 149.705 136.802 148.795 136.42 149.879C134.955 153.995 133.528 154.653 132.203 155.554C131.941 155.728 131.298 156.038 130.887 156.348L126.026 159.447C124.654 160.328 123.208 161.093 121.715 161.732C117.134 163.698 112.599 165.79 108.261 168.356C105.695 169.867 103.213 171.571 100.853 173.46C101.935 172.917 103.036 172.404 104.165 171.93Z" fill="#002021"/>
<path d="M152.543 198.958C151.955 193.234 151.414 182.224 146.721 178.234C146.571 178.108 146.441 177.982 146.31 177.847C146.254 177.992 146.18 178.137 146.114 178.273C146.226 178.195 146.338 178.127 146.45 178.06C146.59 178.311 146.721 178.573 146.833 178.854C147.271 179.938 147.402 181.139 147.523 182.33C149.249 199.49 149.128 216.815 148.997 234.082C148.876 249.799 148.764 265.506 148.643 281.214C153.747 264.054 153.961 246.119 153.607 228.184C153.429 218.471 153.541 208.632 152.543 198.958Z" fill="#002021"/>
<path d="M140.226 183.58C138.444 183.318 133.257 183.318 131.857 183.047C133.191 182.911 134.498 183.686 140.786 181.139C142.419 180.481 144.024 179.609 145.563 178.631C145.545 178.418 145.545 178.224 145.554 178.031C142.102 178.466 138.612 178.35 135.132 178.902C131.521 179.474 127.92 180.055 124.29 180.49C117.778 181.275 107.691 181.149 102.457 186.01C102.438 186.03 102.41 186.059 102.373 186.107C104.948 189.584 119.494 188.819 122.06 188.877C128.414 189.022 134.768 189.061 141.122 189.167C141.215 187.995 141.318 186.843 141.318 185.555C141.318 185.274 141.43 184.141 141.281 183.909C141.122 183.686 140.469 183.609 140.226 183.58Z" fill="#002021"/>
<path d="M164.588 73.8211C164.457 73.1916 164.168 72.5331 163.617 72.2329C162.992 71.894 162.255 72.107 161.63 72.5137C161.63 69.1147 160.958 65.7059 159.904 62.5005L140.795 65.9964C140.562 68.0688 140.469 70.1605 140.553 72.2329C140.068 72.0392 139.564 71.9908 139.116 72.2329C138.565 72.5331 138.276 73.1819 138.145 73.8211C137.847 75.293 138.239 76.9006 139.153 78.0724C139.853 78.9536 140.833 79.5831 141.906 79.8639C142.736 82.2946 143.912 84.2023 146.291 86.449C146.953 87.0785 147.802 87.4465 148.605 87.8435C149.696 88.3761 150.853 88.8506 152.048 88.7344C152.887 88.6473 153.671 88.2696 154.399 87.8145C157.161 86.0907 159.195 83.2146 160.389 79.9607C161.621 79.7574 162.787 79.0795 163.58 78.082C164.494 76.9006 164.886 75.293 164.588 73.8211Z" fill="#F3885B"/>
<path d="M162.796 76.6391C163.058 74.189 163.925 71.8649 164.56 69.502C165.194 67.1294 165.596 64.5825 164.905 62.2293C164.467 60.7283 163.617 59.3919 162.656 58.1911C161.798 57.1065 160.837 56.0993 159.764 55.2471C159.885 54.9954 159.997 54.7436 160.109 54.4724C161.248 51.6156 161.499 48.2747 160.305 45.4373C159.409 43.3068 157.73 41.5443 155.677 40.5953C153.634 39.6462 151.245 39.53 149.118 40.266C146.002 41.3506 143.613 44.2171 142.652 47.4806C141.803 50.3567 141.99 53.4943 142.876 56.3705C141.253 57.426 140.058 59.1207 139.349 60.9704C138.668 62.7426 138.407 64.689 138.575 66.5871C138.677 67.7492 138.948 68.9016 139.107 70.054C139.153 70.3929 139.228 70.7319 139.302 71.0708C139.181 73.2691 139.48 75.4964 139.564 77.7043C139.685 81.0937 139.256 84.4928 138.313 87.7369C139.051 87.8338 139.554 87.001 139.825 86.2844C141.337 82.2558 141.71 77.9367 141.644 73.5886C142.717 72.8914 143.576 71.8843 144.5 70.7609C145.89 69.0662 146.897 67.0713 147.821 65.0667C149.146 68.0494 152.113 69.8216 154.968 71.2354C156.9 72.1941 158.924 73.1335 160.622 74.4505C160.594 78.6534 160.986 82.8078 162.451 86.7008C162.722 87.4174 163.226 88.2502 163.963 88.1534C163.02 84.9092 162.6 81.5005 162.712 78.1207C162.731 77.6269 162.759 77.133 162.796 76.6391Z" fill="#003236"/>
<path d="M148.465 69.9474C146.375 68.9596 144.21 68.9693 142.745 70.0927C143.958 70.0249 145.227 69.9571 146.356 70.4413C146.645 70.5672 146.916 70.7221 147.214 70.8093C147.513 70.8964 148.082 71.032 148.362 70.8771C148.642 70.7221 148.828 70.3057 148.465 69.9474Z" fill="#003236"/>
<path d="M151.758 72.4459C151.581 74.034 151.917 75.6997 152.859 76.9877C152.971 77.1426 153.083 77.2976 153.213 77.4331C153.307 77.5396 153.26 77.4428 153.223 77.4815C153.158 77.53 153.083 77.5784 153.008 77.6171C152.756 77.7527 152.467 77.8108 152.196 77.8495C151.954 77.8786 151.702 77.8786 151.459 77.8689C151.319 77.8592 151.179 77.8399 151.04 77.8689C150.582 77.9658 150.778 78.6824 151.235 78.5952C151.067 78.6339 151.245 78.6146 151.301 78.6146C151.413 78.6243 151.515 78.6243 151.627 78.6243C151.926 78.6243 152.224 78.6049 152.523 78.5565C153.092 78.4596 154.24 78.0626 153.932 77.2588C153.783 76.8715 153.409 76.5616 153.195 76.2129C152.98 75.8546 152.812 75.477 152.682 75.0702C152.42 74.2277 152.364 73.3368 152.467 72.4556C152.532 71.9714 151.814 71.9714 151.758 72.4459Z" fill="#E26439"/>
<g opacity="0.5">
<path opacity="0.5" d="M149.137 81.5682C149.753 82.3236 150.723 82.7594 151.675 82.7013C152.626 82.6432 153.55 82.1008 154.072 81.2777" fill="#E82D1F"/>
</g>
<path d="M147.746 73.3077C147.345 73.8403 146.561 73.8403 145.973 73.7629C145.274 73.666 144.602 73.3658 144.061 72.901C143.911 72.7751 143.697 72.7461 143.547 72.901C143.417 73.0366 143.398 73.298 143.547 73.4336C144.247 74.034 145.078 74.402 145.973 74.5182C146.748 74.6151 147.737 74.5376 148.259 73.85C148.381 73.6951 148.409 73.4724 148.259 73.3174C148.129 73.1722 147.867 73.1431 147.746 73.3077Z" fill="#E26439"/>
<path d="M157.17 69.2694C156.06 69.1435 154.819 69.3662 153.606 69.9473C153.242 70.3056 153.429 70.722 153.709 70.8769C153.979 71.0319 154.558 70.8963 154.856 70.8092C155.155 70.722 155.435 70.5574 155.715 70.4412C156.191 70.2378 156.704 70.1409 157.217 70.0925C157.17 69.8214 157.161 69.5405 157.17 69.2694Z" fill="#003236"/>
<path d="M158.654 73.1044C158.178 73.4627 157.627 73.7048 157.049 73.8307C156.424 73.9662 155.565 74.034 155.09 73.4917C154.782 73.1334 154.268 73.666 154.576 74.0244C155.202 74.741 156.247 74.741 157.096 74.586C157.879 74.4408 158.616 74.0825 159.242 73.5692C159.027 73.4336 158.831 73.2787 158.654 73.1044Z" fill="#E26439"/>
<path opacity="0.35" d="M147.896 78.0529C147.896 79.031 146.776 79.8251 145.395 79.8251C144.014 79.8251 142.895 79.031 142.895 78.0529C142.895 77.0749 144.014 76.2808 145.395 76.2808C146.776 76.2808 147.896 77.0749 147.896 78.0529Z" fill="#F44A38"/>
<path opacity="0.35" d="M160.352 78.0529C160.352 79.031 159.232 79.8251 157.851 79.8251C156.47 79.8251 155.351 79.031 155.351 78.0529C155.351 77.0749 156.47 76.2808 157.851 76.2808C159.232 76.2808 160.352 77.0749 160.352 78.0529Z" fill="#F44A38"/>
<path d="M141.822 57.1936C140.936 55.5086 144.546 52.8455 146.739 51.8287C148.932 50.8119 151.404 50.5504 153.783 50.8119C157.6 51.2283 161.556 53.32 162.909 57.0483C163.123 57.6488 163.188 58.7043 162.881 58.4525C162.61 58.2298 162.171 58.0264 161.845 57.9102C159.214 56.9321 156.452 56.2833 153.671 55.9541C148.027 55.2859 146.03 56.1768 141.822 57.1936Z" fill="#FF634D"/>
<path d="M146.282 54.24C146.898 54.24 146.898 53.2426 146.282 53.2426C145.657 53.2426 145.657 54.24 146.282 54.24Z" fill="#FFFFE4"/>
<path d="M150.686 52.3419C151.301 52.3419 151.301 51.3445 150.686 51.3445C150.061 51.3445 150.061 52.3419 150.686 52.3419Z" fill="#FFFFE4"/>
<path d="M150.584 55.5376C151.2 55.5376 151.2 54.5402 150.584 54.5402C149.968 54.5402 149.968 55.5376 150.584 55.5376Z" fill="#FFFFE4"/>
<path d="M154.362 54.1723C154.978 54.1723 154.978 53.1748 154.362 53.1748C153.746 53.1748 153.746 54.1723 154.362 54.1723Z" fill="#FFFFE4"/>
<path d="M156.405 52.4097C157.021 52.4097 157.021 51.4122 156.405 51.4122C155.789 51.4122 155.789 52.4097 156.405 52.4097Z" fill="#FFFFE4"/>
<path d="M156.657 56.6222C157.273 56.6222 157.273 55.6248 156.657 55.6248C156.041 55.6248 156.041 56.6222 156.657 56.6222Z" fill="#FFFFE4"/>
<path d="M158.607 54.8888C159.223 54.8888 159.223 53.8914 158.607 53.8914C157.992 53.8914 157.992 54.8888 158.607 54.8888Z" fill="#FFFFE4"/>
<path d="M161.248 57.1742C161.864 57.1742 161.864 56.1768 161.248 56.1768C160.632 56.1768 160.632 57.1742 161.248 57.1742Z" fill="#FFFFE4"/>
<path d="M143.791 56.0315C144.407 56.0315 144.407 55.0341 143.791 55.0341C143.175 55.0341 143.175 56.0315 143.791 56.0315Z" fill="#FFFFE4"/>
<path d="M76.8264 244.182C73.0383 246.099 71.2188 250.273 70.1925 254.282C70.1552 254.437 70.3884 254.505 70.4258 254.35C71.4334 250.389 73.2155 246.283 76.9477 244.395C77.0876 244.327 76.9663 244.114 76.8264 244.182Z" fill="#444654"/>
<path d="M76.8546 244.046C76.1455 244.211 75.8842 245.199 75.6416 245.799C75.2404 246.787 74.9418 247.814 74.7179 248.859C74.2794 250.922 74.1301 253.043 74.0928 255.154C74.0928 255.319 74.326 255.319 74.3354 255.154C74.3633 253.256 74.4846 251.358 74.8299 249.499C74.9978 248.608 75.2124 247.717 75.5017 246.855C75.6603 246.371 75.8376 245.906 76.0428 245.441C76.2294 245.025 76.4254 244.385 76.9199 244.279C77.0692 244.25 77.0039 244.008 76.8546 244.046Z" fill="#444654"/>
<path d="M76.7329 244.173C72.7489 245.045 69.11 247.291 66.4695 250.506C66.3669 250.632 66.5348 250.807 66.6375 250.681C69.2593 247.495 72.8422 245.277 76.7982 244.406C76.9475 244.377 76.8822 244.134 76.7329 244.173Z" fill="#444654"/>
<path d="M81.2024 241.654C84.2255 238.604 88.6201 238.236 92.6042 238.594C92.7628 238.604 92.7441 238.856 92.5855 238.846C88.6574 238.497 84.3281 238.846 81.3517 241.848C81.2491 241.955 81.0905 241.761 81.2024 241.654Z" fill="#444654"/>
<path d="M81.0713 241.635C81.4538 240.996 82.4428 241.073 83.0773 241.044C84.1036 240.986 85.1393 241.044 86.1657 241.18C88.1903 241.451 90.1591 242.022 92.0904 242.71C92.2397 242.758 92.1558 243.001 92.0065 242.942C90.2804 242.332 88.5169 241.8 86.7068 241.509C85.8391 241.374 84.962 241.287 84.085 241.267C83.5998 241.257 83.1053 241.277 82.6201 241.316C82.1723 241.354 81.5378 241.335 81.2672 241.771C81.1832 241.916 80.9873 241.771 81.0713 241.635Z" fill="#444654"/>
<defs>
<linearGradient id="paint0_linear_4323_16604" x1="136.123" y1="94.4384" x2="166.242" y2="130.264" gradientUnits="userSpaceOnUse">
<stop stop-color="#4F14A0"/>
<stop offset="1" stop-color="#8066FF"/>
</linearGradient>
<linearGradient id="paint1_linear_4323_16604" x1="135.945" y1="100.53" x2="161.107" y2="133.065" gradientUnits="userSpaceOnUse">
<stop stop-color="#4F14A0"/>
<stop offset="1" stop-color="#8066FF"/>
</linearGradient>
</defs>
</svg>
