<svg width="290" height="208" viewBox="0 0 290 208" fill="none" xmlns="http://www.w3.org/2000/svg">
<path d="M283.363 207.441H287.115L279.121 138.174H275.369L283.363 207.441Z" fill="#4E546A"/>
<path d="M241.022 207.441H237.271L245.267 138.174H249.016L241.022 207.441Z" fill="#4E546A"/>
<path d="M55.7346 207.441H59.4863L51.4919 138.174H47.7402L55.7346 207.441Z" fill="#4E546A"/>
<path d="M13.3933 207.441H9.64355L17.6379 138.174H21.3877L13.3933 207.441Z" fill="#4E546A"/>
<path d="M259.56 152.253H17.0854C10.127 152.253 4.15448 146.631 3.74665 139.692L0.022007 76.4793C-0.385828 69.5427 4.92376 63.9183 11.8821 63.9183H254.357C261.315 63.9183 267.288 69.5408 267.695 76.4793L271.42 139.694C271.828 146.631 266.518 152.253 259.56 152.253Z" fill="#4E546A"/>
<path d="M269.202 152.253H26.727C19.7687 152.253 13.7961 146.631 13.3883 139.692L9.66556 76.4793C9.25773 69.5427 14.5673 63.9183 21.5256 63.9183H264C270.959 63.9183 276.931 69.5408 277.339 76.4793L281.062 139.694C281.471 146.631 276.162 152.253 269.202 152.253Z" fill="#4E546A"/>
<path d="M281.494 152.829H13.5329C8.55385 152.829 4.28027 148.793 3.98841 143.812C3.69655 138.831 7.49464 134.794 12.4737 134.794H280.435C285.414 134.794 289.688 138.831 289.98 143.812C290.271 148.793 286.473 152.829 281.494 152.829Z" fill="#4E546A"/>
<path d="M281.471 152.829H24.4771C19.4806 152.829 15.1935 148.793 14.8997 143.812C14.6059 138.831 18.4194 134.794 23.414 134.794H280.408C285.405 134.794 289.692 138.831 289.986 143.812C290.279 148.793 286.466 152.829 281.471 152.829Z" fill="#4E546A"/>
<path d="M249.85 50.9528L234.275 70.7026C233.125 71.3597 211.418 82.7722 211.418 82.7722C211.418 82.7722 207.524 84.9553 205.127 86.1133C205.127 86.1133 206.171 88.7511 207.205 91.4275C216.164 88.0633 242.033 78.3116 243.177 77.4716C244.355 76.6083 262.011 55.6831 262.011 55.6831L249.85 50.9528Z" fill="#F8A492"/>
<path d="M250.006 41.7542C250.006 41.7542 247.008 42.3091 241.923 50.9547C237.178 59.0242 232.968 68.0745 232.968 68.0745L241.486 76.934C241.486 76.934 247.748 57.9394 248.282 57.3286C248.815 56.7159 250.006 41.7542 250.006 41.7542Z" fill="url(#paint0_linear_4323_16437)"/>
<path d="M221.39 193.553C221.39 193.553 221.848 201.11 221.85 201.125C222.018 202.085 222.681 204.455 222.681 205.327C222.681 208.605 207.071 202.545 210.57 201.094C210.887 200.963 212.545 199.969 212.649 198.853C212.81 197.135 213.218 193.659 213.218 193.659L221.39 193.553Z" fill="#F7A491"/>
<path d="M210.608 201.064C210.608 201.064 214.272 202.066 216.149 202.316C218.026 202.566 220.5 200.457 221.828 201.027C223.289 201.655 223.231 207.301 223.231 207.301C223.231 207.301 203.578 208.908 198.052 207.245C195.866 206.588 203.116 203.399 210.608 201.064Z" fill="#B75742"/>
<path d="M194.89 193.553C194.89 193.553 195.348 201.11 195.35 201.125C195.518 202.085 196.181 204.455 196.181 205.327C196.181 208.605 180.571 202.545 184.07 201.094C184.387 200.963 186.751 200.545 186.853 199.431C187.013 197.713 187.313 192.399 187.313 192.399L194.89 193.553Z" fill="#F7A491"/>
<path d="M184.11 201.064C184.11 201.064 187.775 202.066 189.652 202.316C191.528 202.566 194.003 200.457 195.33 201.027C196.792 201.655 196.734 207.301 196.734 207.301C196.734 207.301 177.08 208.908 171.554 207.245C169.366 206.588 176.618 203.399 184.11 201.064Z" fill="#B75742"/>
<path d="M245.589 114.283L208.277 114.443C208.277 114.443 191.423 114.002 188.759 119.813C186.094 125.623 185.916 194.508 185.916 194.508C185.916 194.508 194.736 195.002 195.196 194.508L206.316 156.078C207.4 152.334 207.767 148.419 207.402 144.54L206.433 134.265L221.829 135.049C221.829 135.049 239.283 134.771 245.039 129C250.791 123.228 245.589 114.283 245.589 114.283Z" fill="#2F3342"/>
<path d="M270.881 110.181L230.762 112.634C230.762 112.634 213.496 114.033 210.833 119.842C208.167 125.654 211.724 194.507 211.724 194.507C211.724 194.507 221.871 194.944 221.852 194.507C221.827 193.986 226.638 166.163 228.932 155.533C229.661 152.159 229.914 148.702 229.69 145.257L229.102 136.253C229.102 136.253 270.297 135.438 272.147 133.582C277.899 127.814 270.881 110.181 270.881 110.181Z" fill="#2F3342"/>
<path d="M250.006 41.7542C255.82 41.2571 266.238 42.5558 266.238 42.5558C266.238 42.5558 272.876 42.8718 274.865 43.762C277.793 45.0722 283.489 46.5925 281.203 59.9819C279.567 69.564 275.099 101.318 272.812 117.422L232.968 112.644C241.389 80.7993 244.501 42.2244 250.006 41.7542Z" fill="url(#paint1_linear_4323_16437)"/>
<path d="M263.31 30.0796L267.056 42.6232C267.056 42.6232 260.689 49.8584 256.27 49.1551C252.563 48.5636 254.289 43.2803 254.289 43.2803C254.289 43.2803 255.197 36.1684 254.102 32.6654C253.004 29.1625 263.31 30.0796 263.31 30.0796Z" fill="#F7A491"/>
<path d="M261.792 34.4669C260.105 35.6404 257.393 37.0835 254.639 37.7849C254.648 35.9525 254.528 34.0353 254.101 32.6653C253.595 31.0487 255.518 30.3744 257.737 30.1162C260.665 29.9678 263.311 30.0796 263.311 30.0796L264.03 32.49C263.567 33.1856 262.355 34.0758 261.792 34.4669Z" fill="#F47458"/>
<path d="M264.184 10.4665C264.476 10.3393 267.539 25.6787 263.838 30.1836C260.138 34.6885 252.494 36.5653 249.51 33.386C246.208 29.8696 245.317 13.2334 251.21 8.4684C257.106 3.7053 264.184 10.4665 264.184 10.4665Z" fill="#F7A491"/>
<path d="M253.041 0.0462473C257.871 0.71678 261.142 3.42974 262.356 4.59739C264.536 4.71685 267.555 5.72651 270.908 10.5513C275.033 16.4859 272.704 23.4898 268.564 27.1142C264.426 30.7385 264.729 34.6076 264.729 34.6076L263.915 32.648C263.312 31.1624 263.005 29.567 263.075 27.9639C263.117 27.0024 263.256 25.9581 263.6 25.0833C264.505 22.7788 261.119 21.4975 260.079 19.6921C259.278 18.3028 259.037 15.0234 257.767 12.7228L256.315 10.9964C256.315 10.9964 253.078 8.794 250.101 9.65914C247.121 10.5243 246.844 -0.81504 253.041 0.0462473Z" fill="#272936"/>
<path d="M260.454 22.4321C260.541 24.3223 261.5 25.8136 262.594 25.7635C263.688 25.7134 264.505 24.1411 264.418 22.2529C264.331 20.3627 263.373 18.8713 262.279 18.9214C261.183 18.9715 260.365 20.5438 260.454 22.4321Z" fill="#F7A491"/>
<path d="M254.284 27.1971L248.284 27.2627C248.284 27.2627 248.447 29.5324 251.087 29.5806C254.303 29.6365 254.284 27.1971 254.284 27.1971Z" fill="white"/>
<path d="M250.759 94.8188C250.33 94.5452 249.82 93.601 246.522 91.3736C245.571 90.7301 243.94 90.6357 243.94 90.6357C243.94 90.6357 241.934 90.5355 241.777 91.0056C241.621 91.4757 241.955 92.0037 242.311 92.1675C242.666 92.3293 243.468 92.2715 243.824 92.4353C244.18 92.5972 244.649 93.7571 244.657 94.2118C244.665 94.6666 238.762 94.1714 238.762 94.1714C238.762 94.1714 237.076 93.9479 236.522 93.8284C236.048 93.7263 234.655 93.3101 234.655 93.3101C234.655 93.3101 232.639 92.8284 232.53 93.47C232.467 93.8477 234.138 94.7802 235.89 95.4065C237.776 96.0828 239.753 96.4489 239.742 96.6531C239.711 97.129 236.466 96.9363 236.466 96.9363C236.466 96.9363 234.956 96.4893 234.258 96.5124C233.375 96.0808 231.769 95.8111 231.69 96.6011C231.674 96.7475 233.758 97.7495 233.758 97.7495C233.758 97.7495 235.203 98.1329 235.882 98.3583C237.078 98.7572 238.93 98.788 239.759 98.9923C240.449 99.1618 240.181 99.3314 240.213 99.4065C240.239 99.4643 239.297 99.3796 238.006 99.2851C237.355 99.237 236.614 99.3294 235.865 99.1541C235.171 98.9923 234.189 98.9094 233.595 98.8747C231.918 98.7765 232.159 99.8651 233.711 100.216C234.303 100.349 234.946 100.489 235.6 100.628C238.141 101.17 240.552 101.11 240.59 101.391C240.641 101.755 236.234 101.593 236.234 101.593C236.234 101.593 233.839 102.195 236.131 102.709C238.791 103.306 240.921 103.2 241.014 103.191C241.65 103.121 243.965 103.559 246.132 102.963C247.729 102.524 250.003 101.829 251.09 101.493L250.759 94.8188Z" fill="#F8A492"/>
<path d="M205.541 85.8763C205.042 85.7684 204.236 85.0574 200.37 84.1037C199.255 83.8281 197.691 84.3021 197.691 84.3021C197.691 84.3021 195.774 84.8994 195.789 85.3927C195.807 85.886 196.301 86.2675 196.692 86.2983C197.082 86.3291 197.815 85.9977 198.205 86.0286C198.596 86.0575 199.438 86.9862 199.603 87.4082C199.769 87.8321 194.057 89.4005 194.057 89.4005C194.057 89.4005 192.397 89.7724 191.835 89.8514C191.355 89.9188 189.902 90.0094 189.902 90.0094C189.902 90.0094 187.843 90.2521 187.963 90.8918C188.035 91.2695 189.927 91.5662 191.788 91.5527C193.793 91.5373 195.776 91.2001 195.834 91.3947C195.971 91.8533 192.859 92.7878 192.859 92.7878C192.859 92.7878 191.288 92.888 190.642 93.1501C189.662 93.048 188.062 93.3505 188.261 94.1193C188.297 94.2618 190.599 94.4854 190.599 94.4854C190.599 94.4854 192.09 94.3466 192.803 94.3254C194.065 94.2869 195.812 93.678 196.661 93.5855C197.366 93.5085 197.175 93.7589 197.231 93.8168C197.276 93.863 196.363 94.1058 195.119 94.4642C194.492 94.6434 193.827 94.9844 193.064 95.0788C192.356 95.1655 191.405 95.4276 190.837 95.5991C189.229 96.0846 189.834 97.023 191.411 96.8187C192.012 96.7397 192.666 96.6492 193.327 96.5548C195.899 96.1867 198.142 95.3004 198.273 95.5509C198.445 95.8746 194.255 97.2426 194.255 97.2426C194.255 97.2426 192.217 98.6319 194.546 98.3255C197.249 97.969 199.21 97.1367 199.295 97.0943C199.868 96.8091 202.193 96.4237 204.019 95.1174C205.367 94.1539 207.779 91.5816 208.681 90.8918L205.541 85.8763Z" fill="#F8A492"/>
<path d="M285.961 68.0726L275.048 71.4137C275.048 71.4137 277.109 80.8031 277.134 81.9245C277.134 81.9245 258.543 91.7378 250.762 94.8168L250.972 101.54C252.497 100.981 253.719 100.403 254.477 100.162C255.963 99.6898 279.741 92.4873 279.741 92.4873C279.741 92.4873 289.108 89.1944 289.419 87.4121C289.728 85.6317 285.961 68.0726 285.961 68.0726Z" fill="#F7A491"/>
<path d="M289.119 74.3483C289.119 74.3483 283.885 53.2959 281.042 47.8969C278.199 42.496 272.07 41.8101 268.094 45.4749C264.118 49.1397 275.535 77.2115 275.535 77.2115L289.119 74.3483Z" fill="url(#paint2_linear_4323_16437)"/>
<path d="M130.396 186.709C130.396 186.709 131.21 195.557 130.674 198.441C130.603 198.826 130.444 199.316 130.261 199.855C129.71 201.472 131.217 206.412 131.217 206.412L151.443 206.487C152.545 206.491 151.808 205.796 150.912 205.156C149.444 204.11 148.263 203.422 143.592 201.245C143.286 201.102 142.175 200.418 141.775 200.181C140.758 199.582 139.734 198.63 138.85 197.674C137.378 196.085 137.155 188.287 137.155 188.287L130.396 186.709Z" fill="#F7A491"/>
<path d="M141.773 200.181C136.442 201.613 132.478 200.732 130.255 199.873C129.704 201.487 128.67 206.948 129.287 206.948C134.359 206.948 138.651 207.906 153.183 207.676C153.703 207.669 153.639 205.886 153.301 205.493C152.363 204.408 142.175 200.418 141.773 200.181Z" fill="#B75742"/>
<path d="M153.287 172.038C153.287 172.038 157.711 179.751 158.427 182.597C158.523 182.978 158.583 183.489 158.641 184.056C158.813 185.755 162.242 189.624 162.242 189.624L180.674 181.321C181.677 180.869 180.718 180.541 179.636 180.331C177.865 179.986 176.505 179.849 171.348 179.801C171.011 179.797 169.716 179.635 169.253 179.585C168.079 179.46 166.75 179.017 165.549 178.516C163.549 177.678 160.097 170.676 160.097 170.676L153.287 172.038Z" fill="#F7A491"/>
<path d="M84.1021 26.014C81.6745 21.1083 75.6652 18.326 70.1855 18.3183C52.7858 18.2971 50.5726 40.6115 39.4973 49.2186C36.1747 51.8006 32.4713 53.9124 29.3072 56.6735C29.2569 58.5329 29.5565 60.3672 30.1422 62.0397C30.8361 63.8702 31.7484 65.5369 32.8308 67.0725L37.52 64.3634L35.4827 70.2672C39.6616 74.6006 45.2302 77.7953 50.6558 80.7741C58.2287 84.8262 66.2907 86.5565 74.4996 86.9284C77.5594 80.7722 79.7145 73.9474 82.0649 67.587C84.8811 59.9626 87.2431 52.026 87.591 43.8871C87.8538 37.7618 86.9241 31.7154 84.1021 26.014Z" fill="#272936"/>
<path d="M169.248 179.587C164.994 183.096 161.022 183.936 158.641 184.073C158.813 185.77 160.144 191.167 160.707 190.911C165.321 188.813 169.625 187.907 182.751 181.685C183.221 181.462 182.421 179.868 181.949 179.651C180.644 179.052 169.712 179.637 169.248 179.587Z" fill="#B75742"/>
<path d="M115.774 130.378C114.516 130.18 111.458 127.997 110.379 127.798C109.542 127.644 107.735 127.372 106.964 127.257C106.021 123.742 101.225 104.58 100.688 98.9634C100.106 92.8785 95.7901 66.5524 95.7901 66.5524L84.6123 68.5775C84.6123 68.5775 89.2551 88.8302 90.5385 98.6493C91.6402 107.085 100.924 126.049 102.105 128.049C102.107 128.097 102.107 128.145 102.111 128.195C102.29 131.172 103.728 130.18 103.728 130.18L106.065 130.775C106.065 130.775 114.336 131.569 114.877 131.767C115.415 131.966 117.034 130.577 115.774 130.378Z" fill="#F7A491"/>
<path d="M87.1673 52.6234C95.0688 55.294 98.4378 75.2481 98.4378 75.2481C98.4378 75.2481 86.0404 78.6991 82.8647 76.8898C82.8647 76.8898 79.2599 60.9588 77.9668 61.5157L87.1673 52.6234Z" fill="url(#paint3_linear_4323_16437)"/>
<path d="M78.5482 51.0993C78.7531 51.1012 79.045 51.0299 79.3446 50.9355C80.8116 50.6735 84.6677 51.5713 87.165 52.6215C90.2015 53.8989 92.0339 65.1631 91.7536 77.4119C91.6415 79.2848 90.2247 108.127 90.0817 108.22C86.4595 110.544 64.879 111.678 63.3772 109.7C61.8753 107.721 60.7175 73.5294 59.9869 72.3309L58.5508 51.4172C61.0867 50.6619 74.6632 51.0723 78.5482 51.0993Z" fill="url(#paint4_linear_4323_16437)"/>
<path d="M69.6924 43.3978C69.6924 43.3978 71.0995 50.6523 70.8173 53.5155C70.5351 56.3769 71.8901 65.6005 77.967 65.6314C84.0439 65.6622 79.1209 53.9047 78.5488 51.1012C77.9767 48.2977 77.8414 39.6155 77.8414 39.6155L69.6924 43.3978Z" fill="#F7A491"/>
<path d="M77.967 43.9701C77.8723 41.5943 77.8414 39.6155 77.8414 39.6155L69.6924 43.3998C69.6924 43.3998 69.9804 44.8834 70.2684 46.7736C73.8365 47.4865 76.4207 46.1705 77.967 43.9701Z" fill="#F47458"/>
<path d="M66.714 23.3742C66.714 23.3742 63.5731 25.1103 62.4269 28.8753C61.2788 32.6383 62.5854 42.3514 70.6976 44.6944C78.8079 47.0375 82.3219 39.3475 80.6519 33.3359C78.98 27.3223 75.3462 19.7094 66.714 23.3742Z" fill="#F7A491"/>
<path d="M81.6642 31.0044C81.5057 32.6191 80.6108 33.8542 79.6675 33.7617C78.7243 33.6692 78.0884 32.2858 78.2469 30.6711C78.4054 29.0564 79.3003 27.8213 80.2435 27.9138C81.1868 28.0063 81.8227 29.3898 81.6642 31.0044Z" fill="#F7A491"/>
<path d="M67.6644 22.8849C67.6644 22.8849 66.1934 33.7194 62.6795 35.6732C59.1655 37.6289 60.6364 42.4344 60.6364 42.4344C60.6364 42.4344 57.4491 31.2743 60.2286 27.6904C63.0061 24.1065 67.6644 22.8849 67.6644 22.8849Z" fill="#13375B"/>
<path d="M64.7619 37.2281C65.7148 38.6404 65.7109 40.3052 64.7542 40.9468C63.7974 41.5885 62.2492 40.9642 61.2963 39.5537C60.3433 38.1414 60.3472 36.4766 61.304 35.835C62.2608 35.1934 63.809 35.8176 64.7619 37.2281Z" fill="#F7A491"/>
<path d="M76.5788 37.8312L70.8613 39.2647C70.8613 39.2647 71.5494 41.4285 74.0815 40.8717C77.1702 40.1935 76.5788 37.8312 76.5788 37.8312Z" fill="white"/>
<path d="M25.2263 133.401C25.3191 133.139 25.5472 133.126 25.781 133.112C28.0406 132.972 30.2962 132.8 32.5268 132.396C32.8998 132.328 33.2651 132.232 33.6053 132.085C34.2219 131.818 34.8365 131.804 35.4725 131.958C35.8165 132.041 36.1625 132.049 36.5143 132.035C37.6508 131.995 40.8594 130.792 42.5158 130.451C42.8947 130.372 43.1865 130.078 43.2696 129.7C44.7058 123.187 47.7636 108.578 48.069 103.798C48.4594 97.682 51.8149 70.063 51.8149 70.063L63.213 72.8492C63.213 72.8492 59.2023 93.285 58.2262 103.164C57.4724 110.792 50.3652 127.151 48.125 131.862C47.0677 135.349 44.4526 135.527 43.8476 135.619C43.5016 135.673 43.1865 135.852 42.9662 136.126C42.568 136.617 42.1099 137.049 41.5803 137.407C41.1879 137.671 40.8884 138.01 40.6371 138.403C40.179 139.118 39.7731 139.86 39.371 140.606C39.1043 141.101 38.8144 141.263 38.393 141.161C37.9407 141.053 37.7165 140.729 37.7088 140.184C37.6952 139.378 37.9311 138.642 38.3138 137.943C38.6733 137.288 38.6327 136.916 38.1727 136.338C37.9079 136.006 37.6353 135.685 37.2932 135.425C36.9453 135.161 36.5819 134.962 36.1238 135.041C35.3178 135.268 34.5041 135.459 33.6749 135.577L32.9964 135.737C32.9732 135.741 32.6253 135.827 32.6253 135.827C32.5673 135.845 31.3709 136.012 30.9592 136.026C30.6287 136.037 30.0933 136.076 29.639 136.112C29.2273 136.145 28.3479 135.958 28.3189 135.958C27.9169 135.962 27.5573 135.829 27.25 135.569C27.1244 135.463 27.0026 135.344 27.0587 135.155C27.1109 134.981 27.2423 134.904 27.4162 134.868C27.6868 134.81 29.0843 134.596 29.0669 134.538C28.6494 134.552 27.3447 134.561 26.9272 134.563C26.3648 134.565 25.8719 134.38 25.4718 133.979C25.3133 133.821 25.1316 133.665 25.2263 133.401Z" fill="#F7A491"/>
<path d="M58.8584 51.342C53.2782 50.3304 48.2314 75.248 48.2314 75.248C48.2314 75.248 60.6289 78.6989 63.8046 76.8897C63.8046 76.8897 67.4094 60.9587 68.7025 61.5156L58.8584 51.342Z" fill="url(#paint5_linear_4323_16437)"/>
<path d="M90.3783 106.17V110.717L133.257 119.706L143.899 151.575L137.969 147.538L139.34 196.614L130.321 196.676C130.321 196.676 114.694 155.502 119.82 134.794L72.364 135.519C72.364 135.519 50.8569 127.239 61.9535 102.276L90.3783 106.17Z" fill="#2F3342"/>
<path d="M90.3779 110.715C90.3779 110.715 134.859 111.012 138.017 113.438C141.176 115.863 164.88 176.129 164.88 176.129L154.541 179.978C154.541 179.978 133.974 145.789 132.886 143.349C131.797 140.91 123.83 123.081 120.79 121.262C117.749 119.443 90.3779 110.715 90.3779 110.715Z" fill="#2F3342"/>
<defs>
<linearGradient id="paint0_linear_4323_16437" x1="234.201" y1="41.7541" x2="258.839" y2="58.5484" gradientUnits="userSpaceOnUse">
<stop stop-color="#4F14A0"/>
<stop offset="1" stop-color="#8066FF"/>
</linearGradient>
<linearGradient id="paint1_linear_4323_16437" x1="236.497" y1="41.6409" x2="293.237" y2="93.0269" gradientUnits="userSpaceOnUse">
<stop stop-color="#4F14A0"/>
<stop offset="1" stop-color="#8066FF"/>
</linearGradient>
<linearGradient id="paint2_linear_4323_16437" x1="268.835" y1="43.1862" x2="294.308" y2="66.2257" gradientUnits="userSpaceOnUse">
<stop stop-color="#4F14A0"/>
<stop offset="1" stop-color="#8066FF"/>
</linearGradient>
<linearGradient id="paint3_linear_4323_16437" x1="79.4483" y1="52.6234" x2="97.8929" y2="74.059" gradientUnits="userSpaceOnUse">
<stop stop-color="#4F14A0"/>
<stop offset="1" stop-color="#8066FF"/>
</linearGradient>
<linearGradient id="paint4_linear_4323_16437" x1="60.9557" y1="50.8895" x2="104.64" y2="85.0397" gradientUnits="userSpaceOnUse">
<stop stop-color="#4F14A0"/>
<stop offset="1" stop-color="#8066FF"/>
</linearGradient>
<linearGradient id="paint5_linear_4323_16437" x1="49.7129" y1="51.312" x2="69.2576" y2="72.8849" gradientUnits="userSpaceOnUse">
<stop stop-color="#4F14A0"/>
<stop offset="1" stop-color="#8066FF"/>
</linearGradient>
</defs>
</svg>
