<svg width="329" height="231" viewBox="0 0 329 231" fill="none" xmlns="http://www.w3.org/2000/svg">
<path d="M0 227.904L62.5425 199.765C66.3318 198.06 72.8321 196.662 76.9907 196.662H249.343C253.501 196.662 260.002 198.06 263.791 199.765L326.341 227.904C330.13 229.609 329.827 231.007 325.669 231.007H0.672182" fill="#4E546A"/>
<path d="M163.17 220.11C209.587 220.11 247.215 216.178 247.215 211.328C247.215 206.478 209.587 202.546 163.17 202.546C116.753 202.546 79.125 206.478 79.125 211.328C79.125 216.178 116.753 220.11 163.17 220.11Z" fill="#4E546A"/>
<path d="M228.239 133.064C227.456 131.323 226.207 127.48 222.654 120.623C219.101 113.766 214.204 107.816 213.236 105.847C212.269 103.878 210.142 97.3869 205.156 91.3491C200.17 85.3114 193.98 82.062 190.84 80.5105C187.701 78.959 178.054 73.514 175.698 71.9113C173.341 70.3085 173.201 68.2081 173.201 65.1856C173.201 62.1631 173.755 55.3423 173.755 55.3423H152.57C152.57 55.3423 153.124 62.1631 153.124 65.1856C153.124 68.2081 152.984 70.3085 150.628 71.9113C148.271 73.514 138.624 78.959 135.485 80.5105C132.346 82.062 126.156 85.3114 121.17 91.3491C116.184 97.3869 114.056 103.878 113.089 105.847C112.121 107.816 107.224 113.758 103.671 120.623C100.118 127.488 98.8695 131.33 98.0865 133.064C97.3035 134.799 94.7625 138.553 95.3608 140.383C95.9591 142.212 100.627 145.001 106.167 144.503C111.707 144.005 117.159 134.623 117.159 134.623C119.973 131.652 123.578 126.756 125.144 123.689C126.71 120.623 127.914 117.242 128.512 116.693C130.13 115.185 133.358 112.302 133.358 112.302H192.953C192.953 112.302 196.188 115.185 197.798 116.693C198.397 117.242 199.601 120.63 201.167 123.689C202.733 126.749 206.337 131.652 209.152 134.623C209.152 134.623 214.603 143.998 220.143 144.503C225.683 145.008 230.344 142.212 230.95 140.383" fill="#F7A491"/>
<path d="M152.585 55.3423C152.585 55.3423 153.139 62.1631 153.139 65.1856C153.139 65.7272 153.132 66.2395 153.109 66.7225C155.65 68.5082 158.169 70.089 158.775 70.5061C159.794 71.2087 161.419 71.3917 163.177 71.3917C164.928 71.3917 166.56 71.2087 167.58 70.5061C168.185 70.089 170.704 68.5082 173.245 66.7225C173.223 66.2395 173.216 65.7272 173.216 65.1856C173.216 62.1631 173.77 55.3423 173.77 55.3423H152.585Z" fill="#FBB18F"/>
<path d="M142.045 35.5019C142.045 35.5019 139.829 33.3064 138.95 33.4454C138.071 33.5845 136.963 36.0508 137.192 38.2976C137.421 40.5443 139.555 44.6573 140.242 45.5721C140.929 46.4869 144.024 46.948 144.024 46.948L142.045 35.5019Z" fill="#FBB18F"/>
<path d="M184.304 35.5019C184.304 35.5019 186.52 33.3064 187.399 33.4454C188.278 33.5845 189.386 36.0508 189.157 38.2976C188.928 40.537 186.793 44.6573 186.106 45.5721C185.419 46.4869 182.324 46.948 182.324 46.948L184.304 35.5019Z" fill="#FBB18F"/>
<path d="M163.17 4.12036C171.081 4.12036 177.419 6.7111 182.472 13.1148C187.524 19.5184 186.291 29.5228 185.057 37.5072C185.057 37.5072 182.597 48.9899 181.903 51.4123C181.209 53.8347 180.699 54.8007 177.885 57.4939C175.07 60.1871 168.592 64.2196 167.573 64.9222C166.553 65.6247 164.928 65.8077 163.17 65.8077C161.412 65.8077 159.787 65.6247 158.768 64.9222C157.749 64.2196 151.271 60.1944 148.456 57.4939C145.642 54.7934 145.132 53.8347 144.438 51.4123C143.744 48.9899 141.284 37.5072 141.284 37.5072C140.05 29.5154 138.824 19.5184 143.869 13.1148C148.914 6.7111 155.267 4.12036 163.17 4.12036Z" fill="#F7A491"/>
<path d="M174.524 31.5499C172.404 31.6085 170.75 32.2744 169.944 32.7282C169.139 33.1819 169.287 34.3236 169.287 34.3236C169.287 34.3236 171.348 33.16 174.842 32.7209C178.144 32.3037 179.51 32.7501 179.51 32.7501C179.51 32.7501 177.841 31.4548 174.524 31.5499Z" fill="#272936"/>
<path d="M170.121 38.0415C171.554 38.5903 172.965 38.9855 174.479 38.744C175.986 38.5025 177.161 37.5584 177.478 37.1559L178.882 37.0461C178.882 37.0461 177.419 39.0002 175.129 39.4246C172.492 39.915 170.786 38.8465 170.121 38.0415Z" fill="#272936"/>
<path d="M151.825 31.5499C153.945 31.6085 155.599 32.2744 156.405 32.7282C157.21 33.1819 157.062 34.3236 157.062 34.3236C157.062 34.3236 155.001 33.16 151.507 32.7209C148.205 32.3037 146.839 32.7501 146.839 32.7501C146.839 32.7501 148.508 31.4548 151.825 31.5499Z" fill="#272936"/>
<path d="M156.227 38.0415C154.794 38.5903 153.383 38.9855 151.869 38.744C150.362 38.5025 149.188 37.5584 148.87 37.1559L147.467 37.0461C147.467 37.0461 148.929 39.0002 151.219 39.4246C153.856 39.915 155.563 38.8465 156.227 38.0415Z" fill="#272936"/>
<path d="M164.234 50.2413C164.234 50.2413 164.463 49.3924 164.766 49.3265C165.069 49.2606 165.261 49.4509 165.32 49.6119C165.379 49.7729 165.121 49.9632 164.847 50.1388C164.574 50.3145 164.234 50.2413 164.234 50.2413Z" fill="#F09D82"/>
<path d="M162.978 50.3876C162.978 50.3876 162.779 49.6704 162.594 49.3923C162.41 49.1142 162.055 49.0118 162.026 48.5653C162.003 48.1189 162.306 43.3253 162.306 43.3253C162.306 43.3253 161.058 48.3312 160.969 48.6605C160.873 48.9898 161.014 49.5387 161.228 49.7802C161.457 50.0217 162.247 50.2632 162.978 50.3876Z" fill="#F09D82"/>
<path d="M159.44 56.0156C159.44 56.0156 162.092 56.1766 164.397 55.8619C166.701 55.5472 168.947 54.6617 168.947 54.4568C168.954 54.2518 169.028 54.2884 169.191 54.2958C169.346 54.3031 169.368 54.5446 169.264 54.7641C169.168 54.9837 166.524 56.0083 164.374 56.2644C161.841 56.5572 159.647 56.2937 159.455 56.2571C159.263 56.2278 159.056 56.0083 159.174 55.9351C159.3 55.8546 159.448 55.8619 159.44 56.0156Z" fill="#F09D82"/>
<path d="M138.551 25.0731C138.506 35.78 141.653 38.8318 141.653 38.8318C141.653 38.8318 142.089 33.0575 142.155 32.633C142.215 32.2086 144.01 30.7449 144.261 30.4375C144.504 30.1301 144.911 29.6764 145.029 29.0616C145.154 28.4542 146.196 23.2654 146.262 23.0239C146.322 22.7824 150.694 16.8032 150.694 16.8032C150.694 16.8032 149.32 18.8158 148.855 22.2628C150.672 21.5895 151.965 20.7039 151.965 20.7039C150.362 23.9972 149.653 26.7417 149.653 26.7417C156.087 26.2221 164.67 21.3406 164.67 21.3406C163.806 23.4484 163.178 25.7903 163.178 25.7903C166.945 23.8655 172.825 19.05 173.504 17.5277C173.748 18.9036 175.225 22.7751 175.225 22.7751C175.225 22.7751 176.363 20.7625 176.392 18.4425C176.392 18.4425 180.765 22.7751 180.824 23.0166C180.884 23.2581 181.932 28.4469 182.058 29.0543C182.184 29.6617 182.582 30.1228 182.826 30.4302C183.07 30.7375 184.215 32.2012 184.274 32.6257C184.333 33.0502 184.776 38.8245 184.776 38.8245C184.776 38.8245 188.063 35.4945 187.879 25.0657C187.82 21.648 186.431 17.6595 186.431 17.6595C187.509 18.0254 187.886 17.9668 187.886 17.9668C187.886 17.9668 184.865 12.3536 180.647 8.84802C180.957 6.7769 179.968 3.78365 179.968 3.78365C179.968 3.78365 179.015 5.24734 178.645 6.13287C177.478 3.90806 173.903 1.3466 171.347 0C171.347 0 171.658 1.7052 171.931 2.59074C168.393 1.12704 164.884 0.0878216 160.541 0.790394C156.197 1.49297 148.877 1.85889 148.877 1.85889C148.877 1.85889 149.121 3.32258 150.85 4.11298C147.651 5.67181 143.588 8.78216 141.491 10.9777C139.4 13.1732 135.485 19.7891 135.485 19.7891C135.485 19.7891 137.731 19.2402 138.625 18.6914C138.632 18.6987 138.566 20.0672 138.551 25.0731Z" fill="#272936"/>
<path d="M244.689 188.45C245.745 182.442 242.946 176.799 241.092 174.721C239.238 172.643 233.506 171.772 230.965 171.391C228.424 171.011 202.644 168.632 201.736 168.303C200.827 167.973 200.155 167.637 199.239 167.593C198.331 167.549 197.37 168.017 197.37 168.017H129.111C129.111 168.017 128.15 167.542 127.242 167.593C126.333 167.644 125.661 167.973 124.745 168.303C123.836 168.639 98.0572 171.011 95.5162 171.391C92.9752 171.772 87.2431 172.643 85.3891 174.721C83.5351 176.799 80.7355 182.442 81.7918 188.45C81.7918 188.45 88.5136 200.262 112.956 200.262C137.398 200.262 180.78 200.262 197.74 200.262C214.699 200.255 238.189 197.145 244.689 188.45Z" fill="#242733"/>
<path d="M187.997 213.48C187.997 213.48 172.308 214.241 159.832 214.241C147.356 214.241 127.87 214.241 123.711 214.241C119.553 214.241 114.242 213.955 113.089 213.86C111.937 213.765 109.573 214.46 108.672 214.651C107.778 214.841 106.626 215.002 106.626 214.065C106.626 213.128 106.626 208.371 113.732 208.181C115.719 205.832 120.195 204.5 124.036 205.071C127.877 205.642 131.334 205.642 134.784 204.375C138.241 203.109 141.949 199.875 144.704 200.065C147.452 200.255 148.863 202.034 148.863 202.034C153.664 201.397 178.298 195.945 185.404 192.337L187.997 213.48Z" fill="#FAAC8F"/>
<path d="M185.847 196.018L185.396 192.329C178.291 195.945 153.656 201.397 148.855 202.026C148.855 202.026 147.444 200.255 144.696 200.058C141.941 199.867 138.233 203.102 134.776 204.368C131.319 205.634 127.862 205.634 124.028 205.063C120.187 204.492 115.711 205.824 113.724 208.174C106.618 208.364 106.618 213.121 106.618 214.058C106.618 214.994 107.77 214.833 108.664 214.643C109.558 214.453 111.929 213.758 113.081 213.853C114.234 213.948 119.545 214.233 123.703 214.233C126.148 214.233 133.912 214.233 142.421 214.233C165.844 207.303 184.968 197.606 184.968 197.606L185.847 196.018Z" fill="#F7A491"/>
<path d="M239.902 174.955C243.167 177.692 247.503 183.291 247.134 189.46C246.757 195.63 244.349 198.594 238.351 202.495C232.346 206.395 215.63 211.899 187.996 213.472C185.655 207.903 184.34 196.318 185.167 192.263C194.164 188.582 213.946 178.915 218.141 177.385C222.337 175.848 229.118 176.507 231.26 175.929C233.402 175.35 238.019 173.374 239.902 174.955Z" fill="#2F3342"/>
<path d="M137.842 208.562C161.649 205.012 182.191 198.067 193.035 192.549C203.878 187.031 206.951 184.513 208.776 183.035C210.6 181.564 213.525 179.8 215.017 178.944C216.502 178.087 218.282 177.992 218.326 177.422C218.378 176.851 218.326 174.853 216.266 174.048C214.205 173.243 211.42 173.953 210.408 174.714C208.679 174.048 205.274 173.477 202.682 174.948C200.089 176.419 197.932 178.278 193.559 180.034C189.194 181.791 183.144 182.171 179.931 182.127C176.718 182.083 175.129 182.127 173.261 184.03C171.392 185.933 171.776 188.882 172.16 189.973C166.302 191.4 151.042 191.78 137.842 187.118V208.562Z" fill="#F7A491"/>
<path d="M85.574 174.531C82.4938 177.465 78.5198 183.328 79.288 189.46C80.0562 195.593 82.6489 198.396 88.8906 201.916C95.1323 205.437 110.652 212.872 137.849 208.562C139.836 202.853 138.935 191.129 137.849 187.133C128.631 184.023 111.737 176.858 107.453 175.592C103.162 174.326 96.4471 175.402 94.268 174.955C92.089 174.516 87.3542 172.833 85.574 174.531Z" fill="#2F3342"/>
<path d="M163.17 89.717C175.801 88.0118 182.811 76.1266 182.811 76.1266C182.811 76.1266 183.284 75.9583 184.022 76.1266C184.761 76.295 200.923 83.5695 201.152 83.6647C201.381 83.7598 201.935 83.8037 201.662 85.2235C201.388 86.6433 194.733 116.92 194.733 116.92C194.452 131.469 195.383 165.858 195.383 165.858L197.045 168.054C197.045 168.054 189.717 178.849 163.177 178.849C136.637 178.849 129.31 168.054 129.31 168.054L130.972 165.858C130.972 165.858 131.895 131.462 131.622 116.92C131.622 116.92 124.974 86.6433 124.693 85.2235C124.412 83.8037 124.974 83.7598 125.203 83.6647C125.432 83.5695 141.594 76.3023 142.332 76.1266C143.071 75.951 143.544 76.1266 143.544 76.1266C143.544 76.1266 150.539 88.0118 163.17 89.717Z" fill="#724FE4"/>
<path d="M107.955 131.264L118.666 133.035C119.471 132.084 120.394 130.847 121.177 129.8C119.323 129.544 113.458 129.054 107.955 131.264Z" fill="#FBB18F"/>
<path d="M157.667 113.714C157.667 113.714 158.709 109.118 158.923 108.247C159.13 107.377 159.573 106.535 159.868 105.342C160.171 104.149 160.629 102.781 160.651 101.932C160.673 101.083 160.444 100.585 160.954 100.512C161.464 100.446 162.313 100.812 162.712 101.836C163.104 102.868 163.177 104.23 163.177 105.591C163.17 106.974 157.667 113.714 157.667 113.714Z" fill="#FBB18F"/>
<path d="M100.879 135.582C100.879 135.582 105.311 130.7 111.959 130.642C118.607 130.583 124.516 133.203 133.749 132.779C142.983 132.354 151.972 129.976 152.711 129.61C153.449 129.244 153.907 127.81 154.343 126.441C154.779 125.073 155.547 119.796 155.665 119.43C155.791 119.064 156.374 117.966 156.589 117.388C156.803 116.81 158.93 109.155 159.329 108.482C159.728 107.808 160.777 105.642 161.021 104.639C161.264 103.629 161.331 103.3 161.855 103.329C162.38 103.359 163.178 104.456 163.178 105.62C163.178 106.784 163.178 129.193 163.178 131.176C163.178 133.159 162.624 135.414 160.806 137.155C158.989 138.897 155.791 138.743 155.052 139.044C154.314 139.351 134.938 146.391 124.139 147.994C113.34 149.597 106.965 148.682 103.412 147.533C99.8595 146.384 96.5872 142.776 95.7229 141.759C94.8587 140.741 96.5059 137.551 100.879 135.582Z" fill="#F7A491"/>
<path d="M122.699 121.033L126.917 119.906C127.611 118.318 128.106 117.271 128.431 116.795C128.431 116.803 124.487 119.057 122.699 121.033Z" fill="#FBB18F"/>
<path d="M218.393 131.264L207.667 132.947C206.862 131.996 205.983 130.898 205.2 129.844C207.054 129.595 212.89 129.054 218.393 131.264Z" fill="#FBB18F"/>
<path d="M168.68 113.714C168.68 113.714 167.639 109.118 167.425 108.247C167.218 107.377 166.775 106.535 166.479 105.342C166.176 104.149 165.718 102.781 165.696 101.932C165.674 101.083 165.903 100.585 165.393 100.512C164.884 100.446 164.034 100.812 163.635 101.836C163.244 102.868 163.17 104.23 163.17 105.591C163.17 106.974 168.68 113.714 168.68 113.714Z" fill="#FBB18F"/>
<path d="M225.469 135.582C225.469 135.582 221.037 130.7 214.389 130.642C207.741 130.583 201.831 133.203 192.598 132.779C183.365 132.354 174.375 129.976 173.637 129.61C172.898 129.244 172.44 127.81 172.004 126.441C171.569 125.073 170.8 119.796 170.682 119.43C170.557 119.064 169.973 117.966 169.759 117.388C169.545 116.81 167.417 109.155 167.018 108.482C166.619 107.808 165.571 105.642 165.327 104.639C165.083 103.629 165.017 103.3 164.492 103.329C163.968 103.359 163.17 104.456 163.17 105.62C163.17 106.784 163.17 129.193 163.17 131.176C163.17 133.159 163.724 135.414 165.541 137.155C167.358 138.897 170.557 138.743 171.295 139.044C172.034 139.351 191.409 146.391 202.208 147.994C213.007 149.597 219.382 148.682 222.935 147.533C226.488 146.391 229.76 142.776 230.625 141.759C231.489 140.741 229.834 137.551 225.469 135.582Z" fill="#F7A491"/>
<path d="M203.648 121.033L199.46 119.972C198.766 118.384 198.16 117 197.82 116.686C197.82 116.693 201.861 119.057 203.648 121.033Z" fill="#FBB18F"/>
</svg>
