<svg width="328" height="304" viewBox="0 0 328 304" fill="none" xmlns="http://www.w3.org/2000/svg">
<g opacity="0.38">
<path opacity="0.38" d="M322.821 168.218C318.65 147.31 309.805 126.731 293.869 111.005C285.08 102.328 274.266 95.2487 266.578 85.7875C258.348 75.658 254.196 63.4465 248.458 52C246.499 88.7604 233.436 125.259 210.399 156.258C176.763 201.511 122.302 234.466 62.6436 245.651C45.7183 248.827 27.9626 250.222 11 248.236C12.2503 251.374 13.5659 254.483 14.9747 257.562C20.405 269.512 26.9829 281.123 35.6882 291.417L252.731 294.855C280.601 287.447 303.115 267.304 314.732 243.685C326.348 220.056 327.841 193.348 322.821 168.218Z" fill="#CFD7F0"/>
</g>
<path d="M89.8518 7.69878C51.9518 25.5754 27.2356 60.2635 13.7999 96.2299C-5.16878 147.003 -4.51565 203.025 15.3767 252.907C32.33 254.892 50.095 253.488 67.0203 250.322C126.688 239.127 181.14 206.182 214.776 160.929C237.813 129.93 250.885 93.4312 252.835 56.6707C252.154 55.315 251.463 53.9689 250.726 52.6422C237.02 27.7834 211.51 8.3476 181.616 0" fill="#F1F4FF"/>
<path opacity="0.27" d="M258.433 291.546C258.433 298.422 209.028 303.99 148.082 303.99C87.1363 303.99 37.7319 298.422 37.7319 291.546C37.7319 284.671 87.1363 279.103 148.082 279.103C209.028 279.103 258.433 284.671 258.433 291.546Z" fill="#93A9D8"/>
<path d="M265.225 195.103C265.598 194.59 264.759 194.087 264.395 194.6L265.225 195.103Z" fill="#37996F"/>
<path d="M146.114 83.5537C146.767 85.568 147.747 89.3641 146.702 91.1944C145.657 93.0247 144.882 94.3998 139.331 95.3972C140.338 98.3412 144.117 107.086 146.953 108.132C149.79 109.178 154.39 109.013 156.89 107.28C158.383 106.243 161.201 97.0823 162.423 95.7265C159.531 95.2713 156.76 93.8284 155.948 91.7754C155.127 89.7127 155.202 87.2917 156.153 85.2871" fill="#F3885B"/>
<g opacity="0.5">
<path opacity="0.5" d="M141.533 95.0196C146.394 94.8356 154.399 93.78 155.453 87.5435C155.649 86.3621 155.836 85.4808 156.498 84.9095L146.114 83.5537C146.767 85.568 147.747 89.3641 146.702 91.1944C145.657 93.0247 144.882 94.3998 139.331 95.3972C139.349 95.4553 139.377 95.5328 139.405 95.6006C140.04 95.2617 140.758 95.0486 141.533 95.0196Z" fill="#E06338"/>
</g>
<path d="M165.026 134.675C165.026 134.675 162.358 143.788 167.984 152.01C167.984 152.01 153.391 159.457 135.944 152.01C135.944 152.01 139.359 146.151 136.615 130.898" fill="#F3885B"/>
<path opacity="0.5" d="M140.161 153.54C141.57 146.741 145.209 140.602 150.462 136.234C151.871 135.063 153.363 134.123 154.903 133.329L136.615 130.898C139.359 146.151 135.944 152.01 135.944 152.01C137.371 152.62 138.78 153.114 140.161 153.54Z" fill="#E06338"/>
<path d="M153.009 10.8848C153.82 16.8696 156.377 25.5561 160.65 29.8848C164.933 34.2136 178.406 54.734 179.544 57.6392C180.683 60.5444 178.994 79.6122 175.719 91.6881C173.246 100.81 168.339 108.877 167.769 116.847C167.2 124.817 158.327 114.048 160.604 98.7284C160.604 98.7284 163.692 90.5551 166.687 85.0255C169.682 79.496 170.708 64.1759 169.729 61.7355C168.59 58.9078 153.652 31.4246 153.652 31.4246C153.652 31.4246 149.342 29.1876 149.79 25.7788C150.247 22.3701 150.387 7.7085 150.387 7.7085" fill="#F3885B"/>
<path opacity="0.5" d="M164.896 45.8149C163.888 44.4495 162.852 43.1034 161.938 41.6605C159.186 37.9709 157.338 33.8067 154.8 29.9719C152.253 26.1273 150.994 23.1253 150.191 18.8159C150.098 21.7986 149.976 24.5488 149.809 25.7884C149.351 29.1972 153.671 31.4342 153.671 31.4342C153.671 31.4342 168.6 58.9173 169.748 61.7451C169.757 61.7548 169.757 61.7741 169.766 61.7935C170.027 56.477 168.964 51.2864 165.484 46.7542C165.232 46.4444 165.054 46.1345 164.896 45.8149Z" fill="#E06338"/>
<path opacity="0.5" d="M179.554 57.6392C179.404 57.2712 179.059 56.603 178.555 55.7314C179.47 62.3456 178.667 69.2794 176.717 75.9129C174.534 83.3115 170.718 90.0806 168.479 97.4888C166.314 104.645 166.407 111.463 167.34 118.755C167.564 118.309 167.723 117.69 167.788 116.837C168.357 108.868 173.265 100.801 175.738 91.6784C178.994 79.6219 180.692 60.5444 179.554 57.6392Z" fill="#E06338"/>
<path d="M148.465 11.2139C147.653 17.1987 145.097 25.8852 140.823 30.2139C136.541 34.5427 123.068 55.0631 121.929 57.9683C120.791 60.8735 122.48 79.9413 125.755 92.0172C128.227 101.14 133.135 109.206 133.704 117.176C134.273 125.146 143.147 114.378 140.87 99.0575C140.87 99.0575 137.782 90.8842 134.787 85.3546C131.792 79.8251 130.765 64.505 131.745 62.0646C132.883 59.2369 147.821 31.7537 147.821 31.7537C147.821 31.7537 152.132 29.5167 151.684 26.1079C151.227 22.6992 151.087 8.0376 151.087 8.0376" fill="#F3885B"/>
<path opacity="0.5" d="M136.578 46.144C137.586 44.7786 138.621 43.4325 139.536 41.9896C142.288 38.3 144.136 34.1358 146.673 30.301C149.221 26.4564 150.48 23.4544 151.283 19.145C151.376 22.1277 151.497 24.8779 151.665 26.1175C152.122 29.5263 147.802 31.7633 147.802 31.7633C147.802 31.7633 132.874 59.2464 131.726 62.0742C131.717 62.0839 131.717 62.1032 131.708 62.1226C131.446 56.8061 132.51 51.6155 135.99 47.0833C136.242 46.7735 136.419 46.4636 136.578 46.144Z" fill="#E06338"/>
<path opacity="0.5" d="M121.92 57.9683C122.069 57.6003 122.415 56.9321 122.918 56.0605C122.004 62.6747 122.807 69.6085 124.757 76.242C126.94 83.6406 130.756 90.4097 132.995 97.8179C135.16 104.974 135.067 111.792 134.134 119.084C133.91 118.639 133.751 118.019 133.686 117.167C133.117 109.197 128.209 101.13 125.736 92.0075C122.48 79.9413 120.782 60.8735 121.92 57.9683Z" fill="#E06338"/>
<path d="M149.557 285.281C149.109 288.68 149.323 290.384 147.457 295.062C147.159 295.817 146.729 297.454 147.644 298.567C148.054 299.061 148.698 299.594 149.911 299.768C154.819 300.475 160.044 299.816 164.821 301.25C167.312 301.995 169.943 302.141 172.435 301.482C173.153 301.288 173.2 300.223 172.5 299.962C171.436 299.565 170.167 299.632 168.964 299.245C165.437 298.122 161.854 296.747 159.12 294.016C156.386 291.285 154.688 286.869 155.855 282.966" fill="#F3885B"/>
<path d="M139.107 185.245C140.721 185.487 142.064 183.976 143.296 182.776C144.528 181.575 146.45 180.597 147.681 181.798C148.148 182.253 148.39 182.931 148.53 183.599C148.997 185.758 148.624 188.024 148.521 190.252C148.222 196.769 150.238 203.248 149.65 209.736C146.972 206.337 146.646 201.33 144.444 197.534C143.007 195.055 140.851 193.225 138.743 191.443" fill="#F3885B"/>
<path d="M167.713 115.646C167.713 115.646 159.997 102.931 161.817 95.6199L158.663 94.4966C158.663 94.4966 159.223 106.05 151.684 108.083C150.844 108.306 149.948 108.306 149.109 108.083C141.663 106.04 143.072 94.4385 143.072 94.4385L139.769 95.3197C141.588 102.631 133.872 115.637 133.872 115.637C132.557 121.118 137.194 134.685 137.194 134.685L150.714 135.063V135.073L150.965 135.063L165.026 134.656C165.026 134.675 169.029 121.128 167.713 115.646Z" fill="url(#paint0_linear_4323_20033)"/>
<path d="M146.636 124.275C141.495 117.448 140.87 108.848 139.816 100.53C138.687 107.541 133.882 115.646 133.882 115.646C132.566 121.128 137.203 134.695 137.203 134.695L150.723 135.073V135.082L150.975 135.073L165.036 134.666C165.036 134.666 165.176 134.191 165.39 133.407C158.15 133.32 151.339 130.511 146.636 124.275Z" fill="url(#paint1_linear_4323_20033)"/>
<path d="M173.265 176.936C172.808 167.601 172.574 167.504 170.522 158.45C169.85 155.467 168.59 151.816 167.088 149.618C166.482 148.727 165.726 149.647 164.765 149.928C156.256 152.358 147.215 152.378 138.705 149.986C137.698 149.705 136.802 148.795 136.419 149.879C134.954 153.995 133.527 154.653 132.202 155.554C131.941 155.728 131.297 156.038 130.886 156.348L126.025 159.447C124.654 160.328 123.207 161.093 121.715 161.732C117.133 163.698 112.599 165.79 108.26 168.356C101.626 172.278 95.403 177.362 90.9244 184.112C90.3926 184.916 89.8794 185.749 89.5715 186.688C88.4985 189.932 90.206 193.699 92.7811 195.597C95.7575 197.786 99.5923 197.97 103.082 197.873C105.648 197.796 108.214 197.554 110.751 197.186C117.236 196.256 123.721 195.317 130.215 194.387C133.713 193.883 134.488 193.612 138.015 193.661C138.612 193.67 140.133 193.612 140.487 193.389C141.047 193.031 140.973 192.721 140.973 191.995C140.963 189.7 141.318 187.85 141.308 185.555C141.308 185.274 141.42 184.141 141.271 183.909C141.122 183.686 140.469 183.618 140.226 183.58C138.444 183.318 133.256 183.318 131.857 183.047C133.191 182.911 134.497 183.686 140.786 181.139C142.736 180.355 144.658 179.27 146.449 178.06C146.589 178.311 146.72 178.573 146.832 178.854C147.271 179.938 147.401 181.149 147.522 182.33C149.249 199.49 149.127 216.815 148.997 234.082C148.866 251.813 148.735 269.544 148.605 287.276C148.605 287.702 148.922 288.07 149.342 288.07C151.702 288.118 154.166 287.702 155.864 287.537C157.067 287.421 156.965 283.402 157.189 282.114C158.299 275.597 160.426 268.547 161.537 262.03C162.376 257.11 163.496 253.798 163.785 248.801C164.019 244.695 163.888 240.57 164.242 236.474C164.644 231.845 165.679 227.312 166.706 222.8C167.825 217.89 169.253 213.048 170.065 208.061C172.463 193.322 173.694 185.662 173.265 176.936Z" fill="#003236"/>
<path d="M104.164 171.93C108.848 169.964 113.821 169.112 118.514 167.213C123.198 165.315 128.106 163.437 132.631 161.171C135.468 159.757 140.487 155.786 140.786 152.097C140.832 151.545 140.954 151.041 141.122 150.586C140.31 150.402 139.508 150.208 138.705 149.986C137.697 149.705 136.802 148.795 136.419 149.879C134.954 153.995 133.527 154.653 132.202 155.554C131.941 155.728 131.297 156.038 130.886 156.348L126.025 159.447C124.654 160.328 123.207 161.093 121.715 161.732C117.133 163.698 112.599 165.79 108.26 168.356C105.694 169.867 103.212 171.571 100.852 173.46C101.934 172.917 103.035 172.404 104.164 171.93Z" fill="#002021"/>
<path d="M152.542 198.958C151.954 193.235 151.413 182.224 146.72 178.234C146.571 178.108 146.44 177.982 146.309 177.847C146.253 177.992 146.179 178.137 146.114 178.273C146.225 178.195 146.337 178.128 146.449 178.06C146.589 178.312 146.72 178.573 146.832 178.854C147.27 179.938 147.401 181.139 147.522 182.33C149.249 199.49 149.127 216.815 148.997 234.082C148.875 249.799 148.763 265.506 148.642 281.214C153.746 264.054 153.96 246.119 153.606 228.184C153.429 218.471 153.541 208.632 152.542 198.958Z" fill="#002021"/>
<path d="M140.226 183.58C138.444 183.318 133.256 183.318 131.857 183.047C133.191 182.912 134.497 183.686 140.786 181.139C142.419 180.481 144.024 179.609 145.563 178.631C145.544 178.418 145.544 178.224 145.554 178.031C142.102 178.467 138.612 178.35 135.132 178.902C131.521 179.474 127.919 180.055 124.29 180.491C117.777 181.275 107.691 181.149 102.457 186.01C102.438 186.03 102.41 186.059 102.373 186.107C104.948 189.584 119.494 188.819 122.06 188.877C128.414 189.022 134.768 189.061 141.122 189.167C141.215 187.996 141.318 186.843 141.318 185.555C141.318 185.274 141.43 184.141 141.28 183.909C141.122 183.686 140.469 183.609 140.226 183.58Z" fill="#002021"/>
<path d="M164.588 73.8211C164.457 73.1916 164.168 72.5331 163.617 72.2329C162.992 71.894 162.255 72.107 161.63 72.5137C161.63 69.1147 160.958 65.7059 159.904 62.5005L140.795 65.9964C140.562 68.0688 140.469 70.1605 140.553 72.2329C140.068 72.0392 139.564 71.9908 139.116 72.2329C138.565 72.5331 138.276 73.1819 138.145 73.8211C137.847 75.293 138.239 76.9006 139.153 78.0724C139.853 78.9536 140.833 79.5831 141.906 79.8639C142.736 82.2946 143.912 84.2023 146.291 86.449C146.953 87.0785 147.802 87.4465 148.605 87.8435C149.696 88.3761 150.853 88.8506 152.048 88.7344C152.887 88.6473 153.671 88.2696 154.399 87.8145C157.161 86.0907 159.195 83.2146 160.389 79.9607C161.621 79.7574 162.787 79.0795 163.58 78.082C164.494 76.9006 164.886 75.293 164.588 73.8211Z" fill="#F3885B"/>
<path d="M162.796 76.639C163.058 74.1889 163.925 71.8648 164.56 69.5019C165.194 67.1293 165.596 64.5824 164.905 62.2292C164.467 60.7282 163.617 59.3918 162.656 58.191C161.798 57.1064 160.837 56.0992 159.764 55.247C159.885 54.9952 159.997 54.7435 160.109 54.4723C161.248 51.6155 161.499 48.2745 160.305 45.4371C159.409 43.3067 157.73 41.5442 155.677 40.5951C153.634 39.6461 151.245 39.5299 149.118 40.2659C146.002 41.3505 143.613 44.217 142.652 47.4805C141.803 50.3566 141.99 53.4942 142.876 56.3704C141.253 57.4259 140.058 59.1206 139.349 60.9703C138.668 62.7424 138.407 64.6889 138.575 66.587C138.677 67.7491 138.948 68.9015 139.107 70.0539C139.153 70.3928 139.228 70.7317 139.302 71.0707C139.181 73.2689 139.48 75.4963 139.564 77.7042C139.685 81.0936 139.256 84.4927 138.313 87.7368C139.051 87.8337 139.554 87.0008 139.825 86.2842C141.337 82.2557 141.71 77.9366 141.644 73.5885C142.717 72.8913 143.576 71.8841 144.5 70.7608C145.89 69.0661 146.897 67.0712 147.821 65.0666C149.146 68.0493 152.113 69.8214 154.968 71.2353C156.9 72.194 158.924 73.1334 160.622 74.4504C160.594 78.6532 160.986 82.8077 162.451 86.7006C162.722 87.4173 163.226 88.2501 163.963 88.1532C163.02 84.9091 162.6 81.5003 162.712 78.1206C162.731 77.6267 162.759 77.1329 162.796 76.639Z" fill="#003236"/>
<path d="M148.465 69.9472C146.375 68.9594 144.21 68.9691 142.745 70.0924C143.958 70.0246 145.227 69.9568 146.356 70.441C146.645 70.5669 146.916 70.7219 147.215 70.809C147.513 70.8962 148.082 71.0318 148.362 70.8768C148.642 70.7219 148.829 70.3055 148.465 69.9472Z" fill="#003236"/>
<path d="M151.758 72.4455C151.581 74.0337 151.917 75.6993 152.859 76.9873C152.971 77.1422 153.083 77.2972 153.214 77.4328C153.307 77.5393 153.261 77.4424 153.223 77.4812C153.158 77.5296 153.083 77.578 153.009 77.6168C152.757 77.7523 152.468 77.8104 152.197 77.8492C151.954 77.8782 151.702 77.8782 151.46 77.8685C151.32 77.8589 151.18 77.8395 151.04 77.8685C150.583 77.9654 150.779 78.682 151.236 78.5948C151.068 78.6336 151.245 78.6142 151.301 78.6142C151.413 78.6239 151.516 78.6239 151.628 78.6239C151.926 78.6239 152.225 78.6045 152.524 78.5561C153.093 78.4593 154.24 78.0622 153.932 77.2584C153.783 76.8711 153.41 76.5612 153.195 76.2126C152.981 75.8543 152.813 75.4766 152.682 75.0699C152.421 74.2274 152.365 73.3364 152.468 72.4552C152.533 71.971 151.814 71.971 151.758 72.4455Z" fill="#E26439"/>
<g opacity="0.5">
<path opacity="0.5" d="M149.137 81.5679C149.753 82.3232 150.723 82.759 151.675 82.7009C152.626 82.6428 153.55 82.1005 154.072 81.2773" fill="#E82D1F"/>
</g>
<path d="M147.746 73.3077C147.345 73.8403 146.561 73.8403 145.974 73.7629C145.274 73.666 144.602 73.3658 144.061 72.901C143.912 72.7751 143.697 72.7461 143.548 72.901C143.417 73.0366 143.398 73.298 143.548 73.4336C144.247 74.034 145.078 74.402 145.974 74.5182C146.748 74.6151 147.737 74.5376 148.26 73.85C148.381 73.6951 148.409 73.4724 148.26 73.3174C148.129 73.1722 147.868 73.1431 147.746 73.3077Z" fill="#E26439"/>
<path d="M157.17 69.2694C156.06 69.1435 154.819 69.3662 153.606 69.9473C153.242 70.3056 153.429 70.722 153.709 70.8769C153.979 71.0319 154.558 70.8963 154.856 70.8092C155.155 70.722 155.435 70.5574 155.715 70.4412C156.191 70.2378 156.704 70.1409 157.217 70.0925C157.17 69.8214 157.161 69.5405 157.17 69.2694Z" fill="#003236"/>
<path d="M158.654 73.104C158.178 73.4623 157.627 73.7044 157.049 73.8303C156.424 73.9659 155.565 74.0337 155.089 73.4914C154.781 73.1331 154.268 73.6657 154.576 74.024C155.201 74.7406 156.246 74.7406 157.095 74.5857C157.879 74.4404 158.616 74.0821 159.241 73.5688C159.027 73.4333 158.831 73.2783 158.654 73.104Z" fill="#E26439"/>
<path opacity="0.35" d="M147.896 78.0524C147.896 79.0305 146.776 79.8246 145.396 79.8246C144.015 79.8246 142.895 79.0305 142.895 78.0524C142.895 77.0744 144.015 76.2803 145.396 76.2803C146.776 76.2803 147.896 77.0744 147.896 78.0524Z" fill="#F44A38"/>
<path opacity="0.35" d="M160.352 78.0524C160.352 79.0305 159.232 79.8246 157.851 79.8246C156.47 79.8246 155.351 79.0305 155.351 78.0524C155.351 77.0744 156.47 76.2803 157.851 76.2803C159.232 76.2803 160.352 77.0744 160.352 78.0524Z" fill="#F44A38"/>
<path d="M141.822 57.1937C140.935 55.5087 144.546 52.8456 146.739 51.8288C148.931 50.812 151.404 50.5505 153.783 50.812C157.599 51.2284 161.555 53.3201 162.908 57.0485C163.123 57.6489 163.188 58.7044 162.88 58.4527C162.61 58.2299 162.171 58.0266 161.845 57.9103C159.213 56.9323 156.452 56.2834 153.671 55.9542C148.026 55.286 146.03 56.1769 141.822 57.1937Z" fill="#FF634D"/>
<path d="M146.282 54.2401C146.897 54.2401 146.897 53.2427 146.282 53.2427C145.656 53.2427 145.656 54.2401 146.282 54.2401Z" fill="#FFFFE4"/>
<path d="M150.686 52.3422C151.301 52.3422 151.301 51.3447 150.686 51.3447C150.061 51.3447 150.061 52.3422 150.686 52.3422Z" fill="#FFFFE4"/>
<path d="M150.583 55.538C151.199 55.538 151.199 54.5405 150.583 54.5405C149.967 54.5405 149.967 55.538 150.583 55.538Z" fill="#FFFFE4"/>
<path d="M154.362 54.1723C154.978 54.1723 154.978 53.1748 154.362 53.1748C153.746 53.1748 153.746 54.1723 154.362 54.1723Z" fill="#FFFFE4"/>
<path d="M156.405 52.4101C157.021 52.4101 157.021 51.4126 156.405 51.4126C155.789 51.4126 155.789 52.4101 156.405 52.4101Z" fill="#FFFFE4"/>
<path d="M156.657 56.6225C157.273 56.6225 157.273 55.625 156.657 55.625C156.041 55.625 156.041 56.6225 156.657 56.6225Z" fill="#FFFFE4"/>
<path d="M158.607 54.8891C159.223 54.8891 159.223 53.8916 158.607 53.8916C157.991 53.8916 157.991 54.8891 158.607 54.8891Z" fill="#FFFFE4"/>
<path d="M161.248 57.1747C161.863 57.1747 161.863 56.1772 161.248 56.1772C160.632 56.1772 160.632 57.1747 161.248 57.1747Z" fill="#FFFFE4"/>
<path d="M143.79 56.0316C144.406 56.0316 144.406 55.0342 143.79 55.0342C143.175 55.0342 143.175 56.0316 143.79 56.0316Z" fill="#FFFFE4"/>
<path d="M76.8261 244.182C73.038 246.099 71.2186 250.273 70.1923 254.282C70.1549 254.437 70.3882 254.505 70.4255 254.35C71.4332 250.389 73.2153 246.283 76.9474 244.395C77.0874 244.327 76.9661 244.114 76.8261 244.182Z" fill="#F6F8FE"/>
<path d="M76.8543 244.046C76.1452 244.211 75.884 245.199 75.6414 245.799C75.2402 246.787 74.9416 247.813 74.7177 248.859C74.2791 250.922 74.1299 253.043 74.0925 255.154C74.0925 255.318 74.3258 255.318 74.3351 255.154C74.3631 253.256 74.4844 251.358 74.8296 249.498C74.9976 248.607 75.2122 247.716 75.5014 246.855C75.66 246.37 75.8373 245.906 76.0426 245.441C76.2292 245.024 76.4251 244.385 76.9196 244.279C77.0689 244.25 77.0036 244.007 76.8543 244.046Z" fill="#F6F8FE"/>
<path d="M76.7329 244.173C72.7489 245.044 69.11 247.291 66.4695 250.506C66.3669 250.632 66.5348 250.806 66.6375 250.681C69.2593 247.494 72.8422 245.277 76.7982 244.405C76.9475 244.376 76.8822 244.134 76.7329 244.173Z" fill="#F6F8FE"/>
<path d="M81.2024 241.654C84.2255 238.604 88.6201 238.236 92.6042 238.594C92.7628 238.604 92.7441 238.856 92.5855 238.846C88.6574 238.497 84.3281 238.846 81.3517 241.848C81.2491 241.955 81.0905 241.761 81.2024 241.654Z" fill="#F6F8FE"/>
<path d="M81.0715 241.635C81.4541 240.996 82.4431 241.073 83.0775 241.044C84.1039 240.986 85.1396 241.044 86.1659 241.18C88.1906 241.451 90.1593 242.022 92.0907 242.71C92.24 242.758 92.156 243.001 92.0067 242.942C90.2806 242.332 88.5172 241.8 86.7071 241.509C85.8393 241.374 84.9623 241.287 84.0852 241.267C83.6 241.257 83.1055 241.277 82.6204 241.316C82.1725 241.354 81.538 241.335 81.2674 241.771C81.1835 241.916 80.9875 241.771 81.0715 241.635Z" fill="#F6F8FE"/>
<defs>
<linearGradient id="paint0_linear_4323_20033" x1="136.122" y1="94.4385" x2="166.242" y2="130.265" gradientUnits="userSpaceOnUse">
<stop stop-color="#4F14A0"/>
<stop offset="1" stop-color="#8066FF"/>
</linearGradient>
<linearGradient id="paint1_linear_4323_20033" x1="135.944" y1="100.53" x2="161.107" y2="133.065" gradientUnits="userSpaceOnUse">
<stop stop-color="#4F14A0"/>
<stop offset="1" stop-color="#8066FF"/>
</linearGradient>
</defs>
</svg>
