<svg width="329" height="231" viewBox="0 0 329 231" fill="none" xmlns="http://www.w3.org/2000/svg">
<path d="M0 227.904L62.5425 199.765C66.3318 198.059 72.8321 196.662 76.9907 196.662H249.343C253.501 196.662 260.002 198.059 263.791 199.765L326.341 227.904C330.13 229.609 329.827 231.007 325.669 231.007H0.672182" fill="#DDE3F3"/>
<path d="M163.17 220.11C209.587 220.11 247.215 216.178 247.215 211.328C247.215 206.478 209.587 202.546 163.17 202.546C116.754 202.546 79.1255 206.478 79.1255 211.328C79.1255 216.178 116.754 220.11 163.17 220.11Z" fill="#DDE3F3"/>
<path d="M228.239 133.064C227.456 131.323 226.208 127.48 222.655 120.623C219.102 113.766 214.205 107.816 213.237 105.847C212.269 103.878 210.142 97.3869 205.156 91.3491C200.17 85.3114 193.98 82.062 190.841 80.5105C187.701 78.959 178.055 73.514 175.698 71.9113C173.342 70.3085 173.202 68.2081 173.202 65.1856C173.202 62.1631 173.756 55.3423 173.756 55.3423H152.571C152.571 55.3423 153.125 62.1631 153.125 65.1856C153.125 68.2081 152.984 70.3085 150.628 71.9113C148.272 73.514 138.625 78.959 135.485 80.5105C132.346 82.062 126.156 85.3114 121.17 91.3491C116.184 97.3869 114.057 103.878 113.089 105.847C112.122 107.816 107.224 113.758 103.671 120.623C100.118 127.488 98.87 131.33 98.087 133.064C97.304 134.799 94.763 138.553 95.3613 140.383C95.9596 142.212 100.628 145.001 106.168 144.503C111.708 144.005 117.159 134.623 117.159 134.623C119.974 131.652 123.578 126.756 125.144 123.689C126.71 120.623 127.914 117.242 128.512 116.693C130.13 115.185 133.358 112.302 133.358 112.302H192.953C192.953 112.302 196.189 115.185 197.799 116.693C198.397 117.242 199.601 120.63 201.167 123.689C202.733 126.749 206.338 131.652 209.152 134.623C209.152 134.623 214.604 143.998 220.143 144.503C225.683 145.008 230.344 142.212 230.95 140.383" fill="#F7A491"/>
<path d="M152.585 55.3423C152.585 55.3423 153.139 62.1631 153.139 65.1856C153.139 65.7272 153.132 66.2395 153.11 66.7225C155.651 68.5082 158.17 70.089 158.775 70.5061C159.795 71.2087 161.42 71.3917 163.178 71.3917C164.928 71.3917 166.561 71.2087 167.58 70.5061C168.186 70.089 170.705 68.5082 173.246 66.7225C173.224 66.2395 173.216 65.7272 173.216 65.1856C173.216 62.1631 173.77 55.3423 173.77 55.3423H152.585Z" fill="#FBB18F"/>
<path d="M142.045 35.5018C142.045 35.5018 139.829 33.3063 138.95 33.4453C138.071 33.5844 136.963 36.0507 137.192 38.2974C137.421 40.5442 139.555 44.6572 140.242 45.572C140.929 46.4868 144.024 46.9479 144.024 46.9479L142.045 35.5018Z" fill="#FBB18F"/>
<path d="M184.304 35.5018C184.304 35.5018 186.52 33.3063 187.399 33.4453C188.278 33.5844 189.386 36.0507 189.157 38.2974C188.928 40.5369 186.793 44.6572 186.106 45.572C185.419 46.4868 182.324 46.9479 182.324 46.9479L184.304 35.5018Z" fill="#FBB18F"/>
<path d="M163.17 4.12012C171.081 4.12012 177.419 6.71085 182.472 13.1145C187.524 19.5182 186.291 29.5225 185.057 37.507C185.057 37.507 182.597 48.9896 181.903 51.412C181.209 53.8344 180.699 54.8005 177.885 57.4937C175.07 60.1869 168.592 64.2193 167.573 64.9219C166.553 65.6245 164.928 65.8074 163.17 65.8074C161.412 65.8074 159.787 65.6245 158.768 64.9219C157.749 64.2193 151.271 60.1942 148.456 57.4937C145.642 54.7932 145.132 53.8344 144.438 51.412C143.744 48.9896 141.284 37.507 141.284 37.507C140.05 29.5152 138.824 19.5182 143.869 13.1145C148.914 6.71085 155.267 4.12012 163.17 4.12012Z" fill="#F7A491"/>
<path d="M174.524 31.5499C172.404 31.6085 170.749 32.2744 169.944 32.7282C169.139 33.1819 169.287 34.3236 169.287 34.3236C169.287 34.3236 171.347 33.16 174.841 32.7209C178.143 32.3037 179.51 32.7501 179.51 32.7501C179.51 32.7501 177.84 31.4548 174.524 31.5499Z" fill="#272936"/>
<path d="M170.121 38.0412C171.554 38.5901 172.965 38.9853 174.479 38.7438C175.986 38.5023 177.161 37.5582 177.478 37.1557L178.882 37.0459C178.882 37.0459 177.419 38.9999 175.129 39.4244C172.492 39.9147 170.786 38.8462 170.121 38.0412Z" fill="#272936"/>
<path d="M151.825 31.5499C153.945 31.6085 155.599 32.2744 156.404 32.7282C157.209 33.1819 157.062 34.3236 157.062 34.3236C157.062 34.3236 155.001 33.16 151.507 32.7209C148.205 32.3037 146.839 32.7501 146.839 32.7501C146.839 32.7501 148.508 31.4548 151.825 31.5499Z" fill="#272936"/>
<path d="M156.227 38.0412C154.794 38.5901 153.383 38.9853 151.869 38.7438C150.362 38.5023 149.188 37.5582 148.87 37.1557L147.467 37.0459C147.467 37.0459 148.929 38.9999 151.219 39.4244C153.856 39.9147 155.562 38.8462 156.227 38.0412Z" fill="#272936"/>
<path d="M164.234 50.2412C164.234 50.2412 164.463 49.3922 164.766 49.3264C165.069 49.2605 165.261 49.4508 165.32 49.6118C165.379 49.7728 165.121 49.9631 164.847 50.1387C164.574 50.3144 164.234 50.2412 164.234 50.2412Z" fill="#F09D82"/>
<path d="M162.978 50.3875C162.978 50.3875 162.779 49.6703 162.594 49.3922C162.41 49.1141 162.055 49.0116 162.026 48.5652C162.003 48.1188 162.306 43.3252 162.306 43.3252C162.306 43.3252 161.058 48.331 160.969 48.6604C160.873 48.9897 161.014 49.5386 161.228 49.7801C161.457 50.0216 162.247 50.2631 162.978 50.3875Z" fill="#F09D82"/>
<path d="M159.44 56.0156C159.44 56.0156 162.092 56.1766 164.397 55.8619C166.701 55.5472 168.947 54.6617 168.947 54.4568C168.954 54.2518 169.028 54.2884 169.191 54.2958C169.346 54.3031 169.368 54.5446 169.264 54.7641C169.168 54.9837 166.524 56.0083 164.374 56.2644C161.841 56.5572 159.647 56.2937 159.455 56.2571C159.263 56.2278 159.056 56.0083 159.174 55.9351C159.3 55.8546 159.448 55.8619 159.44 56.0156Z" fill="#F09D82"/>
<path d="M138.551 25.0731C138.506 35.78 141.653 38.8318 141.653 38.8318C141.653 38.8318 142.089 33.0575 142.155 32.633C142.215 32.2086 144.01 30.7449 144.261 30.4375C144.504 30.1301 144.911 29.6764 145.029 29.0616C145.154 28.4542 146.196 23.2654 146.262 23.0239C146.322 22.7824 150.694 16.8032 150.694 16.8032C150.694 16.8032 149.32 18.8158 148.855 22.2628C150.672 21.5895 151.965 20.7039 151.965 20.7039C150.362 23.9972 149.653 26.7417 149.653 26.7417C156.087 26.2221 164.67 21.3406 164.67 21.3406C163.806 23.4484 163.178 25.7903 163.178 25.7903C166.945 23.8655 172.825 19.05 173.504 17.5277C173.748 18.9036 175.225 22.7751 175.225 22.7751C175.225 22.7751 176.363 20.7625 176.392 18.4425C176.392 18.4425 180.765 22.7751 180.824 23.0166C180.884 23.2581 181.932 28.4469 182.058 29.0543C182.184 29.6617 182.582 30.1228 182.826 30.4302C183.07 30.7375 184.215 32.2012 184.274 32.6257C184.333 33.0502 184.776 38.8245 184.776 38.8245C184.776 38.8245 188.063 35.4945 187.879 25.0657C187.82 21.648 186.431 17.6595 186.431 17.6595C187.509 18.0254 187.886 17.9668 187.886 17.9668C187.886 17.9668 184.865 12.3536 180.647 8.84802C180.957 6.7769 179.968 3.78365 179.968 3.78365C179.968 3.78365 179.015 5.24734 178.645 6.13287C177.478 3.90806 173.903 1.3466 171.347 0C171.347 0 171.658 1.7052 171.931 2.59074C168.393 1.12704 164.884 0.0878216 160.541 0.790394C156.197 1.49297 148.877 1.85889 148.877 1.85889C148.877 1.85889 149.121 3.32258 150.85 4.11298C147.651 5.67181 143.588 8.78216 141.491 10.9777C139.4 13.1732 135.485 19.7891 135.485 19.7891C135.485 19.7891 137.731 19.2402 138.625 18.6914C138.632 18.6987 138.566 20.0672 138.551 25.0731Z" fill="#272936"/>
<path d="M244.689 188.45C245.745 182.442 242.946 176.799 241.092 174.721C239.238 172.642 233.506 171.772 230.965 171.391C228.424 171.01 202.645 168.632 201.736 168.303C200.827 167.973 200.155 167.637 199.239 167.593C198.331 167.549 197.371 168.017 197.371 168.017H129.111C129.111 168.017 128.15 167.541 127.242 167.593C126.333 167.644 125.661 167.973 124.745 168.303C123.837 168.639 98.0574 171.01 95.5164 171.391C92.9754 171.772 87.2434 172.642 85.3894 174.721C83.5353 176.799 80.7358 182.442 81.7921 188.45C81.7921 188.45 88.5139 200.262 112.956 200.262C137.399 200.262 180.78 200.262 197.74 200.262C214.7 200.255 238.189 197.145 244.689 188.45Z" fill="#242733"/>
<path d="M187.997 213.479C187.997 213.479 172.308 214.241 159.832 214.241C147.356 214.241 127.87 214.241 123.711 214.241C119.552 214.241 114.241 213.955 113.089 213.86C111.937 213.765 109.573 214.46 108.672 214.65C107.778 214.841 106.626 215.002 106.626 214.065C106.626 213.128 106.626 208.371 113.732 208.181C115.719 205.832 120.195 204.5 124.036 205.071C127.877 205.641 131.334 205.641 134.784 204.375C138.24 203.109 141.949 199.874 144.704 200.065C147.452 200.255 148.862 202.033 148.862 202.033C153.664 201.397 178.298 195.944 185.404 192.336L187.997 213.479Z" fill="#FAAC8F"/>
<path d="M185.847 196.018L185.397 192.329C178.291 195.944 153.656 201.397 148.855 202.026C148.855 202.026 147.444 200.255 144.696 200.057C141.941 199.867 138.233 203.102 134.776 204.368C131.319 205.634 127.862 205.634 124.029 205.063C120.188 204.492 115.711 205.824 113.724 208.174C106.618 208.364 106.618 213.121 106.618 214.058C106.618 214.994 107.771 214.833 108.665 214.643C109.558 214.453 111.929 213.758 113.082 213.853C114.234 213.948 119.545 214.233 123.704 214.233C126.149 214.233 133.912 214.233 142.421 214.233C165.844 207.303 184.968 197.606 184.968 197.606L185.847 196.018Z" fill="#F7A491"/>
<path d="M239.903 174.955C243.168 177.692 247.503 183.291 247.134 189.46C246.757 195.63 244.349 198.594 238.351 202.495C232.346 206.395 215.63 211.899 187.997 213.472C185.655 207.903 184.34 196.318 185.168 192.263C194.165 188.582 213.946 178.915 218.142 177.385C222.337 175.848 229.118 176.507 231.26 175.929C233.402 175.35 238.019 173.374 239.903 174.955Z" fill="#2F3342"/>
<path d="M137.842 208.561C161.649 205.012 182.191 198.067 193.034 192.549C203.878 187.03 206.951 184.513 208.775 183.035C210.6 181.564 213.525 179.8 215.017 178.944C216.502 178.087 218.282 177.992 218.326 177.421C218.378 176.85 218.326 174.852 216.265 174.047C214.204 173.242 211.42 173.952 210.408 174.713C208.679 174.047 205.274 173.477 202.681 174.948C200.089 176.419 197.932 178.278 193.559 180.034C189.193 181.79 183.144 182.171 179.931 182.127C176.717 182.083 175.129 182.127 173.26 184.03C171.392 185.933 171.776 188.882 172.16 189.972C166.302 191.4 151.041 191.78 137.842 187.118V208.561Z" fill="#F7A491"/>
<path d="M85.574 174.53C82.4938 177.465 78.5198 183.327 79.288 189.46C80.0562 195.593 82.6489 198.396 88.8906 201.916C95.1323 205.436 110.652 212.872 137.849 208.561C139.836 202.853 138.935 191.129 137.849 187.133C128.631 184.023 111.737 176.858 107.453 175.592C103.162 174.326 96.4471 175.401 94.268 174.955C92.089 174.516 87.3542 172.833 85.574 174.53Z" fill="#2F3342"/>
<path d="M163.17 89.7173C175.801 88.0121 182.811 76.1269 182.811 76.1269C182.811 76.1269 183.284 75.9586 184.023 76.1269C184.761 76.2952 200.923 83.5698 201.152 83.6649C201.381 83.76 201.935 83.804 201.662 85.2237C201.389 86.6435 194.733 116.92 194.733 116.92C194.453 131.469 195.383 165.859 195.383 165.859L197.045 168.054C197.045 168.054 189.718 178.849 163.178 178.849C136.637 178.849 129.31 168.054 129.31 168.054L130.972 165.859C130.972 165.859 131.895 131.462 131.622 116.92C131.622 116.92 124.974 86.6435 124.693 85.2237C124.413 83.804 124.974 83.76 125.203 83.6649C125.432 83.5698 141.594 76.3025 142.333 76.1269C143.071 75.9512 143.544 76.1269 143.544 76.1269C143.544 76.1269 150.539 88.0121 163.17 89.7173Z" fill="#724FE4"/>
<path d="M107.956 131.264L118.666 133.035C119.471 132.084 120.395 130.847 121.178 129.8C119.324 129.544 113.459 129.054 107.956 131.264Z" fill="#FBB18F"/>
<path d="M157.667 113.714C157.667 113.714 158.709 109.118 158.923 108.247C159.13 107.377 159.573 106.535 159.868 105.342C160.171 104.149 160.629 102.781 160.651 101.932C160.674 101.083 160.445 100.585 160.954 100.512C161.464 100.446 162.313 100.812 162.712 101.836C163.104 102.868 163.178 104.23 163.178 105.591C163.17 106.974 157.667 113.714 157.667 113.714Z" fill="#FBB18F"/>
<path d="M100.879 135.582C100.879 135.582 105.311 130.7 111.959 130.642C118.607 130.583 124.516 133.203 133.75 132.779C142.983 132.354 151.972 129.976 152.711 129.61C153.45 129.244 153.908 127.81 154.343 126.441C154.779 125.073 155.547 119.796 155.666 119.43C155.791 119.064 156.375 117.966 156.589 117.388C156.803 116.81 158.93 109.155 159.329 108.482C159.728 107.808 160.777 105.642 161.021 104.639C161.265 103.629 161.331 103.3 161.856 103.329C162.38 103.359 163.178 104.456 163.178 105.62C163.178 106.784 163.178 129.193 163.178 131.176C163.178 133.159 162.624 135.414 160.807 137.155C158.99 138.897 155.791 138.743 155.053 139.044C154.314 139.351 134.939 146.391 124.14 147.994C113.34 149.597 106.966 148.682 103.413 147.533C99.8597 146.384 96.5874 142.776 95.7232 141.759C94.859 140.741 96.5062 137.551 100.879 135.582Z" fill="#F7A491"/>
<path d="M122.699 121.033L126.917 119.906C127.611 118.318 128.106 117.271 128.431 116.795C128.431 116.803 124.487 119.057 122.699 121.033Z" fill="#FBB18F"/>
<path d="M218.393 131.264L207.667 132.947C206.862 131.996 205.983 130.898 205.2 129.844C207.054 129.596 212.89 129.054 218.393 131.264Z" fill="#FBB18F"/>
<path d="M168.681 113.714C168.681 113.714 167.639 109.118 167.425 108.247C167.218 107.377 166.775 106.535 166.48 105.342C166.177 104.149 165.719 102.781 165.697 101.932C165.674 101.083 165.903 100.585 165.394 100.512C164.884 100.446 164.035 100.812 163.636 101.836C163.244 102.868 163.17 104.23 163.17 105.591C163.17 106.974 168.681 113.714 168.681 113.714Z" fill="#FBB18F"/>
<path d="M225.469 135.582C225.469 135.582 221.037 130.7 214.389 130.642C207.741 130.583 201.832 133.203 192.599 132.779C183.365 132.354 174.376 129.976 173.637 129.61C172.899 129.244 172.441 127.81 172.005 126.441C171.569 125.073 170.801 119.796 170.683 119.43C170.557 119.064 169.973 117.966 169.759 117.388C169.545 116.81 167.418 109.155 167.019 108.482C166.62 107.808 165.571 105.642 165.327 104.639C165.084 103.629 165.017 103.3 164.493 103.329C163.968 103.359 163.17 104.456 163.17 105.62C163.17 106.784 163.17 129.193 163.17 131.176C163.17 133.159 163.724 135.414 165.542 137.155C167.359 138.897 170.557 138.743 171.296 139.044C172.034 139.351 191.409 146.391 202.209 147.994C213.008 149.597 219.383 148.682 222.936 147.533C226.489 146.391 229.761 142.776 230.625 141.759C231.489 140.741 229.835 137.551 225.469 135.582Z" fill="#F7A491"/>
<path d="M203.649 121.033L199.461 119.972C198.767 118.383 198.161 117 197.821 116.686C197.821 116.693 201.862 119.057 203.649 121.033Z" fill="#FBB18F"/>
</svg>
