<svg width="290" height="208" viewBox="0 0 290 208" fill="none" xmlns="http://www.w3.org/2000/svg">
<path d="M283.363 207.442H287.115L279.121 138.175H275.369L283.363 207.442Z" fill="#E2E8F4"/>
<path d="M241.022 207.442H237.27L245.267 138.175H249.016L241.022 207.442Z" fill="#E2E8F4"/>
<path d="M55.7351 207.442H59.4868L51.4924 138.175H47.7407L55.7351 207.442Z" fill="#E2E8F4"/>
<path d="M13.3936 207.442H9.6438L17.6382 138.175H21.3879L13.3936 207.442Z" fill="#E2E8F4"/>
<path d="M259.56 152.254H17.0854C10.127 152.254 4.15448 146.631 3.74665 139.693L0.022007 76.4799C-0.385828 69.5433 4.92376 63.9189 11.8821 63.9189H254.357C261.315 63.9189 267.288 69.5414 267.695 76.4799L271.42 139.695C271.828 146.631 266.518 152.254 259.56 152.254Z" fill="#E2E8F4"/>
<path d="M269.201 152.254H26.7265C19.7682 152.254 13.7956 146.631 13.3878 139.693L9.66507 76.4799C9.25724 69.5433 14.5668 63.9189 21.5252 63.9189H264C270.958 63.9189 276.931 69.5414 277.338 76.4799L281.061 139.695C281.471 146.631 276.161 152.254 269.201 152.254Z" fill="#F1F4FF"/>
<path d="M281.494 152.83H13.5327C8.55361 152.83 4.28003 148.793 3.98817 143.812C3.6963 138.832 7.49439 134.795 12.4735 134.795H280.435C285.414 134.795 289.688 138.832 289.979 143.812C290.271 148.793 286.473 152.83 281.494 152.83Z" fill="#E2E8F4"/>
<path d="M281.471 152.83H24.4768C19.4803 152.83 15.1932 148.793 14.8994 143.812C14.6056 138.832 18.4192 134.795 23.4137 134.795H280.408C285.404 134.795 289.692 138.832 289.985 143.812C290.279 148.793 286.466 152.83 281.471 152.83Z" fill="#F1F4FF"/>
<path d="M249.849 50.9531L234.274 70.703C233.124 71.3601 211.418 82.7726 211.418 82.7726C211.418 82.7726 207.523 84.9557 205.127 86.1137C205.127 86.1137 206.17 88.7515 207.205 91.4279C216.163 88.0636 242.033 78.312 243.177 77.4719C244.354 76.6087 262.011 55.6835 262.011 55.6835L249.849 50.9531Z" fill="#F8A492"/>
<path d="M250.006 41.7549C250.006 41.7549 247.008 42.3098 241.923 50.9554C237.178 59.025 232.968 68.0752 232.968 68.0752L241.486 76.9347C241.486 76.9347 247.748 57.9402 248.282 57.3294C248.815 56.7166 250.006 41.7549 250.006 41.7549Z" fill="url(#paint0_linear_4323_20171)"/>
<path d="M221.39 193.553C221.39 193.553 221.848 201.11 221.85 201.126C222.018 202.085 222.681 204.455 222.681 205.328C222.681 208.605 207.071 202.546 210.57 201.095C210.887 200.964 212.545 199.969 212.649 198.854C212.81 197.135 213.218 193.659 213.218 193.659L221.39 193.553Z" fill="#F7A491"/>
<path d="M210.608 201.064C210.608 201.064 214.273 202.066 216.15 202.316C218.027 202.567 220.501 200.457 221.829 201.027C223.29 201.656 223.232 207.301 223.232 207.301C223.232 207.301 203.578 208.908 198.052 207.245C195.866 206.588 203.116 203.399 210.608 201.064Z" fill="#B75742"/>
<path d="M194.89 193.553C194.89 193.553 195.348 201.11 195.35 201.125C195.518 202.085 196.181 204.455 196.181 205.328C196.181 208.605 180.571 202.545 184.07 201.095C184.387 200.964 186.751 200.545 186.853 199.432C187.014 197.713 187.313 192.399 187.313 192.399L194.89 193.553Z" fill="#F7A491"/>
<path d="M184.111 201.064C184.111 201.064 187.775 202.066 189.652 202.316C191.529 202.567 194.003 200.457 195.331 201.027C196.792 201.656 196.734 207.301 196.734 207.301C196.734 207.301 177.081 208.908 171.555 207.245C169.367 206.588 176.619 203.399 184.111 201.064Z" fill="#B75742"/>
<path d="M245.589 114.284L208.277 114.444C208.277 114.444 191.423 114.003 188.759 119.814C186.094 125.624 185.916 194.509 185.916 194.509C185.916 194.509 194.735 195.002 195.195 194.509L206.315 156.079C207.4 152.335 207.767 148.42 207.402 144.541L206.433 134.265L221.828 135.05C221.828 135.05 239.282 134.772 245.038 129.001C250.791 123.228 245.589 114.284 245.589 114.284Z" fill="#2F3342"/>
<path d="M270.881 110.182L230.762 112.634C230.762 112.634 213.496 114.033 210.832 119.843C208.167 125.654 211.723 194.507 211.723 194.507C211.723 194.507 221.871 194.944 221.852 194.507C221.827 193.987 226.637 166.163 228.932 155.533C229.66 152.159 229.914 148.703 229.689 145.257L229.102 136.253C229.102 136.253 270.297 135.438 272.147 133.583C277.899 127.814 270.881 110.182 270.881 110.182Z" fill="#2F3342"/>
<path d="M250.006 41.7545C255.82 41.2574 266.238 42.556 266.238 42.556C266.238 42.556 272.876 42.872 274.865 43.7622C277.793 45.0725 283.489 46.5927 281.203 59.9822C279.567 69.5643 275.099 101.318 272.812 117.423L232.968 112.644C241.389 80.7995 244.501 42.2246 250.006 41.7545Z" fill="url(#paint1_linear_4323_20171)"/>
<path d="M263.31 30.08L267.056 42.6236C267.056 42.6236 260.689 49.8588 256.27 49.1555C252.563 48.564 254.289 43.2806 254.289 43.2806C254.289 43.2806 255.197 36.1688 254.102 32.6658C253.004 29.1628 263.31 30.08 263.31 30.08Z" fill="#F7A491"/>
<path d="M261.793 34.4673C260.105 35.6407 257.393 37.0839 254.639 37.7853C254.649 35.9529 254.529 34.0357 254.102 32.6657C253.595 31.0491 255.519 30.3747 257.737 30.1165C260.666 29.9682 263.312 30.0799 263.312 30.0799L264.031 32.4904C263.567 33.186 262.355 34.0761 261.793 34.4673Z" fill="#F47458"/>
<path d="M264.183 10.4671C264.475 10.3399 267.539 25.6793 263.837 30.1842C260.138 34.6891 252.493 36.5659 249.509 33.3866C246.208 29.8702 245.317 13.234 251.21 8.46901C257.105 3.70591 264.183 10.4671 264.183 10.4671Z" fill="#F7A491"/>
<path d="M253.04 0.0467356C257.871 0.717268 261.141 3.43023 262.355 4.59788C264.535 4.71734 267.554 5.72699 270.908 10.5517C275.032 16.4863 272.703 23.4903 268.563 27.1147C264.425 30.739 264.728 34.6081 264.728 34.6081L263.915 32.6485C263.312 31.1629 263.004 29.5675 263.074 27.9644C263.116 27.0029 263.256 25.9586 263.6 25.0838C264.504 22.7793 261.118 21.498 260.078 19.6926C259.278 18.3033 259.036 15.0239 257.766 12.7233L256.315 10.9968C256.315 10.9968 253.077 8.79449 250.1 9.65963C247.12 10.5248 246.844 -0.814552 253.04 0.0467356Z" fill="#272936"/>
<path d="M260.453 22.4323C260.54 24.3225 261.499 25.8139 262.593 25.7638C263.687 25.7137 264.504 24.1414 264.417 22.2531C264.33 20.3629 263.372 18.8715 262.278 18.9216C261.182 18.9717 260.364 20.544 260.453 22.4323Z" fill="#F7A491"/>
<path d="M254.283 27.1978L248.284 27.2633C248.284 27.2633 248.446 29.5331 251.086 29.5812C254.303 29.6371 254.283 27.1978 254.283 27.1978Z" fill="white"/>
<path d="M250.76 94.819C250.331 94.5454 249.82 93.6013 246.523 91.3739C245.572 90.7303 243.941 90.6359 243.941 90.6359C243.941 90.6359 241.934 90.5357 241.778 91.0058C241.621 91.476 241.955 92.0039 242.311 92.1677C242.667 92.3296 243.469 92.2718 243.825 92.4355C244.18 92.5974 244.65 93.7573 244.658 94.2121C244.665 94.6668 238.762 94.1716 238.762 94.1716C238.762 94.1716 237.077 93.9481 236.522 93.8286C236.049 93.7265 234.655 93.3103 234.655 93.3103C234.655 93.3103 232.639 92.8286 232.531 93.4702C232.467 93.8479 234.139 94.7805 235.89 95.4067C237.777 96.083 239.754 96.4491 239.742 96.6533C239.711 97.1293 236.466 96.9366 236.466 96.9366C236.466 96.9366 234.957 96.4896 234.259 96.5127C233.375 96.0811 231.769 95.8113 231.69 96.6013C231.675 96.7478 233.758 97.7497 233.758 97.7497C233.758 97.7497 235.204 98.1331 235.882 98.3586C237.079 98.7574 238.931 98.7883 239.76 98.9925C240.45 99.1621 240.181 99.3316 240.214 99.4068C240.239 99.4646 239.298 99.3798 238.007 99.2854C237.355 99.2372 236.615 99.3297 235.865 99.1543C235.171 98.9925 234.189 98.9097 233.596 98.875C231.918 98.7767 232.16 99.8653 233.712 100.216C234.303 100.349 234.947 100.49 235.6 100.628C238.142 101.17 240.552 101.11 240.591 101.391C240.641 101.756 236.234 101.594 236.234 101.594C236.234 101.594 233.839 102.195 236.132 102.709C238.791 103.307 240.921 103.201 241.014 103.191C241.65 103.122 243.966 103.559 246.132 102.964C247.729 102.524 250.004 101.829 251.09 101.494L250.76 94.819Z" fill="#F8A492"/>
<path d="M205.54 85.8768C205.041 85.7689 204.235 85.0579 200.37 84.1042C199.254 83.8286 197.691 84.3026 197.691 84.3026C197.691 84.3026 195.773 84.8999 195.789 85.3932C195.806 85.8865 196.301 86.268 196.691 86.2988C197.082 86.3296 197.814 85.9982 198.205 86.029C198.595 86.058 199.438 86.9867 199.602 87.4086C199.769 87.8325 194.057 89.401 194.057 89.401C194.057 89.401 192.397 89.7729 191.834 89.8519C191.355 89.9193 189.901 90.0099 189.901 90.0099C189.901 90.0099 187.843 90.2526 187.963 90.8923C188.034 91.27 189.926 91.5667 191.788 91.5532C193.792 91.5378 195.775 91.2006 195.833 91.3952C195.97 91.8538 192.859 92.7883 192.859 92.7883C192.859 92.7883 191.287 92.8885 190.642 93.1506C189.662 93.0484 188.061 93.351 188.26 94.1198C188.297 94.2623 190.599 94.4858 190.599 94.4858C190.599 94.4858 192.089 94.3471 192.802 94.3259C194.065 94.2874 195.812 93.6785 196.66 93.586C197.366 93.509 197.175 93.7594 197.231 93.8172C197.275 93.8635 196.363 94.1063 195.118 94.4647C194.492 94.6438 193.827 94.9849 193.063 95.0793C192.356 95.166 191.405 95.4281 190.837 95.5995C189.229 96.0851 189.834 97.0235 191.411 96.8192C192.012 96.7402 192.665 96.6497 193.326 96.5552C195.899 96.1872 198.141 95.3009 198.272 95.5514C198.445 95.8751 194.254 97.2431 194.254 97.2431C194.254 97.2431 192.217 98.6324 194.546 98.326C197.248 97.9695 199.21 97.1371 199.295 97.0948C199.867 96.8096 202.192 96.4242 204.019 95.1178C205.366 94.1544 207.778 91.5821 208.681 90.8923L205.54 85.8768Z" fill="#F8A492"/>
<path d="M285.961 68.0732L275.048 71.4143C275.048 71.4143 277.109 80.8037 277.134 81.9251C277.134 81.9251 258.543 91.7384 250.762 94.8175L250.972 101.54C252.497 100.981 253.719 100.403 254.477 100.162C255.963 99.6904 279.741 92.4879 279.741 92.4879C279.741 92.4879 289.108 89.195 289.419 87.4127C289.728 85.6323 285.961 68.0732 285.961 68.0732Z" fill="#F7A491"/>
<path d="M289.119 74.3486C289.119 74.3486 283.885 53.2962 281.042 47.8973C278.199 42.4964 272.07 41.8105 268.094 45.4753C264.118 49.1401 275.535 77.2119 275.535 77.2119L289.119 74.3486Z" fill="url(#paint2_linear_4323_20171)"/>
<path d="M130.396 186.709C130.396 186.709 131.21 195.557 130.674 198.441C130.603 198.827 130.444 199.316 130.261 199.856C129.71 201.472 131.217 206.413 131.217 206.413L151.443 206.488C152.545 206.492 151.808 205.796 150.912 205.156C149.444 204.11 148.263 203.422 143.592 201.245C143.286 201.102 142.175 200.418 141.775 200.181C140.758 199.582 139.734 198.63 138.85 197.674C137.378 196.085 137.155 188.287 137.155 188.287L130.396 186.709Z" fill="#F7A491"/>
<path d="M141.773 200.181C136.442 201.613 132.478 200.732 130.255 199.873C129.704 201.488 128.67 206.948 129.286 206.948C134.358 206.948 138.651 207.906 153.183 207.677C153.702 207.669 153.639 205.887 153.3 205.494C152.363 204.409 142.175 200.418 141.773 200.181Z" fill="#B75742"/>
<path d="M153.287 172.039C153.287 172.039 157.711 179.752 158.427 182.598C158.523 182.979 158.583 183.49 158.641 184.056C158.813 185.756 162.242 189.625 162.242 189.625L180.674 181.322C181.677 180.869 180.718 180.542 179.636 180.332C177.865 179.987 176.505 179.85 171.348 179.802C171.011 179.798 169.716 179.636 169.253 179.586C168.079 179.461 166.75 179.017 165.549 178.517C163.549 177.678 160.097 170.676 160.097 170.676L153.287 172.039Z" fill="#F7A491"/>
<path d="M84.1019 26.0146C81.6742 21.1089 75.6649 18.3266 70.1852 18.3189C52.7855 18.2977 50.5724 40.6122 39.497 49.2192C36.1744 51.8012 32.4711 53.913 29.307 56.6741C29.2567 58.5335 29.5563 60.3678 30.142 62.0403C30.8359 63.8708 31.7482 65.5375 32.8306 67.0731L37.5197 64.364L35.4825 70.2678C39.6613 74.6012 45.2299 77.7959 50.6555 80.7747C58.2285 84.8268 66.2905 86.5571 74.4994 86.929C77.5591 80.7728 79.7143 73.948 82.0647 67.5876C84.8809 59.9632 87.2428 52.0266 87.5907 43.8877C87.8536 37.7624 86.9239 31.716 84.1019 26.0146Z" fill="#272936"/>
<path d="M169.249 179.588C164.994 183.096 161.022 183.936 158.641 184.073C158.813 185.771 160.145 191.168 160.707 190.912C165.321 188.813 169.626 187.908 182.752 181.686C183.221 181.462 182.421 179.869 181.95 179.651C180.645 179.052 169.713 179.638 169.249 179.588Z" fill="#B75742"/>
<path d="M115.774 130.379C114.516 130.18 111.458 127.997 110.379 127.799C109.542 127.644 107.735 127.373 106.964 127.257C106.021 123.743 101.225 104.58 100.688 98.9637C100.106 92.8788 95.7899 66.5527 95.7899 66.5527L84.6121 68.5778C84.6121 68.5778 89.2548 88.8306 90.5382 98.6497C91.64 107.085 100.924 126.049 102.105 128.049C102.106 128.097 102.106 128.145 102.11 128.195C102.29 131.172 103.728 130.18 103.728 130.18L106.065 130.776C106.065 130.776 114.336 131.569 114.877 131.768C115.414 131.966 117.034 130.577 115.774 130.379Z" fill="#F7A491"/>
<path d="M87.1675 52.624C95.0691 55.2946 98.4381 75.2487 98.4381 75.2487C98.4381 75.2487 86.0406 78.6997 82.8649 76.8904C82.8649 76.8904 79.2601 60.9594 77.967 61.5163L87.1675 52.624Z" fill="url(#paint3_linear_4323_20171)"/>
<path d="M78.5487 51.0999C78.7536 51.1018 79.0455 51.0305 79.3451 50.9361C80.8121 50.6741 84.6682 51.572 87.1655 52.6221C90.202 53.8996 92.0344 65.1637 91.7541 77.4125C91.642 79.2854 90.2252 108.128 90.0822 108.22C86.46 110.544 64.8795 111.679 63.3776 109.7C61.8758 107.721 60.718 73.53 59.9874 72.3315L58.5513 51.4178C61.0872 50.6625 74.6637 51.0729 78.5487 51.0999Z" fill="url(#paint4_linear_4323_20171)"/>
<path d="M69.6924 43.3981C69.6924 43.3981 71.0995 50.6525 70.8173 53.5158C70.5351 56.3771 71.8901 65.6008 77.967 65.6316C84.0439 65.6624 79.1209 53.905 78.5488 51.1015C77.9767 48.298 77.8414 39.6157 77.8414 39.6157L69.6924 43.3981Z" fill="#F7A491"/>
<path d="M77.967 43.9703C77.8723 41.5946 77.8414 39.6157 77.8414 39.6157L69.6924 43.4C69.6924 43.4 69.9804 44.8837 70.2684 46.7739C73.8365 47.4868 76.4207 46.1708 77.967 43.9703Z" fill="#F47458"/>
<path d="M66.7137 23.3749C66.7137 23.3749 63.5728 25.111 62.4267 28.876C61.2785 32.6391 62.5851 42.3522 70.6974 44.6952C78.8077 47.0382 82.3217 39.3483 80.6517 33.3366C78.9797 27.323 75.3459 19.7101 66.7137 23.3749Z" fill="#F7A491"/>
<path d="M81.6644 31.0052C81.5059 32.6198 80.611 33.8549 79.6678 33.7624C78.7245 33.6699 78.0886 32.2865 78.2471 30.6718C78.4056 29.0571 79.3005 27.8221 80.2438 27.9145C81.187 28.007 81.8229 29.3905 81.6644 31.0052Z" fill="#F7A491"/>
<path d="M67.6648 22.8853C67.6648 22.8853 66.1939 33.7197 62.68 35.6735C59.166 37.6293 60.6369 42.4347 60.6369 42.4347C60.6369 42.4347 57.4496 31.2746 60.2291 27.6907C63.0066 24.1069 67.6648 22.8853 67.6648 22.8853Z" fill="#13375B"/>
<path d="M64.7617 37.2284C65.7146 38.6408 65.7107 40.3056 64.7539 40.9472C63.7972 41.5888 62.2489 40.9645 61.296 39.5541C60.3431 38.1418 60.347 36.477 61.3037 35.8353C62.2605 35.1937 63.8087 35.818 64.7617 37.2284Z" fill="#F7A491"/>
<path d="M76.5793 37.8315L70.8618 39.2651C70.8618 39.2651 71.5499 41.4289 74.082 40.8721C77.1707 40.1938 76.5793 37.8315 76.5793 37.8315Z" fill="white"/>
<path d="M25.2268 133.402C25.3196 133.14 25.5476 133.126 25.7815 133.113C28.0411 132.972 30.2967 132.801 32.5272 132.396C32.9003 132.329 33.2656 132.232 33.6058 132.086C34.2224 131.818 34.837 131.805 35.4729 131.959C35.817 132.042 36.163 132.049 36.5148 132.036C37.6513 131.995 40.8598 130.793 42.5163 130.452C42.8952 130.373 43.187 130.078 43.2701 129.7C44.7063 123.188 47.7641 108.579 48.0695 103.798C48.4599 97.6825 51.8154 70.0635 51.8154 70.0635L63.2135 72.8497C63.2135 72.8497 59.2028 93.2855 58.2267 103.164C57.4729 110.793 50.3657 127.151 48.1255 131.862C47.0682 135.35 44.4531 135.527 43.8481 135.62C43.5021 135.674 43.187 135.853 42.9667 136.126C42.5685 136.618 42.1104 137.049 41.5808 137.408C41.1884 137.672 40.8888 138.011 40.6376 138.404C40.1795 139.119 39.7736 139.861 39.3715 140.606C39.1048 141.101 38.8149 141.263 38.3935 141.161C37.9412 141.053 37.717 140.73 37.7093 140.184C37.6957 139.379 37.9315 138.643 38.3143 137.943C38.6738 137.288 38.6332 136.916 38.1732 136.338C37.9084 136.007 37.6358 135.685 37.2937 135.425C36.9458 135.161 36.5824 134.963 36.1243 135.042C35.3183 135.269 34.5046 135.46 33.6754 135.577L32.9969 135.737C32.9737 135.741 32.6258 135.828 32.6258 135.828C32.5678 135.845 31.3714 136.013 30.9597 136.026C30.6292 136.038 30.0938 136.076 29.6395 136.113C29.2278 136.146 28.3484 135.959 28.3194 135.959C27.9173 135.963 27.5578 135.83 27.2505 135.57C27.1249 135.464 27.0031 135.344 27.0592 135.155C27.1113 134.982 27.2428 134.905 27.4167 134.868C27.6873 134.81 29.0848 134.596 29.0674 134.539C28.6499 134.552 27.3452 134.562 26.9277 134.564C26.3653 134.566 25.8724 134.381 25.4723 133.98C25.3138 133.822 25.1321 133.666 25.2268 133.402Z" fill="#F7A491"/>
<path d="M58.8586 51.3425C53.2784 50.3309 48.2317 75.2485 48.2317 75.2485C48.2317 75.2485 60.6291 78.6994 63.8048 76.8902C63.8048 76.8902 67.4096 60.9592 68.7027 61.5161L58.8586 51.3425Z" fill="url(#paint5_linear_4323_20171)"/>
<path d="M90.3778 106.17V110.717L133.257 119.706L143.899 151.575L137.969 147.539L139.339 196.615L130.321 196.676C130.321 196.676 114.693 155.502 119.819 134.795L72.3635 135.519C72.3635 135.519 50.8564 127.24 61.953 102.276L90.3778 106.17Z" fill="#2F3342"/>
<path d="M90.3779 110.715C90.3779 110.715 134.859 111.012 138.017 113.438C141.176 115.864 164.88 176.129 164.88 176.129L154.541 179.979C154.541 179.979 133.974 145.789 132.886 143.35C131.797 140.91 123.83 123.082 120.79 121.263C117.749 119.444 90.3779 110.715 90.3779 110.715Z" fill="#2F3342"/>
<defs>
<linearGradient id="paint0_linear_4323_20171" x1="234.201" y1="41.7549" x2="258.839" y2="58.5491" gradientUnits="userSpaceOnUse">
<stop stop-color="#4F14A0"/>
<stop offset="1" stop-color="#8066FF"/>
</linearGradient>
<linearGradient id="paint1_linear_4323_20171" x1="236.497" y1="41.6411" x2="293.237" y2="93.0272" gradientUnits="userSpaceOnUse">
<stop stop-color="#4F14A0"/>
<stop offset="1" stop-color="#8066FF"/>
</linearGradient>
<linearGradient id="paint2_linear_4323_20171" x1="268.835" y1="43.1865" x2="294.308" y2="66.226" gradientUnits="userSpaceOnUse">
<stop stop-color="#4F14A0"/>
<stop offset="1" stop-color="#8066FF"/>
</linearGradient>
<linearGradient id="paint3_linear_4323_20171" x1="79.4485" y1="52.624" x2="97.8932" y2="74.0597" gradientUnits="userSpaceOnUse">
<stop stop-color="#4F14A0"/>
<stop offset="1" stop-color="#8066FF"/>
</linearGradient>
<linearGradient id="paint4_linear_4323_20171" x1="60.9561" y1="50.8901" x2="104.64" y2="85.0403" gradientUnits="userSpaceOnUse">
<stop stop-color="#4F14A0"/>
<stop offset="1" stop-color="#8066FF"/>
</linearGradient>
<linearGradient id="paint5_linear_4323_20171" x1="49.7131" y1="51.3125" x2="69.2578" y2="72.8854" gradientUnits="userSpaceOnUse">
<stop stop-color="#4F14A0"/>
<stop offset="1" stop-color="#8066FF"/>
</linearGradient>
</defs>
</svg>
